<svg width="279" height="278" viewBox="0 0 279 278" fill="none" xmlns="http://www.w3.org/2000/svg">
<g filter="url(#filter0_f_5497_10365)">
<circle cx="139.468" cy="139.042" r="88.7569" fill="#00AEFF" fill-opacity="0.14"/>
</g>
<g clip-path="url(#clip0_5497_10365)">
<path d="M141.02 30L95.5098 178.213L141.02 258.993L186.528 178.213L141.02 30Z" fill="#004275"/>
<path d="M141.02 77.0352L116.374 157.301L141.02 201.048L165.665 157.301L141.02 77.0352Z" fill="#007AC1"/>
<path d="M141.019 113.364L112.076 207.626L141.019 259L169.962 207.626L141.019 113.364Z" fill="#0B89CD"/>
<path d="M141.019 113.371L123.599 170.104L141.019 201.024L158.439 170.104L141.019 113.371Z" fill="#40CCFF"/>
<path d="M266.414 86.751L210.382 126.94L204.741 167.835L242.611 151.524L266.414 86.751Z" fill="#004275"/>
<path d="M253.746 103.405L223.402 125.171L220.347 147.318L240.856 138.483L253.746 103.405Z" fill="#007AC1"/>
<path d="M243.962 116.27L208.326 141.83L204.738 167.837L228.824 157.463L243.962 116.27Z" fill="#0B89CD"/>
<path d="M243.96 116.272L222.513 131.655L220.354 147.309L234.849 141.065L243.96 116.272Z" fill="#40CCFF"/>
<path d="M268.52 208.948L224.097 212.476L204.286 194.62L229.792 186.872L268.52 208.948Z" fill="#004275"/>
<path d="M255.326 206.006L231.269 207.916L220.539 198.246L234.353 194.05L255.326 206.006Z" fill="#007AC1"/>
<path d="M245.135 203.732L216.882 205.975L204.283 194.618L220.506 189.691L245.135 203.732Z" fill="#0B89CD"/>
<path d="M245.134 203.731L228.13 205.083L220.546 198.247L230.31 195.281L245.134 203.731Z" fill="#40CCFF"/>
<path d="M15.624 86.751L71.6553 126.94L77.2979 167.835L39.4267 151.524L15.624 86.751Z" fill="#004275"/>
<path d="M28.292 103.405L58.636 125.171L61.6902 147.318L41.1826 138.483L28.292 103.405Z" fill="#007AC1"/>
<path d="M38.0752 116.27L73.7105 141.83L77.2984 167.837L53.2138 157.463L38.0752 116.27Z" fill="#0B89CD"/>
<path d="M38.0771 116.272L59.5256 131.655L61.6852 147.309L47.1892 141.065L38.0771 116.272Z" fill="#40CCFF"/>
<path d="M13.5186 208.948L57.9405 212.476L77.7523 194.62L52.2448 186.872L13.5186 208.948Z" fill="#004275"/>
<path d="M26.7129 206.006L50.7689 207.916L61.4986 198.246L47.6848 194.05L26.7129 206.006Z" fill="#007AC1"/>
<path d="M36.9023 203.732L65.1549 205.975L77.7541 194.618L61.5329 189.691L36.9023 203.732Z" fill="#0B89CD"/>
<path d="M36.9043 203.731L53.9084 205.083L61.4913 198.247L51.7284 195.281L36.9043 203.731Z" fill="#40CCFF"/>
</g>
<defs>
<filter id="filter0_f_5497_10365" x="0.710938" y="0.285156" width="277.514" height="277.514" filterUnits="userSpaceOnUse" color-interpolation-filters="sRGB">
<feFlood flood-opacity="0" result="BackgroundImageFix"/>
<feBlend mode="normal" in="SourceGraphic" in2="BackgroundImageFix" result="shape"/>
<feGaussianBlur stdDeviation="25" result="effect1_foregroundBlur_5497_10365"/>
</filter>
<clipPath id="clip0_5497_10365">
<rect width="255" height="229" fill="white" transform="translate(13.5186 30)"/>
</clipPath>
</defs>
</svg>
