<svg width="61" height="56" xmlns="http://www.w3.org/2000/svg" fill="none">

 <g>
  <title>Layer 1</title>
  <path id="svg_1" fill="#004275" d="m30.5,0.5l-10.8867,35.5971l10.8867,19.4013l10.8863,-19.4013l-10.8863,-35.5971z"/>
  <path id="svg_2" fill="#007AC1" d="m30.5011,11.7969l-5.8956,19.2778l5.8956,10.5068l5.8956,-10.5068l-5.8956,-19.2778z"/>
  <path id="svg_3" fill="#0B89CD" d="m30.4998,20.522l-6.9236,22.6392l6.9236,12.3389l6.9236,-12.3389l-6.9236,-22.6392z"/>
  <path id="svg_4" fill="#40CCFF" d="m30.4993,20.5234l-4.1673,13.6259l4.1673,7.426l4.167,-7.426l-4.167,-13.6259z"/>
  <path id="svg_5" fill="#004275" d="m61.0005,43.479l-10.6268,0.8472l-4.7389,-4.2886l6.1014,-1.8608l9.2643,5.3022z"/>
  <path id="svg_6" fill="#007AC1" d="m57.8431,42.7719l-5.7549,0.4588l-2.5667,-2.3226l3.3045,-1.0077l5.0171,2.8715z"/>
  <path id="svg_7" fill="#0B89CD" d="m55.4071,42.2262l-6.7584,0.5388l-3.0139,-2.7277l3.8806,-1.1833l5.8917,3.3722z"/>
  <path id="svg_8" fill="#40CCFF" d="m55.4054,42.2258l-4.0677,0.3245l-1.8143,-1.6417l2.3358,-0.7123l3.5462,2.0295z"/>
  <path id="svg_9" fill="#004275" d="m60.4972,14.1304l-13.4036,9.6523l-1.3495,9.822l9.0591,-3.9175l5.694,-15.5568z"/>
  <path id="svg_10" fill="#007AC1" d="m57.4663,18.1304l-7.2588,5.2275l-0.7309,5.3192l4.906,-2.1218l3.0837,-8.4249z"/>
  <path id="svg_11" fill="#0B89CD" d="m55.125,21.2197l-8.5245,6.139l-0.8583,6.2463l5.7617,-2.4916l3.6211,-9.8937z"/>
  <path id="svg_12" fill="#40CCFF" d="m55.1256,21.2207l-5.1305,3.6945l-0.5166,3.7597l3.4677,-1.4996l2.1794,-5.9546z"/>
  <path id="svg_13" fill="#004275" d="m0.50391,14.1304l13.40359,9.6523l1.3498,9.822l-9.05941,-3.9175l-5.69398,-15.5568z"/>
  <path id="svg_14" fill="#007AC1" d="m3.5332,18.1304l7.2588,5.2275l0.7306,5.3192l-4.90577,-2.1218l-3.08363,-8.4249z"/>
  <path id="svg_15" fill="#0B89CD" d="m5.875,21.2197l8.5245,6.139l0.8583,6.2463l-5.7614,-2.4916l-3.6214,-9.8937z"/>
  <path id="svg_16" fill="#40CCFF" d="m5.875,21.2207l5.1308,3.6945l0.5166,3.7597l-3.46765,-1.4996l-2.17975,-5.9546z"/>
  <path id="svg_17" fill="#004275" d="m0,43.479l10.6264,0.8472l4.7393,-4.2886l-6.10178,-1.8608l-9.26392,5.3022z"/>
  <path id="svg_18" fill="#007AC1" d="m3.15625,42.7719l5.75457,0.4588l2.56668,-2.3226l-3.30445,-1.0077l-5.0168,2.8715z"/>
  <path id="svg_19" fill="#0B89CD" d="m5.59375,42.2262l6.75845,0.5388l3.0139,-2.7277l-3.8803,-1.1833l-5.89205,3.3722z"/>
  <path id="svg_20" fill="#40CCFF" d="m5.59375,42.2258l4.06764,0.3245l1.81401,-1.6417l-2.33549,-0.7123l-3.54616,2.0295z"/>
 </g>
</svg>