<svg width="24" height="24" viewBox="0 0 24 24" fill="none" xmlns="http://www.w3.org/2000/svg">
<path d="M11.9996 13.0501L6.74961 18.3001C6.59961 18.4501 6.42461 18.5251 6.22461 18.5251C6.02461 18.5251 5.84961 18.4501 5.69961 18.3001C5.54961 18.1501 5.47461 17.9751 5.47461 17.7751C5.47461 17.5751 5.54961 17.4001 5.69961 17.2501L10.9496 12.0001L5.69961 6.7501C5.54961 6.6001 5.47461 6.4251 5.47461 6.2251C5.47461 6.0251 5.54961 5.8501 5.69961 5.7001C5.84961 5.5501 6.02461 5.4751 6.22461 5.4751C6.42461 5.4751 6.59961 5.5501 6.74961 5.7001L11.9996 10.9501L17.2496 5.7001C17.3996 5.5501 17.5746 5.4751 17.7746 5.4751C17.9746 5.4751 18.1496 5.5501 18.2996 5.7001C18.4496 5.8501 18.5246 6.0251 18.5246 6.2251C18.5246 6.4251 18.4496 6.6001 18.2996 6.7501L13.0496 12.0001L18.2996 17.2501C18.4496 17.4001 18.5246 17.5751 18.5246 17.7751C18.5246 17.9751 18.4496 18.1501 18.2996 18.3001C18.1496 18.4501 17.9746 18.5251 17.7746 18.5251C17.5746 18.5251 17.3996 18.4501 17.2496 18.3001L11.9996 13.0501Z" fill="#7BAFDF"/>
</svg>
