<svg width="134" height="101" viewBox="0 0 134 101" fill="none" xmlns="http://www.w3.org/2000/svg">
<path d="M46.1573 66.1356L66.6386 98.1563L87.8092 66.1356L66.6384 -0.000152778L46.1573 66.1356Z" fill="#004275"/>
<path d="M97.047 42.9633L95.7472 60.5493L112.513 54.5468L123.045 24.1012L97.047 42.9633Z" fill="#004275"/>
<path d="M107.681 69.0403L96.889 73.29L105.232 81.5115L126.278 79.0614L107.681 69.0403Z" fill="#004275"/>
<path d="M28.3798 69.0403L39.1716 73.29L30.8289 81.5115L9.78205 79.0614L28.3798 69.0403Z" fill="#004275"/>
<path d="M36.953 42.9633L38.2528 60.5493L21.4866 54.5468L10.9554 24.1012L36.953 42.9633Z" fill="#004275"/>
<path d="M54.4824 58.4733L67.0656 77.9604L79.9286 58.5651L66.8491 18.3629L54.4824 58.4733Z" fill="#007AC1"/>
<path d="M102.272 42.4323L101.525 53.1678L111.695 49.5431L118.018 30.9775L102.272 42.4323Z" fill="#007AC1"/>
<path d="M109.489 71.9829L102.915 74.6046L107.966 79.5964L120.772 78.044L109.489 71.9829Z" fill="#007AC1"/>
<path d="M26.5711 71.9829L33.1457 74.6046L28.0948 79.5964L15.2886 78.044L26.5711 71.9829Z" fill="#007AC1"/>
<path d="M31.7303 42.4323L32.4773 53.1678L22.307 49.5431L15.9835 30.9775L31.7303 42.4323Z" fill="#007AC1"/>
<path d="M53.0736 77.7697L66.6906 97.8711L80.65 77.7696L66.9969 35.7398L53.0736 77.7697Z" fill="#0B89CD"/>
<path d="M96.8429 49.6774L96.096 60.4129L106.266 56.7882L112.59 38.2226L96.8429 49.6774Z" fill="#0B89CD"/>
<path d="M103.648 70.8373L97.0731 73.4591L102.124 78.4509L114.93 76.8985L103.648 70.8373Z" fill="#0B89CD"/>
<path d="M32.4168 70.8373L38.9914 73.4591L33.9405 78.4509L21.1343 76.8985L32.4168 70.8373Z" fill="#0B89CD"/>
<path d="M37.1532 49.6774L37.9001 60.4129L27.7299 56.7882L21.4064 38.2226L37.1532 49.6774Z" fill="#0B89CD"/>
<path d="M75.667 64.9849L67.0625 77.9595L58.5508 64.7778L66.8457 37.8726L75.667 64.9849Z" fill="#40CCFF"/>
<path d="M108.328 50.7417L101.524 53.168L102.029 45.9073L112.593 38.2226L108.328 50.7417Z" fill="#40CCFF"/>
<path d="M106.299 77.9445L102.918 74.6044L107.365 72.8313L114.934 76.8983L106.299 77.9445Z" fill="#40CCFF"/>
<path d="M29.7605 77.9449L33.1412 74.6049L28.6947 72.8318L21.1256 76.8988L29.7605 77.9449Z" fill="#40CCFF"/>
<path d="M25.6714 50.7409L32.4764 53.1674L31.9706 45.9073L21.4068 38.2226L25.6714 50.7409Z" fill="#40CCFF"/>
</svg>
