<svg width="15" height="26" viewBox="0 0 15 26" fill="none" xmlns="http://www.w3.org/2000/svg">
<rect x="0.5" y="0.46875" width="14" height="21" rx="6" fill="url(#paint0_linear_5769_7051)"/>
<path d="M7.5 19.5312C8.57744 19.5312 9.61075 19.1032 10.3726 18.3414C11.1345 17.5795 11.5625 16.5462 11.5625 15.4688V7.34375C11.5625 6.26631 11.1345 5.233 10.3726 4.47113C9.61075 3.70926 8.57744 3.28125 7.5 3.28125C6.42256 3.28125 5.38925 3.70926 4.62738 4.47113C3.86551 5.233 3.4375 6.26631 3.4375 7.34375V15.4688C3.4375 16.5462 3.86551 17.5795 4.62738 18.3414C5.38925 19.1032 6.42256 19.5312 7.5 19.5312ZM5.0625 7.34375C5.0625 6.69728 5.31931 6.0773 5.77643 5.62018C6.23355 5.16306 6.85353 4.90625 7.5 4.90625C8.14647 4.90625 8.76645 5.16306 9.22357 5.62018C9.68069 6.0773 9.9375 6.69728 9.9375 7.34375V15.4688C9.9375 16.1152 9.68069 16.7352 9.22357 17.1923C8.76645 17.6494 8.14647 17.9062 7.5 17.9062C6.85353 17.9062 6.23355 17.6494 5.77643 17.1923C5.31931 16.7352 5.0625 16.1152 5.0625 15.4688V7.34375Z" fill="#519CD2"/>
<path d="M13.1875 12.5312V14.9688C13.1875 16.4772 12.5883 17.9238 11.5217 18.9904C10.4551 20.057 9.00842 20.6562 7.5 20.6562C5.99158 20.6562 4.54494 20.057 3.47833 18.9904C2.41172 17.9238 1.8125 16.4772 1.8125 14.9688V12.5312H0.1875V14.9688C0.188354 16.7669 0.851681 18.5016 2.05074 19.8416C3.2498 21.1815 4.90052 22.0327 6.6875 22.2325V23.9062H3.4375V25.5312H11.5625V23.9062H8.3125V22.2325C10.0995 22.0327 11.7502 21.1815 12.9493 19.8416C14.1483 18.5016 14.8116 16.7669 14.8125 14.9688V12.5312H13.1875Z" fill="#519CD2"/>
<defs>
<linearGradient id="paint0_linear_5769_7051" x1="7.5" y1="0.46875" x2="7.5" y2="21.4688" gradientUnits="userSpaceOnUse">
<stop stop-color="#00B3FF" stop-opacity="0.54"/>
<stop offset="1" stop-color="#001D6B" stop-opacity="0.2"/>
</linearGradient>
</defs>
</svg>
