<svg width="25" height="24" viewBox="0 0 25 24" fill="none" xmlns="http://www.w3.org/2000/svg">
<path d="M11.033 1.27881C5.85215 1.27881 1.62598 5.41875 1.62598 10.5578C1.62598 15.6969 5.85215 19.8368 11.033 19.8368C13.267 19.8368 15.3235 19.067 16.9402 17.7793L21.2929 22.1319C21.6834 22.5225 22.3166 22.5225 22.7071 22.1319C23.0976 21.7414 23.0976 21.1082 22.7071 20.7177L18.3634 16.374C19.6616 14.7848 20.44 12.7633 20.44 10.5578C20.44 5.41875 16.2138 1.27881 11.033 1.27881ZM3.62598 10.5578C3.62598 6.55214 6.92768 3.27881 11.033 3.27881C15.1383 3.27881 18.44 6.55214 18.44 10.5578C18.44 14.5635 15.1383 17.8368 11.033 17.8368C6.92768 17.8368 3.62598 14.5635 3.62598 10.5578Z" fill="#AAE4FF"/>
</svg>
