<svg width="256" height="229" viewBox="0 0 256 229" fill="none" xmlns="http://www.w3.org/2000/svg">
<g clip-path="url(#clip0_6251_7873)">
<path d="M128.019 0L82.5088 148.213L128.019 228.993L173.527 148.213L128.019 0Z" fill="#004275"/>
<path d="M128.019 47.0356L103.373 127.302L128.019 171.048L152.664 127.302L128.019 47.0356Z" fill="#007AC1"/>
<path d="M128.019 83.3638L99.0757 177.625L128.019 229L156.961 177.625L128.019 83.3638Z" fill="#0B89CD"/>
<path d="M128.019 83.3706L110.598 140.104L128.019 171.023L145.438 140.104L128.019 83.3706Z" fill="#40CCFF"/>
<path d="M253.413 56.751L197.382 96.9398L191.741 137.835L229.61 121.524L253.413 56.751Z" fill="#004275"/>
<path d="M240.746 73.4058L210.402 95.1713L207.346 117.319L227.855 108.484L240.746 73.4058Z" fill="#007AC1"/>
<path d="M230.961 86.2695L195.326 111.83L191.738 137.837L215.824 127.463L230.961 86.2695Z" fill="#0B89CD"/>
<path d="M230.96 86.2725L209.513 101.655L207.353 117.309L221.849 111.065L230.96 86.2725Z" fill="#40CCFF"/>
<path d="M255.519 178.948L211.096 182.476L191.286 164.62L216.792 156.872L255.519 178.948Z" fill="#004275"/>
<path d="M242.325 176.006L218.268 177.916L207.538 168.246L221.352 164.05L242.325 176.006Z" fill="#007AC1"/>
<path d="M232.135 173.733L203.882 175.976L191.283 164.619L207.506 159.692L232.135 173.733Z" fill="#0B89CD"/>
<path d="M232.133 173.731L215.129 175.083L207.545 168.247L217.309 165.281L232.133 173.731Z" fill="#40CCFF"/>
<path d="M2.62305 56.751L58.6543 96.9398L64.2969 137.835L26.4258 121.524L2.62305 56.751Z" fill="#004275"/>
<path d="M15.292 73.4058L45.636 95.1713L48.6902 117.319L28.1826 108.484L15.292 73.4058Z" fill="#007AC1"/>
<path d="M25.0752 86.2695L60.7105 111.83L64.2984 137.837L40.2138 127.463L25.0752 86.2695Z" fill="#0B89CD"/>
<path d="M25.0767 86.2725L46.5251 101.655L48.6847 117.309L34.1887 111.065L25.0767 86.2725Z" fill="#40CCFF"/>
<path d="M0.518066 178.948L44.94 182.476L64.7518 164.62L39.2443 156.872L0.518066 178.948Z" fill="#004275"/>
<path d="M13.7124 176.006L37.7684 177.916L48.4981 168.246L34.6843 164.05L13.7124 176.006Z" fill="#007AC1"/>
<path d="M23.9014 173.733L52.1539 175.976L64.7531 164.619L48.532 159.692L23.9014 173.733Z" fill="#0B89CD"/>
<path d="M23.9043 173.731L40.9084 175.083L48.4913 168.247L38.7284 165.281L23.9043 173.731Z" fill="#40CCFF"/>
</g>
<defs>
<clipPath id="clip0_6251_7873">
<rect width="255" height="229" fill="white" transform="translate(0.518066)"/>
</clipPath>
</defs>
</svg>
