<svg width="19" height="19" viewBox="0 0 19 19" fill="none" xmlns="http://www.w3.org/2000/svg">
<path fill-rule="evenodd" clip-rule="evenodd" d="M16.7217 12.5034L14.1817 12.2134C13.5717 12.1434 12.9717 12.3534 12.5417 12.7834L10.7017 14.6234C7.87174 13.1834 5.55174 10.8734 4.11174 8.03342L5.96174 6.18342C6.39174 5.75342 6.60174 5.15342 6.53174 4.54342L6.24174 2.02342C6.12174 1.01342 5.27174 0.253418 4.25174 0.253418H2.52174C1.39174 0.253418 0.45174 1.19342 0.52174 2.32342C1.05174 10.8634 7.88174 17.6834 16.4117 18.2134C17.5417 18.2834 18.4817 17.3434 18.4817 16.2134V14.4834C18.4917 13.4734 17.7317 12.6234 16.7217 12.5034Z" fill="white"/>
</svg>
