<svg width="15" height="21" viewBox="0 0 15 21" fill="none" xmlns="http://www.w3.org/2000/svg">
<path d="M7.51807 0.783203C11.3881 0.783203 14.5181 3.9132 14.5181 7.7832C14.5181 11.9532 10.0976 17.7036 8.2876 19.8936C7.88761 20.373 7.15824 20.3731 6.7583 19.8936C4.9383 17.7036 0.518066 11.9532 0.518066 7.7832C0.518066 3.9132 3.64807 0.783203 7.51807 0.783203ZM7.51807 5.2832C6.13807 5.2832 5.01807 6.4032 5.01807 7.7832C5.01807 9.1632 6.13807 10.2832 7.51807 10.2832C8.89807 10.2832 10.0181 9.1632 10.0181 7.7832C10.0181 6.4032 8.89807 5.2832 7.51807 5.2832Z" fill="white"/>
</svg>
