<svg width="24" height="24" viewBox="0 0 24 24" fill="none" xmlns="http://www.w3.org/2000/svg">
<g clip-path="url(#clip0_2481_44637)">
<path d="M8.13099 6.95202L10.824 4.24722V15.5251C10.824 15.8369 10.948 16.1361 11.1685 16.3566C11.389 16.5771 11.6881 16.7011 12 16.7011C12.3119 16.7011 12.6111 16.5771 12.8316 16.3566C13.0521 16.1361 13.176 15.8369 13.176 15.5251V4.24722L15.869 6.95202C15.9784 7.06222 16.1085 7.14972 16.2517 7.20942C16.3951 7.26912 16.5488 7.29992 16.704 7.29992C16.8592 7.29992 17.0129 7.26912 17.1563 7.20942C17.2995 7.14972 17.4296 7.06222 17.539 6.95202C17.6492 6.84272 17.7367 6.71262 17.7964 6.56932C17.8561 6.42602 17.8868 6.27232 17.8868 6.11712C17.8868 5.96182 17.8561 5.80812 17.7964 5.66482C17.7367 5.52152 17.6492 5.39142 17.539 5.28212L12.835 0.57812C12.7231 0.47102 12.5913 0.38712 12.4469 0.33112C12.1605 0.21352 11.8395 0.21352 11.5531 0.33112C11.4087 0.38712 11.2769 0.47102 11.165 0.57812L6.46099 5.28212C6.35139 5.39182 6.26439 5.52192 6.20509 5.66522C6.14569 5.80842 6.11519 5.96202 6.11519 6.11712C6.11519 6.27212 6.14569 6.42572 6.20509 6.56892C6.26439 6.71222 6.35139 6.84242 6.46099 6.95202C6.57069 7.06172 6.70089 7.14872 6.84409 7.20802C6.98739 7.26732 7.14089 7.29792 7.29599 7.29792C7.45109 7.29792 7.60459 7.26732 7.74789 7.20802C7.89109 7.14872 8.02129 7.06172 8.13099 6.95202ZM22.584 11.9971C22.2721 11.9971 21.973 12.121 21.7525 12.3415C21.532 12.562 21.408 12.8612 21.408 13.1731V20.2291C21.408 20.5409 21.2841 20.8401 21.0636 21.0606C20.8431 21.2811 20.5439 21.4051 20.232 21.4051H3.76799C3.45609 21.4051 3.15699 21.2811 2.93639 21.0606C2.71589 20.8401 2.59199 20.5409 2.59199 20.2291V13.1731C2.59199 12.8612 2.46809 12.562 2.24759 12.3415C2.02699 12.121 1.72789 11.9971 1.41599 11.9971C1.10409 11.9971 0.80499 12.121 0.58439 12.3415C0.36389 12.562 0.23999 12.8612 0.23999 13.1731V20.2291C0.23999 21.1647 0.61169 22.0621 1.27329 22.7237C1.93499 23.3853 2.83229 23.7571 3.76799 23.7571H20.232C21.1676 23.7571 22.065 23.3853 22.7267 22.7237C23.3883 22.0621 23.76 21.1647 23.76 20.2291V13.1731C23.76 12.8612 23.636 12.562 23.4156 12.3415C23.1952 12.121 22.8959 11.9971 22.584 11.9971Z" fill="#7BAFDF"/>
</g>
<defs>
<clipPath id="clip0_2481_44637">
<rect width="24" height="24" fill="white"/>
</clipPath>
</defs>
</svg>
