<svg width="134" height="102" viewBox="0 0 134 102" fill="none" xmlns="http://www.w3.org/2000/svg">
<path d="M46.1592 66.8084L66.6405 98.8292L87.8111 66.8084L66.6403 0.672699L46.1592 66.8084Z" fill="#004275"/>
<path d="M97.046 43.6362L95.7462 61.2221L112.512 55.2196L123.044 24.7741L97.046 43.6362Z" fill="#004275"/>
<path d="M107.681 69.7132L96.889 73.9628L105.232 82.1844L126.278 79.7342L107.681 69.7132Z" fill="#004275"/>
<path d="M28.3818 69.7132L39.1735 73.9628L30.8308 82.1844L9.784 79.7342L28.3818 69.7132Z" fill="#004275"/>
<path d="M36.954 43.6362L38.2538 61.2221L21.4876 55.2196L10.9564 24.7741L36.954 43.6362Z" fill="#004275"/>
<path d="M54.4824 59.1462L67.0656 78.6333L79.9286 59.238L66.8491 19.0358L54.4824 59.1462Z" fill="#007AC1"/>
<path d="M102.273 43.1054L101.526 53.8409L111.696 50.2162L118.019 31.6506L102.273 43.1054Z" fill="#007AC1"/>
<path d="M109.49 72.6555L102.916 75.2772L107.967 80.269L120.773 78.7166L109.49 72.6555Z" fill="#007AC1"/>
<path d="M26.5721 72.6557L33.1467 75.2775L28.0958 80.2693L15.2896 78.7169L26.5721 72.6557Z" fill="#007AC1"/>
<path d="M31.7313 43.1054L32.4782 53.8409L22.308 50.2162L15.9845 31.6506L31.7313 43.1054Z" fill="#007AC1"/>
<path d="M53.0755 78.4426L66.6926 98.5439L80.652 78.4424L66.9988 36.4126L53.0755 78.4426Z" fill="#0B89CD"/>
<path d="M96.8429 50.3503L96.096 61.0857L106.266 57.461L112.59 38.8955L96.8429 50.3503Z" fill="#0B89CD"/>
<path d="M103.651 71.5102L97.076 74.132L102.127 79.1238L114.933 77.5714L103.651 71.5102Z" fill="#0B89CD"/>
<path d="M32.4197 71.5102L38.9943 74.132L33.9434 79.1238L21.1372 77.5714L32.4197 71.5102Z" fill="#0B89CD"/>
<path d="M37.1532 50.3503L37.9001 61.0857L27.7299 57.461L21.4064 38.8955L37.1532 50.3503Z" fill="#0B89CD"/>
<path d="M75.666 65.6577L67.0615 78.6323L58.5498 65.4507L66.8447 38.5454L75.666 65.6577Z" fill="#40CCFF"/>
<path d="M108.335 51.4134L101.526 53.8411L102.032 46.5818L112.598 38.8953L108.335 51.4134Z" fill="#40CCFF"/>
<path d="M106.3 78.6174L102.919 75.2774L107.365 73.5041L114.933 77.5709L106.3 78.6174Z" fill="#40CCFF"/>
<path d="M29.7625 78.6179L33.1432 75.2779L28.6977 73.5046L21.1296 77.5714L29.7625 78.6179Z" fill="#40CCFF"/>
<path d="M25.6693 51.4134L32.4776 53.8411L31.9723 46.5818L21.4061 38.8953L25.6693 51.4134Z" fill="#40CCFF"/>
</svg>
