<svg width="24" height="22" viewBox="0 0 24 22" fill="none" xmlns="http://www.w3.org/2000/svg">
<path d="M5.3673 20H9.5L18.1879 19.5427C18.6609 19.5178 19.0516 19.1644 19.1237 18.6962L19.8899 13.7154C19.9556 13.2885 20.2879 12.952 20.7139 12.881L21.6645 12.7226C22.3281 12.612 22.6954 11.8908 22.3945 11.289L21.1014 8.70288C21.0347 8.56932 20.9388 8.45242 20.821 8.36074L12.5563 1.93266C12.2227 1.6732 11.762 1.65146 11.4055 1.87835L6.64399 4.90837C6.54869 4.96902 6.46435 5.04538 6.39455 5.13421L1.8252 10.9498C1.41288 11.4745 1.62049 12.2482 2.24012 12.496L2.9632 12.7853C3.29531 12.9181 3.53118 13.2182 3.58176 13.5723L4.37735 19.1414C4.44772 19.6341 4.86964 20 5.3673 20Z" fill="url(#paint0_linear_6019_7761)"/>
<path fill-rule="evenodd" clip-rule="evenodd" d="M10.3528 1.2174C11.3336 0.546672 12.6665 0.546673 13.6474 1.21741L14.785 1.99536C18.1464 4.29413 21.0322 7.11776 23.3035 10.3373L23.6683 10.8546C24.1149 11.4876 24.0833 12.2495 23.7351 12.82C23.3943 13.3783 22.7714 13.7354 22.0654 13.7354H21.0926C21.1438 15.3266 21.054 17.236 20.8188 18.6105C20.5419 20.2291 19.0452 21.2858 17.4519 21.2858H6.54819C4.9549 21.2858 3.45819 20.2291 3.18134 18.6105C2.94624 17.236 2.85638 15.3266 2.90755 13.7354H1.93454C1.22858 13.7354 0.60559 13.3783 0.264789 12.82C-0.083453 12.2495 -0.114946 11.4876 0.331587 10.8546L0.696586 10.3372C2.96774 7.11773 5.85355 4.29414 9.21504 1.99544L10.3528 1.2174ZM12.4378 2.98623C12.1862 2.8142 11.8139 2.8142 11.5624 2.98623L10.4246 3.76426C7.26598 5.92426 4.56603 8.56942 2.44761 11.5724L2.43341 11.5925H4.04366C4.34477 11.5925 4.63198 11.7192 4.83497 11.9416C5.03798 12.164 5.13804 12.4615 5.11065 12.7614C4.96807 14.3228 5.03199 16.7203 5.29353 18.2493C5.36789 18.684 5.8338 19.1429 6.54819 19.1429H8.71248V15.0031C8.71248 13.1875 10.1843 11.7158 11.9998 11.7158C13.8153 11.7158 15.2871 13.1875 15.2871 15.0031V19.1429H17.4519C18.1663 19.1429 18.6322 18.684 18.7066 18.2493C18.9682 16.7203 19.0322 14.3228 18.8895 12.7614C18.8621 12.4615 18.9622 12.164 19.1652 11.9416C19.3682 11.7192 19.6553 11.5925 19.9565 11.5925H21.5666L21.5523 11.5725C19.434 8.56944 16.734 5.92422 13.5754 3.76417L12.4378 2.98623Z" fill="#F0F0F0"/>
<defs>
<linearGradient id="paint0_linear_6019_7761" x1="12" y1="1.5" x2="12" y2="20" gradientUnits="userSpaceOnUse">
<stop stop-color="#204A79"/>
<stop offset="1" stop-color="#204F79" stop-opacity="0"/>
</linearGradient>
</defs>
</svg>
