<svg width="31" height="32" viewBox="0 0 31 32" fill="none" xmlns="http://www.w3.org/2000/svg">
<g clip-path="url(#clip0_1754_20720)">
<path d="M30.6774 15.6888C30.6774 7.30673 23.8824 0.511719 15.5003 0.511719C7.11825 0.511719 0.323242 7.30673 0.323242 15.6888C0.323242 23.2641 5.87328 29.5429 13.1289 30.6815V20.0759H9.27536V15.6888H13.1289V12.3451C13.1289 8.54133 15.3947 6.44027 18.8615 6.44027C20.522 6.44027 22.2589 6.73668 22.2589 6.73668V10.4717H20.3451C18.4597 10.4717 17.8718 11.6416 17.8718 12.8418V15.6888H22.081L21.4081 20.0759H17.8718V30.6815C25.1274 29.5429 30.6774 23.2641 30.6774 15.6888Z" fill="#1877F2"/>
<path d="M21.4081 20.0758L22.081 15.6887H17.8718V12.8418C17.8718 11.6415 18.4597 10.4716 20.3451 10.4716H22.2589V6.73659C22.2589 6.73659 20.522 6.44019 18.8615 6.44019C15.3948 6.44019 13.1289 8.54124 13.1289 12.345V15.6887H9.27539V20.0758H13.1289V30.6814C13.9016 30.8027 14.6936 30.8658 15.5004 30.8658C16.3071 30.8658 17.0991 30.8027 17.8718 30.6814V20.0758H21.4081Z" fill="white"/>
</g>
<defs>
<clipPath id="clip0_1754_20720">
<rect width="31" height="31" fill="white" transform="translate(0 0.188721)"/>
</clipPath>
</defs>
</svg>
