<svg width="121" height="120" viewBox="0 0 121 120" fill="none" xmlns="http://www.w3.org/2000/svg">
<rect x="0.5" width="120" height="120" rx="60" fill="url(#paint0_linear_3203_45268)"/>
<path d="M38.5428 35.3378C43.0801 30.7299 49.9102 28.7626 59.6114 31.9387L59.8679 32.0257C65.1478 33.8826 69.8885 39.5336 71.6006 48.4864C76.547 47.7971 82.3006 50.6495 85.2631 56.5551C85.9019 57.8286 85.6046 59.3967 84.5495 60.3175C83.7882 60.9817 83.2328 62.1073 82.859 63.4633L82.7868 63.7373C82.1699 66.1826 80.0599 67.5798 78.0025 67.673L77.8035 67.6778C76.9444 67.6815 76.3629 67.9202 76.0033 68.1764C75.5205 68.5203 74.9501 68.7042 74.3663 68.7042H18.2758C16.9703 68.7042 15.8246 67.7934 15.4726 66.4763C14.2148 61.7698 15.5272 56.9625 18.762 53.5969C21.836 50.3986 26.4652 48.6577 31.944 49.1137C32.8164 44.9719 34.5814 39.3606 38.5428 35.3378ZM58.7432 34.8499C40.9181 29.014 36.1487 42.5551 34.608 50.6625C34.4138 51.6845 33.4714 52.3556 32.4837 52.2327C22.2338 50.9581 16.3484 58.4423 18.2758 65.6542H74.3663C75.2503 65.0245 76.4095 64.6338 77.7916 64.6279C78.7847 64.6236 79.7184 63.964 79.9722 62.9581C80.4028 61.2517 81.1851 59.2837 82.6862 57.974C80.2424 53.1024 75.5915 50.972 71.9144 51.5197C70.6153 51.7132 69.0689 50.8975 68.8309 49.5456C67.3191 40.9582 62.937 36.2229 58.7432 34.8499Z" fill="url(#paint1_linear_3203_45268)"/>
<path d="M82.6331 58.1366C85.343 55.9087 88.9762 55.371 93.3184 56.7837L93.5822 56.8749C96.2208 57.8406 98.3855 60.2641 99.5213 63.5973C99.5488 63.62 99.5822 63.6465 99.6226 63.6753C99.7473 63.7642 99.9059 63.8572 100.085 63.9416C100.264 64.0259 100.431 64.0867 100.562 64.1238L100.888 64.2245C104.241 65.3361 107 68.7555 107 73.6912C107 75.7126 105.436 77.3512 103.506 77.3512H74.5526C73.0369 77.3512 71.7003 76.3284 71.2325 74.8302L71.1898 74.6837C70.4735 72.0199 71.1125 69.2833 72.774 67.2673C74.255 65.4703 76.4094 64.3892 78.8467 64.1679C79.445 62.2439 80.5373 59.8597 82.6331 58.1366ZM92.2818 60.2793C85.2062 57.9772 82.8262 62.6006 81.9394 66.1152L81.8837 66.2999C81.5684 67.2012 80.6898 67.7816 79.7588 67.7856L79.4028 67.7957C75.8909 67.9827 73.9279 70.703 74.4883 73.4196L74.5526 73.6912H103.506C103.506 70.3137 101.701 68.3321 99.8295 67.7123L99.6481 67.6569C98.4236 67.3093 96.8199 66.3983 96.344 65.1586L96.3013 65.0376C95.4648 62.4112 93.9303 60.8804 92.4274 60.3293L92.2818 60.2793Z" fill="url(#paint2_linear_3203_45268)"/>
<path d="M51.3886 73.8009C49.1688 71.8578 46.1927 71.3888 42.6359 72.621L42.4198 72.7005C40.2584 73.5427 38.4853 75.6565 37.5549 78.5635C37.5324 78.5833 37.505 78.6064 37.4719 78.6316C37.3698 78.7091 37.2399 78.7902 37.0933 78.8638C36.9468 78.9374 36.8097 78.9904 36.7025 79.0228L36.4352 79.1106C33.6891 80.08 31.4291 83.0624 31.4291 87.3671C31.4291 89.13 32.7103 90.5591 34.2908 90.5591H58.0076C59.2491 90.5591 60.344 89.6672 60.7272 88.3605L60.7621 88.2326C61.3489 85.9094 60.8255 83.5226 59.4645 81.7644C58.2513 80.1971 56.4866 79.2542 54.4901 79.0612C54 77.3832 53.1053 75.3037 51.3886 73.8009ZM43.485 75.6697C49.2809 73.6619 51.2304 77.6942 51.9568 80.7596L52.0025 80.9206C52.2607 81.7067 52.9804 82.2129 53.743 82.2164L54.0346 82.2252C56.9113 82.3883 58.5192 84.7609 58.0602 87.1302L58.0076 87.3671H34.2908C34.2908 84.4214 35.7691 82.693 37.3024 82.1525L37.451 82.1042C38.454 81.801 39.7677 81.0065 40.1576 79.9252L40.1925 79.8197C40.8777 77.5291 42.1346 76.194 43.3657 75.7133L43.485 75.6697Z" fill="url(#paint3_linear_3203_45268)"/>
<defs>
<linearGradient id="paint0_linear_3203_45268" x1="60.5" y1="0" x2="60.5" y2="120" gradientUnits="userSpaceOnUse">
<stop stop-color="#008BAE"/>
<stop offset="0.075" stop-color="#004860" stop-opacity="0.540426"/>
<stop offset="0.235" stop-color="#00151A" stop-opacity="0.1"/>
<stop offset="0.91" stop-color="#004493" stop-opacity="0.6"/>
<stop offset="1" stop-color="#009BFB"/>
</linearGradient>
<linearGradient id="paint1_linear_3203_45268" x1="50.2992" y1="30.3843" x2="50.2992" y2="68.7042" gradientUnits="userSpaceOnUse">
<stop stop-color="#70A1F1"/>
<stop offset="0.5" stop-color="#52B9F4"/>
<stop offset="1" stop-color="#16276F"/>
</linearGradient>
<linearGradient id="paint2_linear_3203_45268" x1="88.9496" y1="56.0034" x2="88.9496" y2="77.3512" gradientUnits="userSpaceOnUse">
<stop stop-color="#70A1F1"/>
<stop offset="0.5" stop-color="#52B9F4"/>
<stop offset="1" stop-color="#16276F"/>
</linearGradient>
<linearGradient id="paint3_linear_3203_45268" x1="46.2145" y1="71.9404" x2="46.2145" y2="90.5591" gradientUnits="userSpaceOnUse">
<stop stop-color="#70A1F1"/>
<stop offset="0.5" stop-color="#52B9F4"/>
<stop offset="1" stop-color="#16276F"/>
</linearGradient>
</defs>
</svg>
