<svg width="81" height="69" viewBox="0 0 81 69" fill="none" xmlns="http://www.w3.org/2000/svg">
<path d="M54.1982 46.2012L39.6758 68.166L25.626 46.2012L39.6758 0.833984L54.1982 46.2012ZM33.5957 44.4404L39.9697 54.3115L46.251 44.8389L39.9199 25.3496L33.5957 44.4404Z" fill="#CCDEFF"/>
<path d="M71.1436 38.251L59.6426 42.3691L60.5342 30.3057L78.3682 17.3672L71.1436 38.251ZM63.9521 32.3262L63.6045 37.3057L68.2744 35.6406L71.1992 27.0547L63.9521 32.3262Z" fill="#CCDEFF"/>
<path d="M80.5859 55.0674L66.1484 56.749L60.4258 51.1084L67.8291 48.1934L80.5859 55.0674ZM64.5605 52.0098L66.8799 54.3018L72.8018 53.584L67.6104 50.7939L64.5605 52.0098Z" fill="#CCDEFF"/>
<path d="M20.832 51.1084L15.1094 56.749L0.671875 55.0674L13.4287 48.1934L20.832 51.1084ZM8.45605 53.583L14.3789 54.3008L16.6973 52.0107L13.6475 50.7939L8.45605 53.583Z" fill="#CCDEFF"/>
<path d="M19.3105 30.3057L20.2021 42.3691L8.70117 38.251L1.47656 17.3672L19.3105 30.3057ZM11.5654 35.6416L16.2354 37.3057L15.8896 32.3262L8.64062 27.0537L11.5654 35.6416Z" fill="#CCDEFF"/>
</svg>
