<svg width="130" height="131" viewBox="0 0 130 131" fill="none" xmlns="http://www.w3.org/2000/svg">
<rect y="0.5" width="130" height="130" rx="60" fill="url(#paint0_linear_3203_45187)"/>
<path d="M64.9864 81.8231C64.5868 81.8231 64.2171 81.7551 63.8768 81.6189C63.5364 81.4827 63.1963 81.2447 62.8559 80.9043L47.4413 65.4897C46.8288 64.8589 46.5395 64.1224 46.5736 63.2807C46.6077 62.4395 46.9177 61.7127 47.5036 61.1002C48.1427 60.4877 48.8875 60.1814 49.7382 60.1814C50.589 60.1814 51.3205 60.4877 51.933 61.1002L61.9372 71.2064V36.396C61.9372 35.5283 62.2326 34.8008 62.8233 34.2135C63.4133 33.6268 64.1448 33.3335 65.0181 33.3335C65.8905 33.3335 66.6161 33.6268 67.1945 34.2135C67.7729 34.8008 68.0622 35.5283 68.0622 36.396V71.2064L78.1684 61.1002C78.7673 60.4877 79.4786 60.1984 80.302 60.2325C81.1254 60.2666 81.8567 60.5897 82.4957 61.2022C83.0817 61.8147 83.3747 62.5463 83.3747 63.397C83.3747 64.2478 83.0684 64.9793 82.4559 65.5918L67.1434 80.9043C66.8031 81.2447 66.4585 81.4827 66.1093 81.6189C65.7596 81.7551 65.3851 81.8231 64.9864 81.8231ZM38.458 98.6668C36.8247 98.6668 35.3955 98.0543 34.1705 96.8293C32.9455 95.6043 32.333 94.1752 32.333 92.5418V81.0064C32.333 80.1387 32.6284 79.4113 33.2191 78.8239C33.8091 78.2373 34.5407 77.9439 35.4139 77.9439C36.2863 77.9439 37.0119 78.2373 37.5903 78.8239C38.1687 79.4113 38.458 80.1387 38.458 81.0064V92.5418H91.5413V81.0064C91.5413 80.1387 91.8368 79.4113 92.4274 78.8239C93.0175 78.2373 93.749 77.9439 94.6222 77.9439C95.4946 77.9439 96.2202 78.2373 96.7986 78.8239C97.377 79.4113 97.6663 80.1387 97.6663 81.0064V92.5418C97.6663 94.1752 97.0538 95.6043 95.8288 96.8293C94.6038 98.0543 93.1747 98.6668 91.5413 98.6668H38.458Z" fill="url(#paint1_linear_3203_45187)"/>
<defs>
<linearGradient id="paint0_linear_3203_45187" x1="65" y1="0.5" x2="65" y2="130.5" gradientUnits="userSpaceOnUse">
<stop stop-color="#008BAE"/>
<stop offset="0.075" stop-color="#004860" stop-opacity="0.540426"/>
<stop offset="0.235" stop-color="#00151A" stop-opacity="0.1"/>
<stop offset="0.91" stop-color="#004493" stop-opacity="0.6"/>
<stop offset="1" stop-color="#009BFB"/>
</linearGradient>
<linearGradient id="paint1_linear_3203_45187" x1="64.9997" y1="33.3335" x2="64.9997" y2="98.6668" gradientUnits="userSpaceOnUse">
<stop stop-color="#70A1F1"/>
<stop offset="0.5" stop-color="#52B9F4"/>
<stop offset="1" stop-color="#16276F"/>
</linearGradient>
</defs>
</svg>
