<svg width="130" height="132" viewBox="0 0 130 132" fill="none" xmlns="http://www.w3.org/2000/svg">
<rect y="0.5" width="130" height="131" rx="60" fill="url(#paint0_linear_3203_45195)"/>
<path fill-rule="evenodd" clip-rule="evenodd" d="M95 82.4109V74.2647H83.4603C82.4756 74.2647 81.9833 74.2647 81.5686 74.3057C77.5869 74.6995 74.4373 77.8315 74.0412 81.7909C74 82.2033 74 82.6928 74 83.672C74 84.8405 74 85.4247 74.0522 85.8883C74.5595 90.3894 78.5818 93.6685 83.1198 93.2803C83.5873 93.2403 84.1634 93.1258 85.3156 92.8966L86.5594 92.6493C88.1572 92.3315 88.9562 92.1726 89.6303 91.9133C92.3813 90.8552 94.3726 88.4398 94.8765 85.5498C95 84.8416 95 84.0313 95 82.4109ZM53 90.7638V82.6176H41.4603C40.4756 82.6176 39.9833 82.6176 39.5686 82.6587C35.5869 83.0525 32.4373 86.1845 32.0412 90.1439C32 90.5562 32 91.0458 32 92.0249C32 93.1934 32 93.7776 32.0523 94.2413C32.5595 98.7424 36.5818 102.021 41.1198 101.633C41.5872 101.593 42.1638 101.479 43.3156 101.25L44.5592 101.002C46.1572 100.684 46.9562 100.526 47.6303 100.266C50.3813 99.2081 52.3726 96.7927 52.8765 93.9027C53 93.1945 53 92.3843 53 90.7638Z" fill="url(#paint1_linear_3203_45195)"/>
<path d="M53 82.6176V61.7353M53 82.6176V90.7638M53 82.6176H41.4603M95 74.2647V53.3824M95 74.2647V82.4109M95 74.2647H83.4603M95 53.3824L53 61.7353M95 53.3824V52.8779M53 61.7353V54.5485M53 54.5485C53 47.9925 53 44.7144 54.9039 42.405C56.8079 40.0956 60.0403 39.4528 66.5052 38.167M53 54.5485V44.1358C53 42.5644 53 41.7787 53.454 41.2255C53.908 40.6724 54.6786 40.5191 56.2198 40.2126L66.5052 38.167M53 54.5485V90.7638M66.5052 38.167L74.9052 36.4964M74.9052 36.4964C84.2024 34.6474 88.851 33.7229 91.9255 36.2293C95 38.7356 95 43.4497 95 52.8779M74.9052 36.4964L90.2198 33.4507C92.4317 33.0108 93.5376 32.7908 94.2688 33.3909C95 33.991 95 35.1186 95 37.3739V52.8779M95 82.4109C95 84.0313 95 84.8416 94.8765 85.5498C94.3726 88.4398 92.3813 90.8552 89.6303 91.9133C88.9562 92.1726 88.1572 92.3315 86.5594 92.6493M95 82.4109V87.6878C95 89.2591 95 90.0448 94.546 90.598C94.092 91.1512 93.3214 91.3044 91.7802 91.6109L86.5594 92.6493M86.5594 92.6493L85.3156 92.8966M85.3156 92.8966C84.1634 93.1258 83.5873 93.2403 83.1198 93.2803C78.5818 93.6685 74.5595 90.3894 74.0522 85.8883C74 85.4247 74 84.8404 74 83.672M85.3156 92.8966L78.7802 94.1964C76.5683 94.6363 75.4624 94.8562 74.7312 94.2561C74 93.656 74 92.5284 74 90.2732V83.672M74 83.672C74 82.6928 74 82.2033 74.0412 81.7909C74.4373 77.8315 77.5869 74.6995 81.5686 74.3057C81.9833 74.2647 82.4756 74.2647 83.4603 74.2647M74 83.672V78.2647C74 76.3791 74 75.4363 74.5858 74.8505C75.1716 74.2647 76.1144 74.2647 78 74.2647H83.4603M53 90.7638C53 92.3843 53 93.1945 52.8765 93.9027C52.3726 96.7927 50.3813 99.2081 47.6303 100.266C46.9561 100.526 46.1572 100.684 44.5592 101.002M53 90.7638V96.0407C53 97.6121 53 98.3978 52.546 98.9509C52.092 99.5041 51.3214 99.6574 49.7802 99.9639L44.5592 101.002M44.5592 101.002L43.3156 101.25M43.3156 101.25C42.1638 101.479 41.5872 101.593 41.1198 101.633C36.5818 102.021 32.5595 98.7424 32.0523 94.2413C32 93.7776 32 93.1934 32 92.0249M43.3156 101.25L36.7802 102.549C34.5683 102.989 33.4624 103.209 32.7312 102.609C32 102.009 32 100.881 32 98.6261V92.0249M32 92.0249C32 91.0458 32 90.5562 32.0412 90.1439C32.4373 86.1845 35.5869 83.0525 39.5686 82.6587C39.9833 82.6176 40.4756 82.6176 41.4603 82.6176M32 92.0249V86.6176C32 84.732 32 83.7892 32.5858 83.2034C33.1716 82.6176 34.1144 82.6176 36 82.6176H41.4603" stroke="url(#paint2_linear_3203_45195)" stroke-width="4"/>
<defs>
<linearGradient id="paint0_linear_3203_45195" x1="65" y1="0.5" x2="65" y2="131.5" gradientUnits="userSpaceOnUse">
<stop stop-color="#008BAE"/>
<stop offset="0.075" stop-color="#004860" stop-opacity="0.540426"/>
<stop offset="0.235" stop-color="#000A1A" stop-opacity="0.1"/>
<stop offset="0.91" stop-color="#004493" stop-opacity="0.6"/>
<stop offset="1" stop-color="#009BFB"/>
</linearGradient>
<linearGradient id="paint1_linear_3203_45195" x1="63.5" y1="32.5" x2="63.5" y2="103.5" gradientUnits="userSpaceOnUse">
<stop stop-color="#70A1F1"/>
<stop offset="0.5" stop-color="#52B9F4"/>
<stop offset="1" stop-color="#16276F"/>
</linearGradient>
<linearGradient id="paint2_linear_3203_45195" x1="63.5" y1="32.5" x2="63.5" y2="103.5" gradientUnits="userSpaceOnUse">
<stop stop-color="#70A1F1"/>
<stop offset="0.5" stop-color="#52B9F4"/>
<stop offset="1" stop-color="#16276F"/>
</linearGradient>
</defs>
</svg>
