<svg width="31" height="32" viewBox="0 0 31 32" fill="none" xmlns="http://www.w3.org/2000/svg">
<g clip-path="url(#clip0_1754_20734)">
<path d="M21.665 0.204234C21.5991 0.130609 19.2257 0.233297 17.1603 2.47498C15.0949 4.71473 15.4127 7.28386 15.4592 7.34973C15.5057 7.41561 18.4042 7.5183 20.2545 4.91236C22.1048 2.30642 21.7309 0.279797 21.665 0.204234ZM28.0859 22.9369C27.9929 22.7509 23.5812 20.546 23.9919 16.3068C24.4027 12.0675 27.2372 10.9031 27.2818 10.7772C27.3264 10.6512 26.1251 9.24655 24.8522 8.53548C23.9174 8.03464 22.8831 7.74745 21.8239 7.69461C21.6146 7.6888 20.888 7.51055 19.3942 7.91936C18.41 8.18867 16.1915 9.06055 15.5812 9.09542C14.969 9.1303 13.1477 8.08405 11.1889 7.80698C9.93536 7.5648 8.60623 8.0608 7.65492 8.44248C6.70554 8.82224 4.89979 9.90336 3.63654 12.7767C2.37329 15.648 3.03398 20.1973 3.50673 21.6117C3.97948 23.026 4.71767 25.3394 5.97317 27.0289C7.08917 28.9354 8.56942 30.2587 9.18748 30.7082C9.80554 31.1577 11.5493 31.4561 12.7583 30.838C13.7309 30.2413 15.4863 29.8984 16.1799 29.9235C16.8716 29.9487 18.2356 30.2219 19.6325 30.9679C20.7389 31.3495 21.7851 31.1907 22.8333 30.7644C23.8815 30.3362 25.3985 28.7126 27.1694 25.4208C27.8411 23.8902 28.1466 23.0622 28.0859 22.9369Z" fill="white"/>
</g>
<defs>
<clipPath id="clip0_1754_20734">
<rect width="31" height="31" fill="white" transform="translate(0 0.188721)"/>
</clipPath>
</defs>
</svg>
