<svg width="134" height="102" viewBox="0 0 134 102" fill="none" xmlns="http://www.w3.org/2000/svg">
<path d="M46.1573 66.8084L66.6386 98.8292L87.8092 66.8084L66.6384 0.672699L46.1573 66.8084Z" fill="#004275"/>
<path d="M97.047 43.6359L95.7472 61.2219L112.513 55.2194L123.045 24.7738L97.047 43.6359Z" fill="#004275"/>
<path d="M107.681 69.7132L96.889 73.9628L105.232 82.1844L126.278 79.7342L107.681 69.7132Z" fill="#004275"/>
<path d="M28.3798 69.7132L39.1716 73.9628L30.8289 82.1844L9.78205 79.7342L28.3798 69.7132Z" fill="#004275"/>
<path d="M36.953 43.6359L38.2528 61.2219L21.4866 55.2194L10.9554 24.7738L36.953 43.6359Z" fill="#004275"/>
<path d="M54.4824 59.1459L67.0656 78.633L79.9286 59.2377L66.8491 19.0355L54.4824 59.1459Z" fill="#007AC1"/>
<path d="M102.272 43.1052L101.525 53.8406L111.695 50.2159L118.018 31.6504L102.272 43.1052Z" fill="#007AC1"/>
<path d="M109.489 72.6552L102.915 75.277L107.966 80.2688L120.772 78.7164L109.489 72.6552Z" fill="#007AC1"/>
<path d="M26.5711 72.6552L33.1457 75.277L28.0948 80.2688L15.2886 78.7164L26.5711 72.6552Z" fill="#007AC1"/>
<path d="M31.7303 43.1052L32.4773 53.8406L22.307 50.2159L15.9835 31.6504L31.7303 43.1052Z" fill="#007AC1"/>
<path d="M53.0736 78.4423L66.6906 98.5437L80.65 78.4422L66.9969 36.4124L53.0736 78.4423Z" fill="#0B89CD"/>
<path d="M96.8429 50.3498L96.096 61.0853L106.266 57.4605L112.59 38.895L96.8429 50.3498Z" fill="#0B89CD"/>
<path d="M103.648 71.51L97.0731 74.1317L102.124 79.1235L114.93 77.5711L103.648 71.51Z" fill="#0B89CD"/>
<path d="M32.4168 71.51L38.9914 74.1317L33.9405 79.1235L21.1343 77.5711L32.4168 71.51Z" fill="#0B89CD"/>
<path d="M37.1532 50.3498L37.9001 61.0853L27.7299 57.4605L21.4064 38.895L37.1532 50.3498Z" fill="#0B89CD"/>
<path d="M75.666 65.6584L67.0625 78.6321L58.5508 65.4485L66.8447 38.5452L75.666 65.6584Z" fill="#40CCFF"/>
<path d="M108.328 51.4141L101.524 53.8404L102.029 46.5797L112.593 38.895L108.328 51.4141Z" fill="#40CCFF"/>
<path d="M106.299 78.6171L102.918 75.277L107.365 73.504L114.934 77.5709L106.299 78.6171Z" fill="#40CCFF"/>
<path d="M29.7605 78.6173L33.1412 75.2773L28.6947 73.5042L21.1256 77.5712L29.7605 78.6173Z" fill="#40CCFF"/>
<path d="M25.6714 51.4133L32.4764 53.8398L31.9706 46.5797L21.4068 38.895L25.6714 51.4133Z" fill="#40CCFF"/>
</svg>
