<svg width="31" height="32" viewBox="0 0 31 32" fill="none" xmlns="http://www.w3.org/2000/svg">
<path d="M31.0001 16.0331C31.0001 14.7587 30.8946 13.8287 30.6662 12.8643H15.8164V18.6164H24.5329C24.3572 20.0459 23.4083 22.1987 21.2994 23.6453L21.2698 23.8379L25.965 27.4025L26.2903 27.4343C29.2778 24.7304 31.0001 20.752 31.0001 16.0331Z" fill="#00AEFF"/>
<path d="M15.8158 31.1889C20.0862 31.1889 23.6712 29.811 26.2898 27.4344L21.2988 23.6454C19.9632 24.5582 18.1707 25.1954 15.8158 25.1954C11.6333 25.1954 8.08346 22.4916 6.81803 18.7544L6.63254 18.7698L1.75037 22.4726L1.68652 22.6466C4.28741 27.7099 9.62984 31.1889 15.8158 31.1889Z" fill="#35FFA7"/>
<path d="M6.81854 18.7541C6.48464 17.7897 6.29141 16.7563 6.29141 15.6885C6.29141 14.6207 6.48464 13.5874 6.80097 12.623L6.79213 12.4176L1.84878 8.65527L1.68704 8.73067C0.615087 10.8318 0 13.1913 0 15.6885C0 18.1858 0.615087 20.5452 1.68704 22.6463L6.81854 18.7541Z" fill="#FBF305"/>
<path d="M15.8158 6.18205C18.7858 6.18205 20.7891 7.43927 21.9315 8.4899L26.3952 4.21874C23.6537 1.72151 20.0862 0.188721 15.8158 0.188721C9.62983 0.188721 4.28741 3.6676 1.68652 8.73092L6.80046 12.6232C8.08345 8.88598 11.6333 6.18205 15.8158 6.18205Z" fill="#FF286C"/>
</svg>
