<svg width="1920" height="318" viewBox="0 0 1920 318" fill="none" xmlns="http://www.w3.org/2000/svg">
<g clip-path="url(#clip0_3203_45105)">
<path d="M17.2395 159.556C17.2395 169.246 17.3067 178.936 17.2395 188.615C17.1724 195.337 13.7468 199.369 8.42945 199.213C3.11207 199.056 0.0783615 195.482 0.0559725 188.828C-0.0186575 168.903 -0.0186575 148.974 0.0559725 129.041C0.0559725 122.667 3.41433 118.78 8.5638 118.713C13.8812 118.646 17.2171 122.656 17.2507 129.389C17.2843 139.448 17.2507 149.508 17.2395 159.556Z" fill="#EEEEEE" fill-opacity="0.1"/>
<path d="M66.539 159.262C66.539 173.623 66.539 187.984 66.539 202.346C66.6296 204.396 66.5397 206.45 66.2704 208.484C65.4084 213.358 62.3859 216.068 57.4043 216.113C53.1056 216.113 49.7025 212.506 49.3667 207.678C49.1988 205.269 49.2995 202.839 49.2995 200.408C49.2995 171.872 49.2995 143.336 49.2995 114.8C49.2995 113.489 49.2995 112.178 49.2995 110.879C49.6018 105.479 53.1728 101.76 57.9528 101.816C62.4306 101.816 66.136 105.367 66.3599 110.587C66.6734 117.477 66.4942 124.389 66.5054 131.289C66.5353 140.61 66.5465 149.934 66.539 159.262Z" fill="#EEEEEE" fill-opacity="0.1"/>
<path d="M116.435 159.527C116.435 191.267 116.435 223.007 116.435 254.747C116.488 256.241 116.45 257.738 116.323 259.228C115.741 263.989 113.458 267.327 108.319 267.753C103.427 268.167 100.147 265.4 99.1175 259.911C98.7145 257.521 98.5346 255.098 98.5802 252.674C98.5802 190.143 98.5802 127.619 98.5802 65.1029C98.5713 62.3074 98.8223 59.5172 99.3302 56.7683C100.215 52.2874 103.405 50.2038 107.793 50.1366C112.181 50.0694 114.835 52.5563 115.853 56.5555C116.338 58.9277 116.526 61.3511 116.413 63.7698C116.45 95.6964 116.458 127.616 116.435 159.527Z" fill="#EEEEEE" fill-opacity="0.1"/>
<path d="M165.728 159.262C165.728 173.623 165.728 187.984 165.728 202.346C165.818 204.396 165.728 206.45 165.459 208.484C164.597 213.358 161.574 216.068 156.593 216.113C152.294 216.113 148.891 212.506 148.555 207.678C148.387 205.269 148.488 202.839 148.488 200.408C148.488 171.872 148.488 143.336 148.488 114.8C148.488 113.489 148.488 112.178 148.488 110.879C148.79 105.479 152.361 101.76 157.141 101.816C161.619 101.816 165.324 105.367 165.548 110.587C165.862 117.477 165.683 124.389 165.694 131.289C165.724 140.61 165.735 149.934 165.728 159.262Z" fill="#EEEEEE" fill-opacity="0.1"/>
<path d="M215.001 159.556C215.001 169.246 215.068 178.936 215.001 188.615C214.934 195.337 211.509 199.369 206.191 199.213C200.874 199.056 197.84 195.482 197.818 188.828C197.743 168.903 197.743 148.974 197.818 129.041C197.818 122.667 201.176 118.78 206.326 118.713C211.643 118.646 214.979 122.656 215.012 129.389C215.046 139.448 215.012 149.508 215.001 159.556Z" fill="#EEEEEE" fill-opacity="0.1"/>
<path d="M264.301 159.262C264.301 173.623 264.301 187.984 264.301 202.346C264.391 204.396 264.301 206.45 264.032 208.484C263.17 213.358 260.148 216.068 255.166 216.113C250.867 216.113 247.464 212.506 247.128 207.678C246.96 205.269 247.061 202.839 247.061 200.408C247.061 171.872 247.061 143.336 247.061 114.8C247.061 113.489 247.061 112.178 247.061 110.879C247.363 105.479 250.935 101.76 255.715 101.816C260.192 101.816 263.898 105.367 264.122 110.587C264.435 117.477 264.256 124.389 264.267 131.289C264.297 140.61 264.308 149.934 264.301 159.262Z" fill="#EEEEEE" fill-opacity="0.1"/>
<path d="M314.197 159.527C314.197 191.267 314.197 223.007 314.197 254.747C314.249 256.241 314.212 257.738 314.085 259.228C313.503 263.989 311.219 267.327 306.081 267.753C301.189 268.167 297.909 265.4 296.879 259.911C296.476 257.521 296.296 255.098 296.342 252.674C296.342 190.143 296.342 127.619 296.342 65.1029C296.333 62.3074 296.584 59.5172 297.092 56.7683C297.976 52.2874 301.167 50.2038 305.555 50.1366C309.943 50.0694 312.596 52.5563 313.615 56.5555C314.1 58.9277 314.288 61.3511 314.175 63.7698C314.212 95.6964 314.219 127.616 314.197 159.527Z" fill="#EEEEEE" fill-opacity="0.1"/>
<path d="M363.489 159.262C363.489 173.623 363.489 187.984 363.489 202.346C363.58 204.396 363.49 206.45 363.221 208.484C362.359 213.358 359.336 216.068 354.355 216.113C350.056 216.113 346.653 212.506 346.317 207.678C346.149 205.269 346.25 202.839 346.25 200.408C346.25 171.872 346.25 143.336 346.25 114.8C346.25 113.489 346.25 112.178 346.25 110.879C346.552 105.479 350.123 101.76 354.903 101.816C359.381 101.816 363.086 105.367 363.31 110.587C363.624 117.477 363.444 124.389 363.456 131.289C363.485 140.61 363.497 149.934 363.489 159.262Z" fill="#EEEEEE" fill-opacity="0.1"/>
<path d="M413.353 159.625C413.353 207.421 413.353 255.218 413.353 303.014C413.428 305.808 413.203 308.603 412.681 311.349C412.35 313.224 411.358 314.918 409.885 316.125C408.413 317.331 406.557 317.97 404.655 317.924C400.177 318.048 397.255 315.471 396.136 311.203C395.657 309.019 395.458 306.783 395.542 304.549C395.542 207.462 395.542 110.375 395.542 13.2887C395.542 4.56212 398.487 0.137224 404.218 0.00279599C409.95 -0.131632 413.386 4.58454 413.398 13.4456C413.383 62.1756 413.368 110.902 413.353 159.625Z" fill="#EEEEEE" fill-opacity="0.1"/>
<path d="M463.26 159.527C463.26 191.267 463.26 223.007 463.26 254.747C463.312 256.241 463.275 257.738 463.148 259.228C462.566 263.989 460.282 267.327 455.144 267.753C450.252 268.167 446.972 265.4 445.942 259.911C445.539 257.521 445.359 255.098 445.404 252.674C445.404 190.143 445.404 127.619 445.404 65.1029C445.395 62.3074 445.647 59.5172 446.154 56.7683C447.039 52.2874 450.229 50.2038 454.617 50.1366C459.006 50.0694 461.659 52.5563 462.677 56.5555C463.162 58.9277 463.35 61.3511 463.237 63.7698C463.275 95.6964 463.282 127.616 463.26 159.527Z" fill="#EEEEEE" fill-opacity="0.1"/>
<path d="M512.552 159.262C512.552 173.623 512.552 187.984 512.552 202.346C512.642 204.396 512.552 206.45 512.283 208.484C511.421 213.358 508.399 216.068 503.417 216.113C499.118 216.113 495.715 212.506 495.379 207.678C495.211 205.269 495.312 202.839 495.312 200.408C495.312 171.872 495.312 143.336 495.312 114.8C495.312 113.489 495.312 112.178 495.312 110.879C495.614 105.479 499.185 101.76 503.966 101.816C508.443 101.816 512.149 105.367 512.373 110.587C512.686 117.477 512.507 124.389 512.518 131.289C512.548 140.61 512.559 149.934 512.552 159.262Z" fill="#EEEEEE" fill-opacity="0.1"/>
<path d="M562.448 159.527C562.448 191.267 562.448 223.007 562.448 254.747C562.5 256.241 562.463 257.738 562.336 259.228C561.754 263.989 559.47 267.327 554.332 267.753C549.44 268.167 546.16 265.4 545.13 259.911C544.727 257.521 544.547 255.098 544.593 252.674C544.593 190.143 544.593 127.619 544.593 65.1029C544.584 62.3074 544.835 59.5172 545.343 56.7683C546.227 52.2874 549.418 50.2038 553.806 50.1366C558.194 50.0694 560.847 52.5563 561.866 56.5555C562.351 58.9277 562.539 61.3511 562.426 63.7698C562.463 95.6964 562.47 127.616 562.448 159.527Z" fill="#EEEEEE" fill-opacity="0.1"/>
<path d="M611.741 159.262C611.741 173.623 611.741 187.984 611.741 202.346C611.832 204.396 611.742 206.45 611.472 208.484C610.611 213.358 607.588 216.068 602.606 216.113C598.308 216.113 594.905 212.506 594.569 207.678C594.401 205.269 594.502 202.839 594.502 200.408C594.502 171.872 594.502 143.336 594.502 114.8C594.502 113.489 594.502 112.178 594.502 110.879C594.804 105.479 598.375 101.76 603.155 101.816C607.633 101.816 611.338 105.367 611.562 110.587C611.876 117.477 611.696 124.389 611.708 131.289C611.737 140.61 611.749 149.934 611.741 159.262Z" fill="#EEEEEE" fill-opacity="0.1"/>
<path d="M661.015 159.556C661.015 169.246 661.082 178.936 661.015 188.615C660.948 195.337 657.522 199.369 652.205 199.213C646.887 199.056 643.854 195.482 643.831 188.828C643.757 168.903 643.757 148.974 643.831 129.041C643.831 122.667 647.19 118.78 652.339 118.713C657.657 118.646 660.993 122.656 661.026 129.389C661.06 139.448 661.026 149.508 661.015 159.556Z" fill="#EEEEEE" fill-opacity="0.1"/>
<path d="M710.873 159.625C710.873 207.421 710.873 255.218 710.873 303.014C710.948 305.808 710.723 308.603 710.202 311.349C709.87 313.224 708.878 314.918 707.406 316.125C705.933 317.331 704.078 317.97 702.175 317.924C697.697 318.048 694.776 315.471 693.656 311.203C693.178 309.019 692.978 306.783 693.063 304.549C693.063 207.462 693.063 110.375 693.063 13.2887C693.063 4.56212 696.007 0.137224 701.739 0.00279599C707.47 -0.131632 710.907 4.58454 710.918 13.4456C710.903 62.1756 710.888 110.902 710.873 159.625Z" fill="#EEEEEE" fill-opacity="0.1"/>
<path d="M760.78 159.527C760.78 191.267 760.78 223.007 760.78 254.747C760.832 256.241 760.795 257.738 760.668 259.228C760.086 263.989 757.802 267.327 752.664 267.753C747.772 268.167 744.492 265.4 743.462 259.911C743.059 257.521 742.879 255.098 742.925 252.674C742.925 190.143 742.925 127.619 742.925 65.1029C742.916 62.3074 743.167 59.5172 743.675 56.7683C744.559 52.2874 747.75 50.2038 752.138 50.1366C756.526 50.0694 759.179 52.5563 760.198 56.5555C760.683 58.9277 760.871 61.3511 760.758 63.7698C760.795 95.6964 760.802 127.616 760.78 159.527Z" fill="#EEEEEE" fill-opacity="0.1"/>
<path d="M810.073 159.262C810.073 173.623 810.073 187.984 810.073 202.346C810.164 204.396 810.074 206.45 809.805 208.484C808.943 213.358 805.92 216.068 800.938 216.113C796.64 216.113 793.237 212.506 792.901 207.678C792.733 205.269 792.834 202.839 792.834 200.408C792.834 171.872 792.834 143.336 792.834 114.8C792.834 113.489 792.834 112.178 792.834 110.879C793.136 105.479 796.707 101.76 801.487 101.816C805.965 101.816 809.67 105.367 809.894 110.587C810.208 117.477 810.028 124.389 810.04 131.289C810.069 140.61 810.081 149.934 810.073 159.262Z" fill="#EEEEEE" fill-opacity="0.1"/>
<path d="M859.97 159.527C859.97 191.267 859.97 223.007 859.97 254.747C860.022 256.241 859.985 257.738 859.858 259.228C859.276 263.989 856.992 267.327 851.854 267.753C846.962 268.167 843.682 265.4 842.652 259.911C842.249 257.521 842.069 255.098 842.114 252.674C842.114 190.143 842.114 127.619 842.114 65.1029C842.105 62.3074 842.357 59.5172 842.864 56.7683C843.749 52.2874 846.939 50.2038 851.327 50.1366C855.716 50.0694 858.369 52.5563 859.387 56.5555C859.872 58.9277 860.06 61.3511 859.947 63.7698C859.984 95.6964 859.992 127.616 859.97 159.527Z" fill="#EEEEEE" fill-opacity="0.1"/>
<path d="M909.262 159.262C909.262 173.623 909.262 187.984 909.262 202.346C909.352 204.396 909.262 206.45 908.993 208.484C908.131 213.358 905.109 216.068 900.127 216.113C895.828 216.113 892.425 212.506 892.089 207.678C891.921 205.269 892.022 202.839 892.022 200.408C892.022 171.872 892.022 143.336 892.022 114.8C892.022 113.489 892.022 112.178 892.022 110.879C892.324 105.479 895.895 101.76 900.676 101.816C905.153 101.816 908.859 105.367 909.083 110.587C909.396 117.477 909.217 124.389 909.228 131.289C909.258 140.61 909.269 149.934 909.262 159.262Z" fill="#EEEEEE" fill-opacity="0.1"/>
<path d="M958.535 159.556C958.535 169.246 958.603 178.936 958.535 188.615C958.468 195.337 955.043 199.369 949.725 199.213C944.408 199.056 941.374 195.482 941.352 188.828C941.277 168.903 941.277 148.974 941.352 129.041C941.352 122.667 944.71 118.78 949.86 118.713C955.177 118.646 958.513 122.656 958.547 129.389C958.58 139.448 958.547 149.508 958.535 159.556Z" fill="#EEEEEE" fill-opacity="0.1"/>
<path d="M1007.83 159.262C1007.83 173.623 1007.83 187.984 1007.83 202.346C1007.93 204.396 1007.84 206.45 1007.57 208.484C1006.7 213.358 1003.68 216.068 998.7 216.113C994.402 216.113 990.998 212.506 990.663 207.678C990.495 205.269 990.595 202.839 990.595 200.408C990.595 171.872 990.595 143.336 990.595 114.8C990.595 113.489 990.595 112.178 990.595 110.879C990.898 105.479 994.469 101.76 999.249 101.816C1003.73 101.816 1007.43 105.367 1007.66 110.587C1007.97 117.477 1007.79 124.389 1007.8 131.289C1007.83 140.61 1007.84 149.934 1007.83 159.262Z" fill="#EEEEEE" fill-opacity="0.1"/>
<path d="M1057.73 159.527C1057.73 191.267 1057.73 223.007 1057.73 254.747C1057.78 256.241 1057.75 257.738 1057.62 259.228C1057.04 263.989 1054.75 267.327 1049.62 267.753C1044.72 268.167 1041.44 265.4 1040.41 259.911C1040.01 257.521 1039.83 255.098 1039.88 252.674C1039.88 190.143 1039.88 127.619 1039.88 65.1029C1039.87 62.3074 1040.12 59.5172 1040.63 56.7683C1041.51 52.2874 1044.7 50.2038 1049.09 50.1366C1053.48 50.0694 1056.13 52.5563 1057.15 56.5555C1057.63 58.9277 1057.82 61.3511 1057.71 63.7698C1057.75 95.6964 1057.75 127.616 1057.73 159.527Z" fill="#EEEEEE" fill-opacity="0.1"/>
<path d="M1107.02 159.262C1107.02 173.623 1107.02 187.984 1107.02 202.346C1107.11 204.396 1107.02 206.45 1106.75 208.484C1105.89 213.358 1102.87 216.068 1097.89 216.113C1093.59 216.113 1090.19 212.506 1089.85 207.678C1089.68 205.269 1089.78 202.839 1089.78 200.408C1089.78 171.872 1089.78 143.336 1089.78 114.8C1089.78 113.489 1089.78 112.178 1089.78 110.879C1090.09 105.479 1093.66 101.76 1098.44 101.816C1102.92 101.816 1106.62 105.367 1106.84 110.587C1107.16 117.477 1106.98 124.389 1106.99 131.289C1107.02 140.61 1107.03 149.934 1107.02 159.262Z" fill="#EEEEEE" fill-opacity="0.1"/>
<path d="M1156.89 159.625C1156.89 207.421 1156.89 255.218 1156.89 303.014C1156.96 305.808 1156.74 308.603 1156.22 311.349C1155.88 313.224 1154.89 314.918 1153.42 316.125C1151.95 317.331 1150.09 317.97 1148.19 317.924C1143.71 318.048 1140.79 315.471 1139.67 311.203C1139.19 309.019 1138.99 306.783 1139.08 304.549C1139.08 207.462 1139.08 110.375 1139.08 13.2887C1139.08 4.56212 1142.02 0.137224 1147.75 0.00279599C1153.48 -0.131632 1156.92 4.58454 1156.93 13.4456C1156.92 62.1756 1156.9 110.902 1156.89 159.625Z" fill="#EEEEEE" fill-opacity="0.1"/>
<path d="M1206.79 159.527C1206.79 191.267 1206.79 223.007 1206.79 254.747C1206.85 256.241 1206.81 257.738 1206.68 259.228C1206.1 263.989 1203.82 267.327 1198.68 267.753C1193.79 268.167 1190.51 265.4 1189.48 259.911C1189.07 257.521 1188.89 255.098 1188.94 252.674C1188.94 190.143 1188.94 127.619 1188.94 65.1029C1188.93 62.3074 1189.18 59.5172 1189.69 56.7683C1190.57 52.2874 1193.76 50.2038 1198.15 50.1366C1202.54 50.0694 1205.19 52.5563 1206.21 56.5555C1206.7 58.9277 1206.88 61.3511 1206.77 63.7698C1206.81 95.6964 1206.82 127.616 1206.79 159.527Z" fill="#EEEEEE" fill-opacity="0.1"/>
<path d="M1256.09 159.262C1256.09 173.623 1256.09 187.984 1256.09 202.346C1256.18 204.396 1256.09 206.45 1255.82 208.484C1254.96 213.358 1251.93 216.068 1246.95 216.113C1242.65 216.113 1239.25 212.506 1238.91 207.678C1238.75 205.269 1238.85 202.839 1238.85 200.408C1238.85 171.872 1238.85 143.336 1238.85 114.8C1238.85 113.489 1238.85 112.178 1238.85 110.879C1239.15 105.479 1242.72 101.76 1247.5 101.816C1251.98 101.816 1255.68 105.367 1255.91 110.587C1256.22 117.477 1256.04 124.389 1256.05 131.289C1256.08 140.61 1256.09 149.934 1256.09 159.262Z" fill="#EEEEEE" fill-opacity="0.1"/>
<path d="M1305.98 159.527C1305.98 191.267 1305.98 223.007 1305.98 254.747C1306.03 256.241 1306 257.738 1305.87 259.228C1305.29 263.989 1303 267.327 1297.87 267.753C1292.97 268.167 1289.69 265.4 1288.66 259.911C1288.26 257.521 1288.08 255.098 1288.13 252.674C1288.13 190.143 1288.13 127.619 1288.13 65.1029C1288.12 62.3074 1288.37 59.5172 1288.88 56.7683C1289.76 52.2874 1292.95 50.2038 1297.34 50.1366C1301.73 50.0694 1304.38 52.5563 1305.4 56.5555C1305.88 58.9277 1306.07 61.3511 1305.96 63.7698C1306 95.6964 1306 127.616 1305.98 159.527Z" fill="#EEEEEE" fill-opacity="0.1"/>
<path d="M1355.2 159.178C1355.2 174.294 1355.2 189.406 1355.2 204.514C1355.2 211.93 1352.24 215.94 1346.81 216.097C1341.39 216.254 1338.02 212.008 1338 204.895C1338 174.111 1338 143.282 1338 112.554C1338 107.356 1339.67 103.29 1345.17 102.047C1350.67 100.803 1355.14 104.97 1355.19 111.669C1355.28 127.476 1355.2 143.327 1355.2 159.178Z" fill="#EEEEEE" fill-opacity="0.1"/>
<path d="M1404.47 159.556C1404.47 169.246 1404.54 178.936 1404.47 188.615C1404.4 195.337 1400.98 199.369 1395.66 199.213C1390.34 199.056 1387.31 195.482 1387.29 188.828C1387.21 168.903 1387.21 148.974 1387.29 129.041C1387.29 122.667 1390.65 118.78 1395.8 118.713C1401.11 118.646 1404.45 122.656 1404.48 129.389C1404.52 139.448 1404.48 149.508 1404.47 159.556Z" fill="#EEEEEE" fill-opacity="0.1"/>
<path d="M1453.77 159.262C1453.77 173.623 1453.77 187.984 1453.77 202.346C1453.86 204.396 1453.77 206.45 1453.5 208.484C1452.64 213.358 1449.62 216.068 1444.64 216.113C1440.34 216.113 1436.93 212.506 1436.6 207.678C1436.43 205.269 1436.53 202.839 1436.53 200.408C1436.53 171.872 1436.53 143.336 1436.53 114.8C1436.53 113.489 1436.53 112.178 1436.53 110.879C1436.83 105.479 1440.4 101.76 1445.18 101.816C1449.66 101.816 1453.37 105.367 1453.59 110.587C1453.9 117.477 1453.73 124.389 1453.74 131.289C1453.77 140.61 1453.78 149.934 1453.77 159.262Z" fill="#EEEEEE" fill-opacity="0.1"/>
<path d="M1503.67 159.527C1503.67 191.267 1503.67 223.007 1503.67 254.747C1503.72 256.241 1503.68 257.738 1503.55 259.228C1502.97 263.989 1500.69 267.327 1495.55 267.753C1490.66 268.167 1487.38 265.4 1486.35 259.911C1485.95 257.521 1485.77 255.098 1485.81 252.674C1485.81 190.143 1485.81 127.619 1485.81 65.1029C1485.8 62.3074 1486.05 59.5172 1486.56 56.7683C1487.45 52.2874 1490.64 50.2038 1495.02 50.1366C1499.41 50.0694 1502.07 52.5563 1503.08 56.5555C1503.57 58.9277 1503.76 61.3511 1503.64 63.7698C1503.68 95.6964 1503.69 127.616 1503.67 159.527Z" fill="#EEEEEE" fill-opacity="0.1"/>
<path d="M1552.96 159.262C1552.96 173.623 1552.96 187.984 1552.96 202.346C1553.05 204.396 1552.96 206.45 1552.69 208.484C1551.83 213.358 1548.81 216.068 1543.82 216.113C1539.53 216.113 1536.12 212.506 1535.79 207.678C1535.62 205.269 1535.72 202.839 1535.72 200.408C1535.72 171.872 1535.72 143.336 1535.72 114.8C1535.72 113.489 1535.72 112.178 1535.72 110.879C1536.02 105.479 1539.59 101.76 1544.37 101.816C1548.85 101.816 1552.56 105.367 1552.78 110.587C1553.09 117.477 1552.91 124.389 1552.93 131.289C1552.96 140.61 1552.97 149.934 1552.96 159.262Z" fill="#EEEEEE" fill-opacity="0.1"/>
<path d="M1602.82 159.625C1602.82 207.421 1602.82 255.218 1602.82 303.014C1602.9 305.808 1602.67 308.603 1602.15 311.349C1601.82 313.224 1600.83 314.918 1599.36 316.125C1597.88 317.331 1596.03 317.97 1594.12 317.924C1589.65 318.048 1586.72 315.471 1585.61 311.203C1585.13 309.019 1584.93 306.783 1585.01 304.549C1585.01 207.462 1585.01 110.375 1585.01 13.2887C1585.01 4.56212 1587.96 0.137224 1593.69 0.00279599C1599.42 -0.131632 1602.86 4.58454 1602.87 13.4456C1602.85 62.1756 1602.84 110.902 1602.82 159.625Z" fill="#EEEEEE" fill-opacity="0.1"/>
<path d="M1652.73 159.527C1652.73 191.267 1652.73 223.007 1652.73 254.747C1652.78 256.241 1652.74 257.738 1652.62 259.228C1652.04 263.989 1649.75 267.327 1644.61 267.753C1639.72 268.167 1636.44 265.4 1635.41 259.911C1635.01 257.521 1634.83 255.098 1634.87 252.674C1634.87 190.143 1634.87 127.619 1634.87 65.1029C1634.87 62.3074 1635.12 59.5172 1635.62 56.7683C1636.51 52.2874 1639.7 50.2038 1644.09 50.1366C1648.48 50.0694 1651.13 52.5563 1652.15 56.5555C1652.63 58.9277 1652.82 61.3511 1652.71 63.7698C1652.74 95.6964 1652.75 127.616 1652.73 159.527Z" fill="#EEEEEE" fill-opacity="0.1"/>
<path d="M1702.02 159.262C1702.02 173.623 1702.02 187.984 1702.02 202.346C1702.11 204.396 1702.02 206.45 1701.75 208.484C1700.89 213.358 1697.87 216.068 1692.89 216.113C1688.59 216.113 1685.18 212.506 1684.85 207.678C1684.68 205.269 1684.78 202.839 1684.78 200.408C1684.78 171.872 1684.78 143.336 1684.78 114.8C1684.78 113.489 1684.78 112.178 1684.78 110.879C1685.08 105.479 1688.66 101.76 1693.44 101.816C1697.91 101.816 1701.62 105.367 1701.84 110.587C1702.16 117.477 1701.98 124.389 1701.99 131.289C1702.02 140.61 1702.03 149.934 1702.02 159.262Z" fill="#EEEEEE" fill-opacity="0.1"/>
<path d="M1751.92 159.527C1751.92 191.267 1751.92 223.007 1751.92 254.747C1751.97 256.241 1751.93 257.738 1751.81 259.228C1751.22 263.989 1748.94 267.327 1743.8 267.753C1738.91 268.167 1735.63 265.4 1734.6 259.911C1734.2 257.521 1734.02 255.098 1734.06 252.674C1734.06 190.143 1734.06 127.619 1734.06 65.1029C1734.05 62.3074 1734.3 59.5172 1734.81 56.7683C1735.7 52.2874 1738.89 50.2038 1743.28 50.1366C1747.66 50.0694 1750.32 52.5563 1751.34 56.5555C1751.82 58.9277 1752.01 61.3511 1751.9 63.7698C1751.93 95.6964 1751.94 127.616 1751.92 159.527Z" fill="#EEEEEE" fill-opacity="0.1"/>
<path d="M1801.21 159.262C1801.21 173.623 1801.21 187.984 1801.21 202.346C1801.3 204.396 1801.21 206.45 1800.94 208.484C1800.08 213.358 1797.06 216.068 1792.08 216.113C1787.78 216.113 1784.37 212.506 1784.04 207.678C1783.87 205.269 1783.97 202.839 1783.97 200.408C1783.97 171.872 1783.97 143.336 1783.97 114.8C1783.97 113.489 1783.97 112.178 1783.97 110.879C1784.27 105.479 1787.84 101.76 1792.62 101.816C1797.1 101.816 1800.81 105.367 1801.03 110.587C1801.35 117.477 1801.17 124.389 1801.18 131.289C1801.21 140.61 1801.22 149.934 1801.21 159.262Z" fill="#EEEEEE" fill-opacity="0.1"/>
<path d="M1850.48 159.556C1850.48 169.246 1850.55 178.936 1850.48 188.615C1850.42 195.337 1846.99 199.369 1841.67 199.213C1836.36 199.056 1833.32 195.482 1833.3 188.828C1833.23 168.903 1833.23 148.974 1833.3 129.041C1833.3 122.667 1836.66 118.78 1841.81 118.713C1847.13 118.646 1850.46 122.656 1850.49 129.389C1850.53 139.448 1850.49 149.508 1850.48 159.556Z" fill="#EEEEEE" fill-opacity="0.1"/>
<path d="M1899.78 159.262C1899.78 173.623 1899.78 187.984 1899.78 202.346C1899.87 204.396 1899.78 206.45 1899.51 208.484C1898.65 213.358 1895.63 216.068 1890.65 216.113C1886.35 216.113 1882.95 212.506 1882.61 207.678C1882.44 205.269 1882.54 202.839 1882.54 200.408C1882.54 171.872 1882.54 143.336 1882.54 114.8C1882.54 113.489 1882.54 112.178 1882.54 110.879C1882.85 105.479 1886.42 101.76 1891.2 101.816C1895.67 101.816 1899.38 105.367 1899.6 110.587C1899.92 117.477 1899.74 124.389 1899.75 131.289C1899.78 140.61 1899.79 149.934 1899.78 159.262Z" fill="#EEEEEE" fill-opacity="0.1"/>
</g>
<defs>
<clipPath id="clip0_3203_45105">
<rect width="1920" height="318" fill="white"/>
</clipPath>
</defs>
</svg>
