<svg width="24" height="24" viewBox="0 0 24 24" fill="none" xmlns="http://www.w3.org/2000/svg">
<path d="M20 15.5C20.7179 15.5 21.2998 16.0819 21.2998 16.7998V19.1992C21.2998 21.2412 19.647 22.8992 17.6025 22.8994H6.39453C4.34683 22.8994 2.7002 21.2385 2.7002 19.1992V16.7998C2.7002 16.082 3.2821 15.5001 4 15.5C4.71799 15.5 5.2998 16.0819 5.2998 16.7998V19.1992C5.2998 19.8107 5.79089 20.2998 6.39453 20.2998H17.6025C18.2085 20.2996 18.7002 19.8078 18.7002 19.1992V16.7998C18.7002 16.082 19.2822 15.5001 20 15.5ZM12 1.17969C12.6737 1.17969 13.2206 1.72575 13.2207 2.39941V12.2539L15.9375 9.53711C16.4139 9.06061 17.1867 9.06061 17.6631 9.53711C18.1395 10.0136 18.1396 10.7863 17.6631 11.2627L12.8633 16.0625C12.3869 16.5389 11.6141 16.5388 11.1377 16.0625L6.33789 11.2627C5.86145 10.7862 5.86144 10.0136 6.33789 9.53711C6.81429 9.06082 7.58607 9.06087 8.0625 9.53711L10.7803 12.2539V2.39941C10.7804 1.72584 11.3264 1.17984 12 1.17969Z" fill="#02192E" stroke="#02192E"/>
</svg>
