<svg width="146" height="146" viewBox="0 0 146 146" fill="none" xmlns="http://www.w3.org/2000/svg">
<path d="M72.9799 96.5731C72.3847 96.5731 71.8338 96.4718 71.3268 96.2689C70.8197 96.066 70.313 95.7114 69.8059 95.2043L46.8413 72.2397C45.9288 71.2999 45.4978 70.2027 45.5486 68.9487C45.5994 67.6955 46.0612 66.6127 46.9341 65.7002C47.8862 64.7877 48.9958 64.3314 50.2632 64.3314C51.5307 64.3314 52.6205 64.7877 53.533 65.7002L68.4372 80.7564V28.896C68.4372 27.6033 68.8773 26.5194 69.7573 25.6445C70.6363 24.7705 71.7261 24.3335 73.0271 24.3335C74.3268 24.3335 75.4078 24.7705 76.2695 25.6445C77.1312 26.5194 77.5622 27.6033 77.5622 28.896V80.7564L92.6184 65.7002C93.5106 64.7877 94.5703 64.3567 95.797 64.4075C97.0237 64.4582 98.1132 64.9397 99.0652 65.8522C99.9382 66.7647 100.375 67.8546 100.375 69.122C100.375 70.3895 99.9184 71.4793 99.0059 72.3918L76.1934 95.2043C75.6864 95.7114 75.173 96.066 74.6528 96.2689C74.1318 96.4718 73.5739 96.5731 72.9799 96.5731ZM33.458 121.667C31.0247 121.667 28.8955 120.754 27.0705 118.929C25.2455 117.104 24.333 114.975 24.333 112.542V95.3564C24.333 94.0637 24.773 92.98 25.6531 92.1049C26.5321 91.231 27.6221 90.7939 28.9229 90.7939C30.2227 90.7939 31.3036 91.231 32.1653 92.1049C33.027 92.98 33.458 94.0637 33.458 95.3564V112.542H112.541V95.3564C112.541 94.0637 112.981 92.98 113.861 92.1049C114.74 91.231 115.83 90.7939 117.131 90.7939C118.431 90.7939 119.512 91.231 120.374 92.1049C121.235 92.98 121.666 94.0637 121.666 95.3564V112.542C121.666 114.975 120.754 117.104 118.929 118.929C117.104 120.754 114.975 121.667 112.541 121.667H33.458Z" fill="url(#paint0_linear_3203_45068)"/>
<defs>
<linearGradient id="paint0_linear_3203_45068" x1="72.9997" y1="24.3335" x2="72.9997" y2="121.667" gradientUnits="userSpaceOnUse">
<stop stop-color="#70A1F1"/>
<stop offset="0.5" stop-color="#52B9F4"/>
<stop offset="1" stop-color="#16276F"/>
</linearGradient>
</defs>
</svg>
