<svg width="204" height="158" viewBox="0 0 204 158" fill="none" xmlns="http://www.w3.org/2000/svg">
<path d="M37.581 101.907C35.5053 102.379 31.491 102.744 29.3537 103.269C29.3152 103.277 29.2767 103.286 29.2383 103.295C28.7337 103.408 28.3096 103.526 27.7423 103.702C26.4413 104.144 24.6821 104.605 21.3958 106.327C20.4873 106.922 19.6509 107.548 18.831 108.25C9.92542 115.531 8.18394 130.173 14.7522 140.338C14.8395 140.461 14.9299 140.587 15.0215 140.711C16.7681 143.172 19.5673 145.592 21.4645 146.929C23.8718 148.676 25.7554 149.532 27.3332 150.18C29.7398 150.986 32.2426 151.439 34.909 151.572C42.6749 151.949 50.6703 150.578 58.4647 148.401C61.7625 147.478 65.0468 146.402 68.2809 145.231C71.2934 144.14 74.2434 142.981 77.2011 141.761C78.8859 140.983 80.5014 140.197 81.972 139.473C84.0422 138.454 85.9052 137.524 87.4507 136.82C91.1875 135.117 95.5472 133.407 98.8016 132.155C99.3334 131.95 99.8358 131.757 100.3 131.578C102.823 130.449 105.372 129.321 107.922 128.225C108.107 128.189 108.293 128.154 108.484 128.118C110.877 127.671 113.559 126.588 117.906 125.004C119.779 124.326 122.007 123.543 124.624 122.743C126.306 122.231 127.259 122.144 128.012 122.08C128.235 122.061 128.444 122.044 128.653 122.019C129.368 121.932 130.053 121.607 130.865 121.232C131.923 120.745 133.231 120.161 135.06 119.946C140.909 119.284 143.373 118.56 145.299 117.955C145.86 117.784 146.37 117.635 146.898 117.529C148.607 117.18 151.151 117.168 153.025 117.355C154.529 117.486 157.519 117.349 159.826 117.332C160.699 117.321 161.871 117.434 163.245 117.626C164.67 117.826 166.301 118.11 168.066 118.422C172.507 119.234 174.852 120.08 176.658 120.706C177.177 120.893 177.661 121.076 178.143 121.265C179.678 121.864 181.525 122.718 183.323 123.687C185.519 124.866 187.591 126.186 189.176 127.24C193.08 130.297 196.48 133.734 199.561 137.432C201.228 139.431 202.244 141.371 202.783 143.186C203.295 144.972 203.15 146.292 202.414 146.815C201.676 147.344 200.404 147.05 198.88 146.148C197.329 145.215 195.788 143.925 194.166 142.195C191.049 138.884 187.72 135.939 184.037 133.376C179.628 130.308 174.806 127.923 169.727 126.356C166.186 125.258 162.497 124.567 158.741 124.253C158.352 124.221 157.969 124.192 157.582 124.168C154.403 124.219 151.25 124.562 149.007 124.832C147.167 125.051 145.818 125.109 144.639 125.175C143.828 125.221 143.109 125.273 142.405 125.404C142.025 125.474 141.506 125.58 140.88 125.715C138.303 126.256 133.972 127.382 129.987 128.344C128.197 128.769 126.12 129.225 124.122 129.705C121.245 130.397 118.619 131.108 117.333 131.669C115.101 132.643 112.459 133.559 110.124 134.397C107.904 135.193 105.951 135.918 104.924 136.511C103.696 137.22 102.561 137.619 100.87 138.219C99.6972 138.636 98.2597 139.149 96.3381 139.933C94.1221 140.837 92.5066 141.393 91.1381 141.861C89.2133 142.519 87.7576 143.017 85.7333 144.095C83.4953 145.289 81.0748 146.447 79.1102 147.157C78.2179 147.48 77.201 147.894 76.1396 148.318C74.7335 148.88 73.2694 149.451 71.8768 149.879C70.7237 150.234 69.7324 150.405 68.8582 150.55C68.5855 150.595 68.3241 150.639 68.0726 150.684C67.1817 150.999 66.2825 151.31 65.3716 151.619C65.2334 151.695 65.0885 151.776 64.9371 151.86C64.1775 152.282 63.2411 152.795 62.0366 153.27C60.1146 154.025 58.3177 154.435 56.4611 154.812C54.9994 155.109 53.4489 155.399 51.7268 155.798C50.5657 156.068 49.1818 156.412 47.8375 156.711C45.8482 157.158 43.8201 157.517 42.401 157.588C41.8698 157.615 41.4064 157.544 40.9508 157.47C40.9488 157.469 40.9468 157.469 40.9447 157.468C40.9138 157.463 40.8828 157.458 40.8519 157.453C38.8558 157.656 36.8047 157.776 34.7916 157.792C33.2539 157.801 31.7852 157.724 30.3022 157.555C29.9809 157.538 29.6579 157.516 29.3395 157.49C27.7807 157.364 26.3277 157.128 25.2921 157.012C24.2021 156.905 21.5343 156.145 18.9313 154.847C17.1913 153.994 15.5208 152.949 14.1727 152.006C13.3887 151.459 12.7857 150.777 12.1955 150.049C11.6466 149.371 11.1208 148.665 10.467 147.963C10.1379 147.61 9.7665 147.242 9.38081 146.839C9.04134 146.483 8.69022 146.1 8.35013 145.677C8.03492 145.285 7.43111 144.326 6.77482 143.052C6.3692 142.267 5.94031 141.355 5.53223 140.389C4.27972 137.918 3.3353 135.288 2.72026 132.579C2.50703 132.031 2.29325 131.556 2.06579 131.185C1.90266 130.918 1.72586 130.695 1.54688 130.461C1.3037 130.143 1.05483 129.808 0.84083 129.324C0.673398 128.945 0.5841 128.482 0.61582 128.166C0.630446 128.019 0.670009 127.904 0.706074 127.801C0.747427 127.682 0.784644 127.576 0.777158 127.45C0.771704 127.359 0.733168 127.266 0.687029 127.151C0.613523 126.968 0.518981 126.727 0.508847 126.357C0.470198 124.977 0.556336 123.404 0.750488 121.876C0.961862 120.177 1.30882 118.531 1.60989 117.228C1.94047 115.763 2.70445 113.745 3.69698 111.839C4.3838 110.506 5.16432 109.238 5.87063 108.159C6.55194 107.115 7.23934 106.007 7.98411 104.96C8.85406 103.73 9.81454 102.581 10.7918 101.795C10.9863 101.639 11.3055 101.526 11.7063 101.394C11.9905 101.3 12.3173 101.196 12.6711 101.063C13.8639 100.042 15.0795 99.1528 16.3908 98.3288C16.4267 98.2837 16.4641 98.2376 16.5015 98.191C16.502 98.1902 16.5026 98.1893 16.5031 98.1885C17.373 97.1292 18.5499 95.7374 20.9966 95.0577C21.5864 94.9016 22.0045 94.9152 22.3783 94.9301C22.7462 94.9452 23.0728 94.9625 23.4976 94.8384C23.9803 94.6978 24.5142 94.4189 25.1165 94.1276C25.9132 93.7334 26.8294 93.3173 27.851 93.2231C27.9205 93.2167 27.9954 93.2101 28.0734 93.2031C28.8128 93.1349 29.9278 93.0593 30.9754 93.1963C34.0784 92.7624 37.0993 92.658 40.1919 92.7866C45.1856 93.0002 50.2356 93.8788 54.889 95.0774C57.3214 95.6974 59.2647 96.6393 60.7245 97.7432C62.1591 98.8432 62.8268 99.9576 62.5629 100.804C62.3021 101.655 61.1363 102.186 59.4146 102.394C57.6661 102.596 55.6645 102.503 53.3871 102.116C49.879 101.528 46.3238 101.162 42.8125 101.105C42.6264 101.113 42.4406 101.121 42.2568 101.129C40.8786 101.189 39.7173 101.425 38.429 101.707C38.1432 101.772 37.8606 101.839 37.581 101.907Z" fill="url(#paint0_linear_3203_45077)"/>
<rect x="105.563" y="0.673828" width="12" height="90" rx="2" transform="rotate(21.9069 105.563 0.673828)" fill="url(#paint1_linear_3203_45077)"/>
<path d="M73.4213 102.072C72.18 103.242 70.138 102.421 70.0522 100.717L69.5959 91.6631C69.5225 90.2051 70.9852 89.1622 72.3396 89.7069L79.3935 92.5435C80.7479 93.0882 81.0813 94.8534 80.0189 95.8546L73.4213 102.072Z" fill="url(#paint2_linear_3203_45077)"/>
<defs>
<linearGradient id="paint0_linear_3203_45077" x1="42.8477" y1="130.755" x2="202.156" y2="130.755" gradientUnits="userSpaceOnUse">
<stop stop-color="#00E6FF"/>
<stop offset="0.255107" stop-color="#52B9F4"/>
<stop offset="1" stop-color="#16276F"/>
</linearGradient>
<linearGradient id="paint1_linear_3203_45077" x1="111.563" y1="0.673828" x2="111.563" y2="90.6738" gradientUnits="userSpaceOnUse">
<stop stop-color="#70A1F1"/>
<stop offset="0.5" stop-color="#52B9F4"/>
</linearGradient>
<linearGradient id="paint2_linear_3203_45077" x1="70.27" y1="105.042" x2="77.732" y2="86.4862" gradientUnits="userSpaceOnUse">
<stop stop-color="#16276F"/>
<stop offset="0.5" stop-color="#52B9F4"/>
<stop offset="1" stop-color="#70A1F1"/>
</linearGradient>
</defs>
</svg>
