<svg width="31" height="32" viewBox="0 0 31 32" fill="none" xmlns="http://www.w3.org/2000/svg">
<g clip-path="url(#clip0_1754_21061)">
<path d="M30.6774 16.0162C30.6774 7.63412 23.8824 0.839111 15.5003 0.839111C7.11825 0.839111 0.323242 7.63412 0.323242 16.0162C0.323242 23.5915 5.87328 29.8703 13.1289 31.0089V20.4033H9.27536V16.0162H13.1289V12.6725C13.1289 8.86872 15.3947 6.76767 18.8615 6.76767C20.522 6.76767 22.2589 7.06407 22.2589 7.06407V10.7991H20.3451C18.4597 10.7991 17.8718 11.969 17.8718 13.1692V16.0162H22.081L21.4081 20.4033H17.8718V31.0089C25.1274 29.8703 30.6774 23.5915 30.6774 16.0162Z" fill="#1877F2"/>
<path d="M21.4081 20.4032L22.081 16.0161H17.8718V13.1691C17.8718 11.9689 18.4597 10.799 20.3451 10.799H22.2589V7.06398C22.2589 7.06398 20.522 6.76758 18.8615 6.76758C15.3948 6.76758 13.1289 8.86864 13.1289 12.6724V16.0161H9.27539V20.4032H13.1289V31.0088C13.9016 31.1301 14.6936 31.1932 15.5004 31.1932C16.3071 31.1932 17.0991 31.1301 17.8718 31.0088V20.4032H21.4081Z" fill="white"/>
</g>
<defs>
<clipPath id="clip0_1754_21061">
<rect width="31" height="31" fill="white" transform="translate(0 0.516113)"/>
</clipPath>
</defs>
</svg>
