<svg width="134" height="101" viewBox="0 0 134 101" fill="none" xmlns="http://www.w3.org/2000/svg">
<path d="M46.1573 66.1358L66.6386 98.1566L87.8092 66.1358L66.6384 9.13631e-05L46.1573 66.1358Z" fill="#004275"/>
<path d="M97.047 42.9633L95.7472 60.5493L112.513 54.5468L123.045 24.1012L97.047 42.9633Z" fill="#004275"/>
<path d="M107.681 69.0406L96.889 73.2902L105.232 81.5118L126.278 79.0616L107.681 69.0406Z" fill="#004275"/>
<path d="M28.3798 69.0406L39.1716 73.2902L30.8289 81.5118L9.78205 79.0616L28.3798 69.0406Z" fill="#004275"/>
<path d="M36.953 42.9633L38.2528 60.5493L21.4866 54.5468L10.9554 24.1012L36.953 42.9633Z" fill="#004275"/>
<path d="M54.4824 58.4733L67.0656 77.9604L79.9286 58.5651L66.8491 18.3629L54.4824 58.4733Z" fill="#007AC1"/>
<path d="M102.272 42.4326L101.525 53.168L111.695 49.5433L118.018 30.9778L102.272 42.4326Z" fill="#007AC1"/>
<path d="M109.489 71.9826L102.915 74.6044L107.966 79.5962L120.772 78.0438L109.489 71.9826Z" fill="#007AC1"/>
<path d="M26.5711 71.9826L33.1457 74.6044L28.0948 79.5962L15.2886 78.0438L26.5711 71.9826Z" fill="#007AC1"/>
<path d="M31.7303 42.4326L32.4773 53.168L22.307 49.5433L15.9835 30.9778L31.7303 42.4326Z" fill="#007AC1"/>
<path d="M53.0736 77.7697L66.6906 97.8711L80.65 77.7696L66.9969 35.7398L53.0736 77.7697Z" fill="#0B89CD"/>
<path d="M96.8429 49.6772L96.096 60.4127L106.266 56.7879L112.59 38.2224L96.8429 49.6772Z" fill="#0B89CD"/>
<path d="M103.648 70.8373L97.0731 73.4591L102.124 78.4509L114.93 76.8985L103.648 70.8373Z" fill="#0B89CD"/>
<path d="M32.4168 70.8373L38.9914 73.4591L33.9405 78.4509L21.1343 76.8985L32.4168 70.8373Z" fill="#0B89CD"/>
<path d="M37.1532 49.6772L37.9001 60.4127L27.7299 56.7879L21.4064 38.2224L37.1532 49.6772Z" fill="#0B89CD"/>
<path d="M75.667 64.9849L67.0625 77.9595L58.5508 64.7778L66.8457 37.8726L75.667 64.9849Z" fill="#40CCFF"/>
<path d="M108.328 50.7415L101.524 53.1678L102.029 45.9071L112.593 38.2224L108.328 50.7415Z" fill="#40CCFF"/>
<path d="M106.299 77.9445L102.918 74.6044L107.365 72.8313L114.934 76.8983L106.299 77.9445Z" fill="#40CCFF"/>
<path d="M29.7605 77.9447L33.1412 74.6047L28.6947 72.8316L21.1256 76.8986L29.7605 77.9447Z" fill="#40CCFF"/>
<path d="M25.6714 50.7407L32.4764 53.1672L31.9706 45.9071L21.4068 38.2224L25.6714 50.7407Z" fill="#40CCFF"/>
</svg>
