<svg width="120" height="120" viewBox="0 0 120 120" fill="none" xmlns="http://www.w3.org/2000/svg">
<rect width="120" height="120" rx="60" fill="url(#paint0_linear_3203_45286)"/>
<rect width="7.52444" height="56.5344" rx="2" transform="matrix(0.928506 -0.371317 0.369842 0.929095 20.9531 41.0259)" fill="url(#paint1_linear_3203_45286)"/>
<path d="M50.2212 101.614C50.1772 102.466 49.1554 102.876 48.5357 102.29L43.7117 97.728C43.1815 97.2267 43.3496 96.3443 44.027 96.0728L49.1935 94.0019C49.8709 93.7303 50.6013 94.2526 50.5637 94.9815L50.2212 101.614Z" fill="url(#paint2_linear_3203_45286)"/>
<g clip-path="url(#clip0_3203_45286)">
<path d="M47.1748 40.3741C47.1748 41.5637 47.6474 42.7046 48.4886 43.5458C49.3297 44.387 50.4706 44.8595 51.6602 44.8595C52.8498 44.8595 53.9907 44.387 54.8319 43.5458C55.6731 42.7046 56.1457 41.5637 56.1457 40.3741C56.1457 39.1845 55.6731 38.0436 54.8319 37.2024C53.9907 36.3612 52.8498 35.8887 51.6602 35.8887C50.4706 35.8887 49.3297 36.3612 48.4886 37.2024C47.6474 38.0436 47.1748 39.1845 47.1748 40.3741Z" fill="#5EAFF3"/>
<path d="M60.6318 33.6461C60.6318 34.8357 61.1044 35.9766 61.9456 36.8178C62.7868 37.6589 63.9277 38.1315 65.1173 38.1315C66.3069 38.1315 67.4478 37.6589 68.2889 36.8178C69.1301 35.9766 69.6027 34.8357 69.6027 33.6461C69.6027 32.4565 69.1301 31.3156 68.2889 30.4744C67.4478 29.6332 66.3069 29.1606 65.1173 29.1606C63.9277 29.1606 62.7868 29.6332 61.9456 30.4744C61.1044 31.3156 60.6318 32.4565 60.6318 33.6461Z" fill="#5EAFF3"/>
<path d="M74.0879 40.3741C74.0879 41.5637 74.5605 42.7046 75.4016 43.5458C76.2428 44.387 77.3837 44.8595 78.5733 44.8595C79.7629 44.8595 80.9038 44.387 81.745 43.5458C82.5862 42.7046 83.0587 41.5637 83.0587 40.3741C83.0587 39.1845 82.5862 38.0436 81.745 37.2024C80.9038 36.3612 79.7629 35.8887 78.5733 35.8887C77.3837 35.8887 76.2428 36.3612 75.4016 37.2024C74.5605 38.0436 74.0879 39.1845 74.0879 40.3741Z" fill="#5EAFF3"/>
<path d="M76.3301 53.8302C76.3301 55.0198 76.8026 56.1607 77.6438 57.0018C78.485 57.843 79.6259 58.3156 80.8155 58.3156C82.0051 58.3156 83.146 57.843 83.9872 57.0018C84.8284 56.1607 85.3009 55.0198 85.3009 53.8302C85.3009 52.6405 84.8284 51.4997 83.9872 50.6585C83.146 49.8173 82.0051 49.3447 80.8155 49.3447C79.6259 49.3447 78.485 49.8173 77.6438 50.6585C76.8026 51.4997 76.3301 52.6405 76.3301 53.8302Z" fill="#5EAFF3"/>
<path d="M67.3594 65.044C67.3594 66.2336 67.8319 67.3745 68.6731 68.2157C69.5143 69.0569 70.6552 69.5295 71.8448 69.5295C73.0344 69.5295 74.1753 69.0569 75.0165 68.2157C75.8577 67.3745 76.3302 66.2336 76.3302 65.044C76.3302 63.8544 75.8577 62.7135 75.0165 61.8723C74.1753 61.0312 73.0344 60.5586 71.8448 60.5586C70.6552 60.5586 69.5143 61.0312 68.6731 61.8723C67.8319 62.7135 67.3594 63.8544 67.3594 65.044Z" fill="#5EAFF3"/>
<path d="M66.3278 17.9467C62.1038 17.7837 57.8904 18.4752 53.9401 19.98C49.9898 21.4847 46.3841 23.7716 43.339 26.7036C40.2939 29.6356 37.8723 33.1522 36.2192 37.0427C34.5661 40.9333 33.7156 45.1175 33.7188 49.3447C33.7186 51.0073 34.102 52.6475 34.8391 54.1377C35.5762 55.628 36.647 56.9282 37.9685 57.9371C39.2899 58.9461 40.8262 59.6367 42.458 59.9551C44.0898 60.2736 45.7731 60.2114 47.3769 59.7733L49.8887 59.0781C50.888 58.8053 51.9367 58.767 52.9532 58.966C53.9697 59.165 54.9265 59.596 55.7491 60.2254C56.5717 60.8548 57.2378 61.6657 57.6957 62.5948C58.1535 63.5239 58.3907 64.5462 58.3886 65.582V74.0146C58.3886 75.799 59.0975 77.5103 60.3592 78.7721C61.621 80.0339 63.3323 80.7427 65.1168 80.7427C69.3439 80.7459 73.5282 79.8954 77.4187 78.2423C81.3093 76.5892 84.8259 74.1676 87.7579 71.1225C90.6899 68.0774 92.9768 64.4717 94.4815 60.5214C95.9862 56.5711 96.6778 52.3577 96.5148 48.1336C96.1894 40.2318 92.9045 32.7413 87.3123 27.1491C81.7202 21.557 74.2296 18.2721 66.3278 17.9467ZM84.5162 67.9817C82.0121 70.6035 79.0012 72.689 75.6663 74.1116C72.3315 75.5342 68.7423 76.2642 65.1168 76.2573C64.522 76.2573 63.9515 76.021 63.5309 75.6004C63.1103 75.1798 62.874 74.6094 62.874 74.0146V65.582C62.874 62.6079 61.6926 59.7557 59.5897 57.6528C57.4867 55.5498 54.6345 54.3684 51.6605 54.3684C50.6527 54.3702 49.6497 54.5059 48.6777 54.7721L46.1658 55.4673C45.2277 55.7188 44.2442 55.7507 43.2917 55.5608C42.3391 55.3708 41.4432 54.964 40.6732 54.3719C39.9033 53.7798 39.2801 53.0183 38.8519 52.1465C38.4237 51.2747 38.2021 50.316 38.2042 49.3447C38.2014 45.72 38.9309 42.1321 40.3488 38.7963C41.7667 35.4604 43.8439 32.4454 46.4556 29.9321C49.0674 27.4187 52.16 25.4589 55.5478 24.1701C58.9357 22.8813 62.5489 22.2902 66.1708 22.4321C72.9151 22.7834 79.2902 25.6205 84.0656 30.3959C88.8409 35.1713 91.6781 41.5464 92.0293 48.2906C92.1837 51.9148 91.597 55.5323 90.3052 58.9219C89.0134 62.3116 87.0435 65.402 84.5162 68.0041V67.9817Z" fill="url(#paint3_linear_3203_45286)"/>
</g>
<defs>
<linearGradient id="paint0_linear_3203_45286" x1="60" y1="0" x2="60" y2="120" gradientUnits="userSpaceOnUse">
<stop stop-color="#008BAE"/>
<stop offset="0.075" stop-color="#004860" stop-opacity="0.540426"/>
<stop offset="0.235" stop-color="#00151A" stop-opacity="0.1"/>
<stop offset="0.91" stop-color="#004493" stop-opacity="0.6"/>
<stop offset="1" stop-color="#009BFB"/>
</linearGradient>
<linearGradient id="paint1_linear_3203_45286" x1="3.76222" y1="0" x2="3.76222" y2="56.5344" gradientUnits="userSpaceOnUse">
<stop stop-color="#70A1F1"/>
<stop offset="0.5" stop-color="#52B9F4"/>
</linearGradient>
<linearGradient id="paint2_linear_3203_45286" x1="50.1095" y1="103.778" x2="45.4389" y2="92.1258" gradientUnits="userSpaceOnUse">
<stop stop-color="#16276F"/>
<stop offset="0.5" stop-color="#52B9F4"/>
<stop offset="1" stop-color="#70A1F1"/>
</linearGradient>
<linearGradient id="paint3_linear_3203_45286" x1="65.1284" y1="17.9233" x2="65.1284" y2="80.7427" gradientUnits="userSpaceOnUse">
<stop stop-color="#70A1F1"/>
<stop offset="0.5" stop-color="#52B9F4"/>
<stop offset="1" stop-color="#16276F"/>
</linearGradient>
<clipPath id="clip0_3203_45286">
<rect width="71.7669" height="71.7669" fill="white" transform="translate(29.2334 13.4614)"/>
</clipPath>
</defs>
</svg>
