<svg width="1920" height="1160" viewBox="0 0 1920 1160" fill="none" xmlns="http://www.w3.org/2000/svg">
<g opacity="0.6" filter="url(#filter0_f_3203_45221)">
<ellipse cx="236.249" cy="74.5681" rx="236.249" ry="74.5681" transform="matrix(-0.975691 -0.219149 -0.394051 -0.919089 1863.63 128.451)" fill="#7D52F4"/>
<ellipse cx="382.484" cy="74.5681" rx="382.484" ry="74.5681" transform="matrix(-0.975691 -0.219149 -0.394051 -0.919089 2045.16 369.998)" fill="#D8B7E6"/>
<ellipse cx="236.249" cy="74.5681" rx="236.249" ry="74.5681" transform="matrix(-0.975691 -0.219149 -0.394051 -0.919089 2149.92 127.927)" fill="#8273BE"/>
</g>
<g opacity="0.6" filter="url(#filter1_f_3203_45221)">
<ellipse cx="183.767" cy="58.003" rx="183.767" ry="58.003" transform="matrix(-0.893747 0.448572 -0.887155 -0.461471 127.522 77.3193)" fill="#7D52F4"/>
<ellipse cx="297.516" cy="58.003" rx="297.516" ry="58.003" transform="matrix(-0.893747 0.448572 -0.887155 -0.461471 355.804 133.239)" fill="#D8B7E6"/>
<ellipse cx="183.767" cy="58.003" rx="183.767" ry="58.003" transform="matrix(-0.893747 0.448572 -0.887155 -0.461471 299.562 -64.0742)" fill="#8273BE"/>
<ellipse cx="156.913" cy="64.3183" rx="156.913" ry="64.3183" transform="matrix(-0.94021 0.423078 -0.5717 -0.576449 111.357 -59.2236)" fill="#812FF3" fill-opacity="0.26"/>
</g>
<g opacity="0.6" filter="url(#filter2_f_3203_45221)">
<ellipse cx="183.767" cy="58.003" rx="183.767" ry="58.003" transform="matrix(-0.893747 0.448572 -0.887155 -0.461471 1703.52 1062.33)" fill="#7D52F4"/>
<ellipse cx="297.516" cy="58.003" rx="297.516" ry="58.003" transform="matrix(-0.893747 0.448572 -0.887155 -0.461471 1931.8 1118.25)" fill="#D8B7E6"/>
<ellipse cx="183.767" cy="58.003" rx="183.767" ry="58.003" transform="matrix(-0.893747 0.448572 -0.887155 -0.461471 1875.56 920.932)" fill="#8273BE"/>
<ellipse cx="156.913" cy="64.3183" rx="156.913" ry="64.3183" transform="matrix(-0.94021 0.423078 -0.5717 -0.576449 1687.35 925.782)" fill="#812FF3" fill-opacity="0.26"/>
</g>
<g opacity="0.6" filter="url(#filter3_f_3203_45221)">
<ellipse cx="293.326" cy="118.366" rx="293.326" ry="118.366" transform="matrix(0.767111 0.641514 -0.0704349 0.997516 1652.5 802.526)" fill="#52F4E7"/>
<ellipse cx="275.344" cy="86.9078" rx="275.344" ry="86.9078" transform="matrix(0.767111 0.641514 -0.0704349 0.997516 1745 558.234)" fill="#2FF3CF"/>
<ellipse cx="275.344" cy="86.9078" rx="275.344" ry="86.9078" transform="matrix(0.767111 0.641514 -0.0704349 0.997516 1383.17 673.39)" fill="#7470F1" fill-opacity="0.03"/>
<ellipse cx="271.013" cy="82.8447" rx="271.013" ry="82.8447" transform="matrix(0.762207 0.694284 -0.301422 0.753842 1482.23 949.242)" fill="#2F3FF3" fill-opacity="0.26"/>
</g>
<g opacity="0.6" filter="url(#filter4_f_3203_45221)">
<ellipse cx="350.293" cy="110.564" rx="350.293" ry="110.564" transform="matrix(-0.996521 0.0833388 -0.651388 -0.758745 445.885 966.125)" fill="#5C31F4"/>
<ellipse cx="350.293" cy="110.564" rx="350.293" ry="110.564" transform="matrix(-0.996521 0.0833388 -0.651388 -0.758745 626.37 1266.03)" fill="#2F46F3"/>
<ellipse cx="350.293" cy="110.564" rx="350.293" ry="110.564" transform="matrix(-0.996521 0.0833388 -0.651388 -0.758745 850.619 838.169)" fill="#8A70F1" fill-opacity="0.03"/>
<ellipse cx="243.555" cy="105.395" rx="243.555" ry="105.395" transform="matrix(-1.03014 0.0423715 -0.315807 -0.74793 514.235 713.106)" fill="#2F3FF3" fill-opacity="0.26"/>
</g>
<g opacity="0.6" filter="url(#filter5_f_3203_45221)">
<ellipse cx="233.478" cy="73.6935" rx="233.478" ry="73.6935" transform="matrix(-0.996521 0.0833388 -0.651388 -0.758745 663.759 -36.6792)" fill="#5C31F4"/>
<ellipse cx="233.478" cy="73.6935" rx="233.478" ry="73.6935" transform="matrix(-0.996521 0.0833388 -0.651388 -0.758745 784.057 163.21)" fill="#2F46F3"/>
<ellipse cx="190.852" cy="101.871" rx="190.852" ry="101.871" transform="matrix(-0.996521 0.0833388 -0.651388 -0.758745 1240 889)" fill="#2F46F3"/>
<ellipse cx="190.852" cy="101.871" rx="190.852" ry="101.871" transform="matrix(-0.996521 0.0833388 -0.651388 -0.758745 1575.09 1016.59)" fill="#B52FF3"/>
</g>
<defs>
<filter id="filter0_f_3203_45221" x="868.226" y="-627.485" width="1654.2" height="1353.4" filterUnits="userSpaceOnUse" color-interpolation-filters="sRGB">
<feFlood flood-opacity="0" result="BackgroundImageFix"/>
<feBlend mode="normal" in="SourceGraphic" in2="BackgroundImageFix" result="shape"/>
<feGaussianBlur stdDeviation="200" result="effect1_foregroundBlur_3203_45221"/>
</filter>
<filter id="filter1_f_3203_45221" x="-660.336" y="-505.965" width="1369.67" height="1282.04" filterUnits="userSpaceOnUse" color-interpolation-filters="sRGB">
<feFlood flood-opacity="0" result="BackgroundImageFix"/>
<feBlend mode="normal" in="SourceGraphic" in2="BackgroundImageFix" result="shape"/>
<feGaussianBlur stdDeviation="200" result="effect1_foregroundBlur_3203_45221"/>
</filter>
<filter id="filter2_f_3203_45221" x="915.659" y="479.041" width="1369.67" height="1282.04" filterUnits="userSpaceOnUse" color-interpolation-filters="sRGB">
<feFlood flood-opacity="0" result="BackgroundImageFix"/>
<feBlend mode="normal" in="SourceGraphic" in2="BackgroundImageFix" result="shape"/>
<feGaussianBlur stdDeviation="200" result="effect1_foregroundBlur_3203_45221"/>
</filter>
<filter id="filter3_f_3203_45221" x="976.959" y="224.754" width="1584.45" height="1573.41" filterUnits="userSpaceOnUse" color-interpolation-filters="sRGB">
<feFlood flood-opacity="0" result="BackgroundImageFix"/>
<feBlend mode="normal" in="SourceGraphic" in2="BackgroundImageFix" result="shape"/>
<feGaussianBlur stdDeviation="200" result="effect1_foregroundBlur_3203_45221"/>
</filter>
<filter id="filter4_f_3203_45221" x="-731.707" y="165.088" width="1917.73" height="1535.09" filterUnits="userSpaceOnUse" color-interpolation-filters="sRGB">
<feFlood flood-opacity="0" result="BackgroundImageFix"/>
<feBlend mode="normal" in="SourceGraphic" in2="BackgroundImageFix" result="shape"/>
<feGaussianBlur stdDeviation="200" result="effect1_foregroundBlur_3203_45221"/>
</filter>
<filter id="filter5_f_3203_45221" x="-254.524" y="-703.98" width="2174.56" height="2138.11" filterUnits="userSpaceOnUse" color-interpolation-filters="sRGB">
<feFlood flood-opacity="0" result="BackgroundImageFix"/>
<feBlend mode="normal" in="SourceGraphic" in2="BackgroundImageFix" result="shape"/>
<feGaussianBlur stdDeviation="200" result="effect1_foregroundBlur_3203_45221"/>
</filter>
</defs>
</svg>
