<svg width="24" height="24" viewBox="0 0 24 24" fill="none" xmlns="http://www.w3.org/2000/svg">
<path d="M15.5 18L12 20L9 18.5L5.5 16L3.5 12.5L2.5 8L5 4H9L12 5.5L14 4.5L17 3.5L20 5.5L21.5 8.5L20.5 13L15.5 18Z" fill="url(#paint0_linear_6068_935)" fill-opacity="0.8"/>
<path d="M12 5.90719L11.4934 6.39479C11.6259 6.5325 11.8088 6.61032 12 6.61032C12.1912 6.61032 12.3741 6.5325 12.5066 6.39479L12 5.90719ZM9.58692 17.9271C8.16599 16.807 6.61225 15.7131 5.37965 14.3251C4.17114 12.9643 3.32812 11.3764 3.32812 9.31637H1.92188C1.92188 11.8153 2.96297 13.7216 4.32817 15.2589C5.66927 16.769 7.37885 17.9771 8.71633 19.0315L9.58692 17.9271ZM3.32812 9.31637C3.32812 7.29993 4.46753 5.60896 6.02284 4.89803C7.53382 4.20735 9.56406 4.39026 11.4934 6.39479L12.5066 5.4196C10.2173 3.04115 7.56008 2.64914 5.43821 3.61905C3.36067 4.56871 1.92188 6.77381 1.92188 9.31637H3.32812ZM8.71633 19.0315C9.19655 19.41 9.71207 19.8137 10.2345 20.1191C10.7568 20.4242 11.3527 20.6722 12 20.6722V19.2659C11.7098 19.2659 11.3682 19.1528 10.944 18.9049C10.52 18.6571 10.0801 18.3159 9.58692 17.9271L8.71633 19.0315ZM15.2837 19.0315C16.6211 17.9771 18.3307 16.769 19.6718 15.2589C21.037 13.7216 22.0781 11.8153 22.0781 9.31637H20.6719C20.6719 11.3764 19.8289 12.9643 18.6203 14.3251C17.3877 15.7131 15.834 16.807 14.4131 17.9271L15.2837 19.0315ZM22.0781 9.31637C22.0781 6.77381 20.6393 4.56871 18.5618 3.61905C16.4399 2.64914 13.7827 3.04115 11.4934 5.4196L12.5066 6.39479C14.4359 4.39026 16.4662 4.20735 17.9771 4.89803C19.5324 5.60896 20.6719 7.29993 20.6719 9.31637H22.0781ZM14.4131 17.9271C13.9199 18.3159 13.48 18.6571 13.056 18.9049C12.6318 19.1528 12.2902 19.2659 12 19.2659V20.6722C12.6473 20.6722 13.2432 20.4242 13.7655 20.1191C14.288 19.8137 14.8034 19.41 15.2837 19.0315L14.4131 17.9271Z" fill="#F0F0F0"/>
<defs>
<linearGradient id="paint0_linear_6068_935" x1="12" y1="3.5" x2="12" y2="20" gradientUnits="userSpaceOnUse">
<stop stop-color="#205579"/>
<stop offset="1" stop-color="#205579" stop-opacity="0.31"/>
</linearGradient>
</defs>
</svg>
