<svg width="31" height="32" viewBox="0 0 31 32" fill="none" xmlns="http://www.w3.org/2000/svg">
<g clip-path="url(#clip0_1754_21075)">
<path d="M21.665 0.531627C21.5991 0.458002 19.2257 0.560689 17.1603 2.80238C15.0949 5.04213 15.4127 7.61125 15.4592 7.67713C15.5057 7.743 18.4042 7.84569 20.2545 5.23975C22.1048 2.63381 21.7309 0.607189 21.665 0.531627ZM28.0859 23.2643C27.9929 23.0783 23.5812 20.8734 23.9919 16.6342C24.4027 12.3949 27.2372 11.2305 27.2818 11.1046C27.3264 10.9786 26.1251 9.57394 24.8522 8.86288C23.9174 8.36204 22.8831 8.07484 21.8239 8.022C21.6146 8.01619 20.888 7.83794 19.3942 8.24675C18.41 8.51606 16.1915 9.38794 15.5812 9.42282C14.969 9.45769 13.1477 8.41144 11.1889 8.13438C9.93536 7.89219 8.60623 8.38819 7.65492 8.76988C6.70554 9.14963 4.89979 10.2308 3.63654 13.1041C2.37329 15.9754 3.03398 20.5247 3.50673 21.9391C3.97948 23.3534 4.71767 25.6668 5.97317 27.3563C7.08917 29.2628 8.56942 30.5861 9.18748 31.0356C9.80554 31.4851 11.5493 31.7835 12.7583 31.1654C13.7309 30.5687 15.4863 30.2258 16.1799 30.2509C16.8716 30.2761 18.2356 30.5493 19.6325 31.2952C20.7389 31.6769 21.7851 31.5181 22.8333 31.0918C23.8815 30.6636 25.3985 29.04 27.1694 25.7482C27.8411 24.2176 28.1466 23.3896 28.0859 23.2643Z" fill="white"/>
</g>
<defs>
<clipPath id="clip0_1754_21075">
<rect width="31" height="31" fill="white" transform="translate(0 0.516113)"/>
</clipPath>
</defs>
</svg>
