<svg width="1920" height="1246" viewBox="0 0 1920 1246" fill="none" xmlns="http://www.w3.org/2000/svg">
<g opacity="0.6" filter="url(#filter0_f_1754_20979)">
</g>
<g opacity="0.5" filter="url(#filter1_f_1754_20979)">
<circle cx="2046.56" cy="1260.57" r="155.268" transform="rotate(172.492 2046.56 1260.57)" fill="#04142D"/>
<circle cx="1786.11" cy="1138.29" r="155.268" transform="rotate(172.492 1786.11 1138.29)" fill="#52B9F4"/>
<ellipse cx="1508.5" cy="-7.52978" rx="205.207" ry="206.572" transform="rotate(172.492 1508.5 -7.52978)" fill="#2FF3B5" fill-opacity="0.6"/>
<ellipse cx="249.343" cy="425.221" rx="243.457" ry="245.076" transform="rotate(172.492 249.343 425.221)" fill="#2F8AF3" fill-opacity="0.43"/>
<ellipse cx="1604.98" cy="892.63" rx="243.457" ry="245.076" transform="rotate(172.492 1604.98 892.63)" fill="#2F87F3" fill-opacity="0.43"/>
<circle cx="973.581" cy="313.298" r="312.842" transform="rotate(172.492 973.581 313.298)" fill="#2F6FF3" fill-opacity="0.73"/>
<circle cx="1720.77" cy="336.002" r="312.842" transform="rotate(172.492 1720.77 336.002)" fill="#2FAEF3" fill-opacity="0.45"/>
<circle cx="893.182" cy="989.403" r="215.342" transform="rotate(172.492 893.182 989.403)" fill="#2F8EF3" fill-opacity="0.62"/>
<circle cx="337.445" cy="1353.27" r="215.342" transform="rotate(172.492 337.445 1353.27)" fill="#2F77F3" fill-opacity="0.62"/>
<circle opacity="0.2" cx="1988.83" cy="1027.97" r="155.268" transform="rotate(172.492 1988.83 1027.97)" fill="#70F1D5"/>
</g>
<g opacity="0.6" filter="url(#filter2_f_1754_20979)">
<circle cx="39.0245" cy="901.415" r="155.268" transform="rotate(172.492 39.0245 901.415)" fill="#70DEF1" fill-opacity="0.58"/>
</g>
<g opacity="0.5" filter="url(#filter3_f_1754_20979)">
<circle cx="257.648" cy="-34.5659" r="143" fill="#52B9F4"/>
<circle cx="59.2764" cy="41.7725" r="143" fill="#70F1D5"/>
</g>
<g opacity="0.1" filter="url(#filter4_f_1754_20979)">
<circle cx="2085.41" cy="958.002" r="143" transform="rotate(165 2085.41 958.002)" fill="#04142D"/>
<circle opacity="0.5" cx="1832.9" cy="877.618" r="143" transform="rotate(165 1832.9 877.618)" fill="#52B9F4"/>
<circle cx="1922.47" cy="1070.67" r="143" transform="rotate(165 1922.47 1070.67)" fill="#2F6FF3"/>
<circle cx="2004.75" cy="752.538" r="143" transform="rotate(165 2004.75 752.538)" fill="#70F1D5"/>
</g>
<defs>
<filter id="filter0_f_1754_20979" x="-682.592" y="1033.87" width="1338.58" height="1773.07" filterUnits="userSpaceOnUse" color-interpolation-filters="sRGB">
<feFlood flood-opacity="0" result="BackgroundImageFix"/>
<feBlend mode="normal" in="SourceGraphic" in2="BackgroundImageFix" result="shape"/>
<feGaussianBlur stdDeviation="200" result="effect1_foregroundBlur_1754_20979"/>
</filter>
<filter id="filter1_f_1754_20979" x="-532.98" y="-614.102" width="3134.83" height="3162.38" filterUnits="userSpaceOnUse" color-interpolation-filters="sRGB">
<feFlood flood-opacity="0" result="BackgroundImageFix"/>
<feBlend mode="normal" in="SourceGraphic" in2="BackgroundImageFix" result="shape"/>
<feGaussianBlur stdDeviation="200" result="effect1_foregroundBlur_1754_20979"/>
</filter>
<filter id="filter2_f_1754_20979" x="-854.182" y="346.13" width="3215.47" height="2554.9" filterUnits="userSpaceOnUse" color-interpolation-filters="sRGB">
<feFlood flood-opacity="0" result="BackgroundImageFix"/>
<feBlend mode="normal" in="SourceGraphic" in2="BackgroundImageFix" result="shape"/>
<feGaussianBlur stdDeviation="200" result="effect1_foregroundBlur_1754_20979"/>
</filter>
<filter id="filter3_f_1754_20979" x="-508.453" y="-787.228" width="1309.1" height="1372" filterUnits="userSpaceOnUse" color-interpolation-filters="sRGB">
<feFlood flood-opacity="0" result="BackgroundImageFix"/>
<feBlend mode="normal" in="SourceGraphic" in2="BackgroundImageFix" result="shape"/>
<feGaussianBlur stdDeviation="200" result="effect1_foregroundBlur_1754_20979"/>
</filter>
<filter id="filter4_f_1754_20979" x="1289.86" y="209.502" width="1338.58" height="1404.21" filterUnits="userSpaceOnUse" color-interpolation-filters="sRGB">
<feFlood flood-opacity="0" result="BackgroundImageFix"/>
<feBlend mode="normal" in="SourceGraphic" in2="BackgroundImageFix" result="shape"/>
<feGaussianBlur stdDeviation="200" result="effect1_foregroundBlur_1754_20979"/>
</filter>
</defs>
</svg>
