<svg width="31" height="32" viewBox="0 0 31 32" fill="none" xmlns="http://www.w3.org/2000/svg">
<path d="M31.0001 16.3605C31.0001 15.0861 30.8946 14.1561 30.6662 13.1917H15.8164V18.9438H24.5329C24.3572 20.3733 23.4083 22.5261 21.2994 23.9727L21.2698 24.1653L25.965 27.7299L26.2903 27.7617C29.2778 25.0578 31.0001 21.0794 31.0001 16.3605Z" fill="#00AEFF"/>
<path d="M15.8158 31.5163C20.0862 31.5163 23.6712 30.1384 26.2898 27.7618L21.2988 23.9728C19.9632 24.8856 18.1707 25.5228 15.8158 25.5228C11.6333 25.5228 8.08346 22.819 6.81803 19.0818L6.63254 19.0972L1.75037 22.8L1.68652 22.974C4.28741 28.0373 9.62984 31.5163 15.8158 31.5163Z" fill="#35FFA7"/>
<path d="M6.81854 19.0815C6.48464 18.1171 6.29141 17.0837 6.29141 16.0159C6.29141 14.9481 6.48464 13.9148 6.80097 12.9504L6.79213 12.745L1.84878 8.98267L1.68704 9.05806C0.615087 11.1592 0 13.5187 0 16.0159C0 18.5132 0.615087 20.8726 1.68704 22.9737L6.81854 19.0815Z" fill="#FBF305"/>
<path d="M15.8158 6.50944C18.7858 6.50944 20.7891 7.76666 21.9315 8.8173L26.3952 4.54614C23.6537 2.04891 20.0862 0.516113 15.8158 0.516113C9.62983 0.516113 4.28741 3.99499 1.68652 9.05832L6.80046 12.9506C8.08345 9.21338 11.6333 6.50944 15.8158 6.50944Z" fill="#FF286C"/>
</svg>
