<svg width="47" height="47" viewBox="0 0 47 47" fill="none" xmlns="http://www.w3.org/2000/svg">
<circle cx="24.2121" cy="24.2121" r="18.9394" stroke="#93D3E7" stroke-width="2"/>
<path d="M24.2122 31.3333L23.5805 32.1085L24.2122 32.6232L24.8439 32.1085L24.2122 31.3333ZM25.2122 15.6666C25.2122 15.1143 24.7645 14.6666 24.2122 14.6666C23.6599 14.6666 23.2122 15.1143 23.2122 15.6666L25.2122 15.6666ZM15.6667 24.3703L15.0351 25.1455L23.5805 32.1085L24.2122 31.3333L24.8439 30.558L16.2984 23.5951L15.6667 24.3703ZM24.2122 31.3333L24.8439 32.1085L33.3893 25.1455L32.7577 24.3703L32.126 23.5951L23.5805 30.558L24.2122 31.3333ZM24.2122 31.3333L25.2122 31.3333L25.2122 15.6666L24.2122 15.6666L23.2122 15.6666L23.2122 31.3333L24.2122 31.3333Z" fill="#93D3E7"/>
</svg>
