<svg width="1607" height="246" viewBox="0 0 1607 246" fill="none" xmlns="http://www.w3.org/2000/svg">
<rect x="1607" y="246" width="1607" height="246" transform="rotate(-180 1607 246)" fill="black" fill-opacity="0.2"/>
<g opacity="0.3">
<path d="M45.6666 34.5739L40.9999 37.2406L36.9999 35.2406L32.3333 31.9073L29.6666 27.2406L28.3333 21.2406L31.6666 15.9073H36.9999L40.9999 17.9073L43.6666 16.5739L47.6666 15.2406L51.6666 17.9073L53.6666 21.9073L52.3333 27.9073L45.6666 34.5739Z" fill="#0099FF" fill-opacity="0.4"/>
<path d="M41 18.45L40.3245 19.1002C40.5013 19.2838 40.7451 19.3875 41 19.3875C41.2549 19.3875 41.4987 19.2838 41.6755 19.1002L41 18.45ZM37.7826 34.4766C35.888 32.9831 33.8163 31.5246 32.1729 29.6739C30.5615 27.8596 29.4375 25.7423 29.4375 22.9956H27.5625C27.5625 26.3276 28.9506 28.8693 30.7709 30.9189C32.559 32.9324 34.8385 34.5433 36.6218 35.9491L37.7826 34.4766ZM29.4375 22.9956C29.4375 20.307 30.9567 18.0524 33.0304 17.1045C35.0451 16.1836 37.7521 16.4275 40.3245 19.1002L41.6755 17.7999C38.6231 14.6286 35.0801 14.106 32.2509 15.3992C29.4809 16.6654 27.5625 19.6055 27.5625 22.9956H29.4375ZM36.6218 35.9491C37.2621 36.4538 37.9494 36.9921 38.646 37.3992C39.3424 37.8061 40.137 38.1367 41 38.1367V36.2617C40.613 36.2617 40.1576 36.1108 39.592 35.7803C39.0266 35.4499 38.4401 34.9949 37.7826 34.4766L36.6218 35.9491ZM45.3783 35.9491C47.1615 34.5433 49.441 32.9324 51.2291 30.9189C53.0494 28.8693 54.4375 26.3276 54.4375 22.9956H52.5625C52.5625 25.7423 51.4385 27.8596 49.8271 29.6739C48.1836 31.5246 46.112 32.9831 44.2175 34.4766L45.3783 35.9491ZM54.4375 22.9956C54.4375 19.6055 52.5191 16.6654 49.749 15.3992C46.9199 14.106 43.3769 14.6286 40.3245 17.7999L41.6755 19.1002C44.2479 16.4275 46.9549 16.1836 48.9695 17.1045C51.0432 18.0524 52.5625 20.307 52.5625 22.9956H54.4375ZM44.2175 34.4766C43.5599 34.9949 42.9734 35.4499 42.408 35.7803C41.8424 36.1108 41.387 36.2617 41 36.2617V38.1367C41.863 38.1367 42.6576 37.8061 43.354 37.3992C44.0506 36.9921 44.7379 36.4538 45.3783 35.9491L44.2175 34.4766Z" fill="#84C8FF" fill-opacity="0.6"/>
<path d="M168.667 34.5739L164 37.2406L160 35.2406L155.333 31.9073L152.667 27.2406L151.333 21.2406L154.667 15.9073H160L164 17.9073L166.667 16.5739L170.667 15.2406L174.667 17.9073L176.667 21.9073L175.333 27.9073L168.667 34.5739Z" fill="#0099FF" fill-opacity="0.4"/>
<path d="M164 18.45L163.325 19.1002C163.501 19.2838 163.745 19.3875 164 19.3875C164.255 19.3875 164.499 19.2838 164.675 19.1002L164 18.45ZM160.783 34.4766C158.888 32.9831 156.816 31.5246 155.173 29.6739C153.562 27.8596 152.438 25.7423 152.438 22.9956H150.562C150.562 26.3276 151.951 28.8693 153.771 30.9189C155.559 32.9324 157.838 34.5433 159.622 35.9491L160.783 34.4766ZM152.438 22.9956C152.438 20.307 153.957 18.0524 156.03 17.1045C158.045 16.1836 160.752 16.4275 163.325 19.1002L164.675 17.7999C161.623 14.6286 158.08 14.106 155.251 15.3992C152.481 16.6654 150.562 19.6055 150.562 22.9956H152.438ZM159.622 35.9491C160.262 36.4538 160.949 36.9921 161.646 37.3992C162.342 37.8061 163.137 38.1367 164 38.1367V36.2617C163.613 36.2617 163.158 36.1108 162.592 35.7803C162.027 35.4499 161.44 34.9949 160.783 34.4766L159.622 35.9491ZM168.378 35.9491C170.162 34.5433 172.441 32.9324 174.229 30.9189C176.049 28.8693 177.438 26.3276 177.438 22.9956H175.562C175.562 25.7423 174.439 27.8596 172.827 29.6739C171.184 31.5246 169.112 32.9831 167.218 34.4766L168.378 35.9491ZM177.438 22.9956C177.438 19.6055 175.519 16.6654 172.749 15.3992C169.92 14.106 166.377 14.6286 163.325 17.7999L164.675 19.1002C167.248 16.4275 169.955 16.1836 171.969 17.1045C174.043 18.0524 175.562 20.307 175.562 22.9956H177.438ZM167.218 34.4766C166.56 34.9949 165.973 35.4499 165.408 35.7803C164.842 36.1108 164.387 36.2617 164 36.2617V38.1367C164.863 38.1367 165.658 37.8061 166.354 37.3992C167.051 36.9921 167.738 36.4538 168.378 35.9491L167.218 34.4766Z" fill="#84C8FF" fill-opacity="0.6"/>
<path d="M291.667 34.5739L287 37.2406L283 35.2406L278.333 31.9073L275.667 27.2406L274.333 21.2406L277.667 15.9073H283L287 17.9073L289.667 16.5739L293.667 15.2406L297.667 17.9073L299.667 21.9073L298.333 27.9073L291.667 34.5739Z" fill="#0099FF" fill-opacity="0.4"/>
<path d="M287 18.45L286.325 19.1002C286.501 19.2838 286.745 19.3875 287 19.3875C287.255 19.3875 287.499 19.2838 287.675 19.1002L287 18.45ZM283.783 34.4766C281.888 32.9831 279.816 31.5246 278.173 29.6739C276.562 27.8596 275.438 25.7423 275.438 22.9956H273.562C273.562 26.3276 274.951 28.8693 276.771 30.9189C278.559 32.9324 280.838 34.5433 282.622 35.9491L283.783 34.4766ZM275.438 22.9956C275.438 20.307 276.957 18.0524 279.03 17.1045C281.045 16.1836 283.752 16.4275 286.325 19.1002L287.675 17.7999C284.623 14.6286 281.08 14.106 278.251 15.3992C275.481 16.6654 273.562 19.6055 273.562 22.9956H275.438ZM282.622 35.9491C283.262 36.4538 283.949 36.9921 284.646 37.3992C285.342 37.8061 286.137 38.1367 287 38.1367V36.2617C286.613 36.2617 286.158 36.1108 285.592 35.7803C285.027 35.4499 284.44 34.9949 283.783 34.4766L282.622 35.9491ZM291.378 35.9491C293.162 34.5433 295.441 32.9324 297.229 30.9189C299.049 28.8693 300.438 26.3276 300.438 22.9956H298.562C298.562 25.7423 297.439 27.8596 295.827 29.6739C294.184 31.5246 292.112 32.9831 290.218 34.4766L291.378 35.9491ZM300.438 22.9956C300.438 19.6055 298.519 16.6654 295.749 15.3992C292.92 14.106 289.377 14.6286 286.325 17.7999L287.675 19.1002C290.248 16.4275 292.955 16.1836 294.969 17.1045C297.043 18.0524 298.562 20.307 298.562 22.9956H300.438ZM290.218 34.4766C289.56 34.9949 288.973 35.4499 288.408 35.7803C287.842 36.1108 287.387 36.2617 287 36.2617V38.1367C287.863 38.1367 288.658 37.8061 289.354 37.3992C290.051 36.9921 290.738 36.4538 291.378 35.9491L290.218 34.4766Z" fill="#84C8FF" fill-opacity="0.6"/>
<path d="M414.667 34.5739L410 37.2406L406 35.2406L401.333 31.9073L398.667 27.2406L397.333 21.2406L400.667 15.9073H406L410 17.9073L412.667 16.5739L416.667 15.2406L420.667 17.9073L422.667 21.9073L421.333 27.9073L414.667 34.5739Z" fill="#0099FF" fill-opacity="0.4"/>
<path d="M410 18.45L409.325 19.1002C409.501 19.2838 409.745 19.3875 410 19.3875C410.255 19.3875 410.499 19.2838 410.675 19.1002L410 18.45ZM406.783 34.4766C404.888 32.9831 402.816 31.5246 401.173 29.6739C399.562 27.8596 398.438 25.7423 398.438 22.9956H396.562C396.562 26.3276 397.951 28.8693 399.771 30.9189C401.559 32.9324 403.838 34.5433 405.622 35.9491L406.783 34.4766ZM398.438 22.9956C398.438 20.307 399.957 18.0524 402.03 17.1045C404.045 16.1836 406.752 16.4275 409.325 19.1002L410.675 17.7999C407.623 14.6286 404.08 14.106 401.251 15.3992C398.481 16.6654 396.562 19.6055 396.562 22.9956H398.438ZM405.622 35.9491C406.262 36.4538 406.949 36.9921 407.646 37.3992C408.342 37.8061 409.137 38.1367 410 38.1367V36.2617C409.613 36.2617 409.158 36.1108 408.592 35.7803C408.027 35.4499 407.44 34.9949 406.783 34.4766L405.622 35.9491ZM414.378 35.9491C416.162 34.5433 418.441 32.9324 420.229 30.9189C422.049 28.8693 423.438 26.3276 423.438 22.9956H421.562C421.562 25.7423 420.439 27.8596 418.827 29.6739C417.184 31.5246 415.112 32.9831 413.218 34.4766L414.378 35.9491ZM423.438 22.9956C423.438 19.6055 421.519 16.6654 418.749 15.3992C415.92 14.106 412.377 14.6286 409.325 17.7999L410.675 19.1002C413.248 16.4275 415.955 16.1836 417.969 17.1045C420.043 18.0524 421.562 20.307 421.562 22.9956H423.438ZM413.218 34.4766C412.56 34.9949 411.973 35.4499 411.408 35.7803C410.842 36.1108 410.387 36.2617 410 36.2617V38.1367C410.863 38.1367 411.658 37.8061 412.354 37.3992C413.051 36.9921 413.738 36.4538 414.378 35.9491L413.218 34.4766Z" fill="#84C8FF" fill-opacity="0.6"/>
<path d="M537.667 34.5739L533 37.2406L529 35.2406L524.333 31.9073L521.667 27.2406L520.333 21.2406L523.667 15.9073H529L533 17.9073L535.667 16.5739L539.667 15.2406L543.667 17.9073L545.667 21.9073L544.333 27.9073L537.667 34.5739Z" fill="#0099FF" fill-opacity="0.4"/>
<path d="M533 18.45L532.325 19.1002C532.501 19.2838 532.745 19.3875 533 19.3875C533.255 19.3875 533.499 19.2838 533.675 19.1002L533 18.45ZM529.783 34.4766C527.888 32.9831 525.816 31.5246 524.173 29.6739C522.562 27.8596 521.438 25.7423 521.438 22.9956H519.562C519.562 26.3276 520.951 28.8693 522.771 30.9189C524.559 32.9324 526.838 34.5433 528.622 35.9491L529.783 34.4766ZM521.438 22.9956C521.438 20.307 522.957 18.0524 525.03 17.1045C527.045 16.1836 529.752 16.4275 532.325 19.1002L533.675 17.7999C530.623 14.6286 527.08 14.106 524.251 15.3992C521.481 16.6654 519.562 19.6055 519.562 22.9956H521.438ZM528.622 35.9491C529.262 36.4538 529.949 36.9921 530.646 37.3992C531.342 37.8061 532.137 38.1367 533 38.1367V36.2617C532.613 36.2617 532.158 36.1108 531.592 35.7803C531.027 35.4499 530.44 34.9949 529.783 34.4766L528.622 35.9491ZM537.378 35.9491C539.162 34.5433 541.441 32.9324 543.229 30.9189C545.049 28.8693 546.438 26.3276 546.438 22.9956H544.562C544.562 25.7423 543.439 27.8596 541.827 29.6739C540.184 31.5246 538.112 32.9831 536.218 34.4766L537.378 35.9491ZM546.438 22.9956C546.438 19.6055 544.519 16.6654 541.749 15.3992C538.92 14.106 535.377 14.6286 532.325 17.7999L533.675 19.1002C536.248 16.4275 538.955 16.1836 540.969 17.1045C543.043 18.0524 544.562 20.307 544.562 22.9956H546.438ZM536.218 34.4766C535.56 34.9949 534.973 35.4499 534.408 35.7803C533.842 36.1108 533.387 36.2617 533 36.2617V38.1367C533.863 38.1367 534.658 37.8061 535.354 37.3992C536.051 36.9921 536.738 36.4538 537.378 35.9491L536.218 34.4766Z" fill="#84C8FF" fill-opacity="0.6"/>
<path d="M660.667 34.5739L656 37.2406L652 35.2406L647.333 31.9073L644.667 27.2406L643.333 21.2406L646.667 15.9073H652L656 17.9073L658.667 16.5739L662.667 15.2406L666.667 17.9073L668.667 21.9073L667.333 27.9073L660.667 34.5739Z" fill="#0099FF" fill-opacity="0.4"/>
<path d="M656 18.45L655.325 19.1002C655.501 19.2838 655.745 19.3875 656 19.3875C656.255 19.3875 656.499 19.2838 656.675 19.1002L656 18.45ZM652.783 34.4766C650.888 32.9831 648.816 31.5246 647.173 29.6739C645.562 27.8596 644.438 25.7423 644.438 22.9956H642.562C642.562 26.3276 643.951 28.8693 645.771 30.9189C647.559 32.9324 649.838 34.5433 651.622 35.9491L652.783 34.4766ZM644.438 22.9956C644.438 20.307 645.957 18.0524 648.03 17.1045C650.045 16.1836 652.752 16.4275 655.325 19.1002L656.675 17.7999C653.623 14.6286 650.08 14.106 647.251 15.3992C644.481 16.6654 642.562 19.6055 642.562 22.9956H644.438ZM651.622 35.9491C652.262 36.4538 652.949 36.9921 653.646 37.3992C654.342 37.8061 655.137 38.1367 656 38.1367V36.2617C655.613 36.2617 655.158 36.1108 654.592 35.7803C654.027 35.4499 653.44 34.9949 652.783 34.4766L651.622 35.9491ZM660.378 35.9491C662.162 34.5433 664.441 32.9324 666.229 30.9189C668.049 28.8693 669.438 26.3276 669.438 22.9956H667.562C667.562 25.7423 666.439 27.8596 664.827 29.6739C663.184 31.5246 661.112 32.9831 659.218 34.4766L660.378 35.9491ZM669.438 22.9956C669.438 19.6055 667.519 16.6654 664.749 15.3992C661.92 14.106 658.377 14.6286 655.325 17.7999L656.675 19.1002C659.248 16.4275 661.955 16.1836 663.969 17.1045C666.043 18.0524 667.562 20.307 667.562 22.9956H669.438ZM659.218 34.4766C658.56 34.9949 657.973 35.4499 657.408 35.7803C656.842 36.1108 656.387 36.2617 656 36.2617V38.1367C656.863 38.1367 657.658 37.8061 658.354 37.3992C659.051 36.9921 659.738 36.4538 660.378 35.9491L659.218 34.4766Z" fill="#84C8FF" fill-opacity="0.6"/>
<path d="M783.667 34.5739L779 37.2406L775 35.2406L770.333 31.9073L767.667 27.2406L766.333 21.2406L769.667 15.9073H775L779 17.9073L781.667 16.5739L785.667 15.2406L789.667 17.9073L791.667 21.9073L790.333 27.9073L783.667 34.5739Z" fill="#0099FF" fill-opacity="0.4"/>
<path d="M779 18.45L778.325 19.1002C778.501 19.2838 778.745 19.3875 779 19.3875C779.255 19.3875 779.499 19.2838 779.675 19.1002L779 18.45ZM775.783 34.4766C773.888 32.9831 771.816 31.5246 770.173 29.6739C768.562 27.8596 767.438 25.7423 767.438 22.9956H765.562C765.562 26.3276 766.951 28.8693 768.771 30.9189C770.559 32.9324 772.838 34.5433 774.622 35.9491L775.783 34.4766ZM767.438 22.9956C767.438 20.307 768.957 18.0524 771.03 17.1045C773.045 16.1836 775.752 16.4275 778.325 19.1002L779.675 17.7999C776.623 14.6286 773.08 14.106 770.251 15.3992C767.481 16.6654 765.562 19.6055 765.562 22.9956H767.438ZM774.622 35.9491C775.262 36.4538 775.949 36.9921 776.646 37.3992C777.342 37.8061 778.137 38.1367 779 38.1367V36.2617C778.613 36.2617 778.158 36.1108 777.592 35.7803C777.027 35.4499 776.44 34.9949 775.783 34.4766L774.622 35.9491ZM783.378 35.9491C785.162 34.5433 787.441 32.9324 789.229 30.9189C791.049 28.8693 792.438 26.3276 792.438 22.9956H790.562C790.562 25.7423 789.439 27.8596 787.827 29.6739C786.184 31.5246 784.112 32.9831 782.218 34.4766L783.378 35.9491ZM792.438 22.9956C792.438 19.6055 790.519 16.6654 787.749 15.3992C784.92 14.106 781.377 14.6286 778.325 17.7999L779.675 19.1002C782.248 16.4275 784.955 16.1836 786.969 17.1045C789.043 18.0524 790.562 20.307 790.562 22.9956H792.438ZM782.218 34.4766C781.56 34.9949 780.973 35.4499 780.408 35.7803C779.842 36.1108 779.387 36.2617 779 36.2617V38.1367C779.863 38.1367 780.658 37.8061 781.354 37.3992C782.051 36.9921 782.738 36.4538 783.378 35.9491L782.218 34.4766Z" fill="#84C8FF" fill-opacity="0.6"/>
<path d="M906.667 34.5739L902 37.2406L898 35.2406L893.333 31.9073L890.667 27.2406L889.333 21.2406L892.667 15.9073H898L902 17.9073L904.667 16.5739L908.667 15.2406L912.667 17.9073L914.667 21.9073L913.333 27.9073L906.667 34.5739Z" fill="#0099FF" fill-opacity="0.4"/>
<path d="M902 18.45L901.325 19.1002C901.501 19.2838 901.745 19.3875 902 19.3875C902.255 19.3875 902.499 19.2838 902.675 19.1002L902 18.45ZM898.783 34.4766C896.888 32.9831 894.816 31.5246 893.173 29.6739C891.562 27.8596 890.438 25.7423 890.438 22.9956H888.562C888.562 26.3276 889.951 28.8693 891.771 30.9189C893.559 32.9324 895.838 34.5433 897.622 35.9491L898.783 34.4766ZM890.438 22.9956C890.438 20.307 891.957 18.0524 894.03 17.1045C896.045 16.1836 898.752 16.4275 901.325 19.1002L902.675 17.7999C899.623 14.6286 896.08 14.106 893.251 15.3992C890.481 16.6654 888.562 19.6055 888.562 22.9956H890.438ZM897.622 35.9491C898.262 36.4538 898.949 36.9921 899.646 37.3992C900.342 37.8061 901.137 38.1367 902 38.1367V36.2617C901.613 36.2617 901.158 36.1108 900.592 35.7803C900.027 35.4499 899.44 34.9949 898.783 34.4766L897.622 35.9491ZM906.378 35.9491C908.162 34.5433 910.441 32.9324 912.229 30.9189C914.049 28.8693 915.438 26.3276 915.438 22.9956H913.562C913.562 25.7423 912.439 27.8596 910.827 29.6739C909.184 31.5246 907.112 32.9831 905.218 34.4766L906.378 35.9491ZM915.438 22.9956C915.438 19.6055 913.519 16.6654 910.749 15.3992C907.92 14.106 904.377 14.6286 901.325 17.7999L902.675 19.1002C905.248 16.4275 907.955 16.1836 909.969 17.1045C912.043 18.0524 913.562 20.307 913.562 22.9956H915.438ZM905.218 34.4766C904.56 34.9949 903.973 35.4499 903.408 35.7803C902.842 36.1108 902.387 36.2617 902 36.2617V38.1367C902.863 38.1367 903.658 37.8061 904.354 37.3992C905.051 36.9921 905.738 36.4538 906.378 35.9491L905.218 34.4766Z" fill="#84C8FF" fill-opacity="0.6"/>
<path d="M1029.67 34.5739L1025 37.2406L1021 35.2406L1016.33 31.9073L1013.67 27.2406L1012.33 21.2406L1015.67 15.9073H1021L1025 17.9073L1027.67 16.5739L1031.67 15.2406L1035.67 17.9073L1037.67 21.9073L1036.33 27.9073L1029.67 34.5739Z" fill="#0099FF" fill-opacity="0.4"/>
<path d="M1025 18.45L1024.32 19.1002C1024.5 19.2838 1024.75 19.3875 1025 19.3875C1025.25 19.3875 1025.5 19.2838 1025.68 19.1002L1025 18.45ZM1021.78 34.4766C1019.89 32.9831 1017.82 31.5246 1016.17 29.6739C1014.56 27.8596 1013.44 25.7423 1013.44 22.9956H1011.56C1011.56 26.3276 1012.95 28.8693 1014.77 30.9189C1016.56 32.9324 1018.84 34.5433 1020.62 35.9491L1021.78 34.4766ZM1013.44 22.9956C1013.44 20.307 1014.96 18.0524 1017.03 17.1045C1019.05 16.1836 1021.75 16.4275 1024.32 19.1002L1025.68 17.7999C1022.62 14.6286 1019.08 14.106 1016.25 15.3992C1013.48 16.6654 1011.56 19.6055 1011.56 22.9956H1013.44ZM1020.62 35.9491C1021.26 36.4538 1021.95 36.9921 1022.65 37.3992C1023.34 37.8061 1024.14 38.1367 1025 38.1367V36.2617C1024.61 36.2617 1024.16 36.1108 1023.59 35.7803C1023.03 35.4499 1022.44 34.9949 1021.78 34.4766L1020.62 35.9491ZM1029.38 35.9491C1031.16 34.5433 1033.44 32.9324 1035.23 30.9189C1037.05 28.8693 1038.44 26.3276 1038.44 22.9956H1036.56C1036.56 25.7423 1035.44 27.8596 1033.83 29.6739C1032.18 31.5246 1030.11 32.9831 1028.22 34.4766L1029.38 35.9491ZM1038.44 22.9956C1038.44 19.6055 1036.52 16.6654 1033.75 15.3992C1030.92 14.106 1027.38 14.6286 1024.32 17.7999L1025.68 19.1002C1028.25 16.4275 1030.95 16.1836 1032.97 17.1045C1035.04 18.0524 1036.56 20.307 1036.56 22.9956H1038.44ZM1028.22 34.4766C1027.56 34.9949 1026.97 35.4499 1026.41 35.7803C1025.84 36.1108 1025.39 36.2617 1025 36.2617V38.1367C1025.86 38.1367 1026.66 37.8061 1027.35 37.3992C1028.05 36.9921 1028.74 36.4538 1029.38 35.9491L1028.22 34.4766Z" fill="#84C8FF" fill-opacity="0.6"/>
<path d="M1152.67 34.5739L1148 37.2406L1144 35.2406L1139.33 31.9073L1136.67 27.2406L1135.33 21.2406L1138.67 15.9073H1144L1148 17.9073L1150.67 16.5739L1154.67 15.2406L1158.67 17.9073L1160.67 21.9073L1159.33 27.9073L1152.67 34.5739Z" fill="#0099FF" fill-opacity="0.4"/>
<path d="M1148 18.45L1147.32 19.1002C1147.5 19.2838 1147.75 19.3875 1148 19.3875C1148.25 19.3875 1148.5 19.2838 1148.68 19.1002L1148 18.45ZM1144.78 34.4766C1142.89 32.9831 1140.82 31.5246 1139.17 29.6739C1137.56 27.8596 1136.44 25.7423 1136.44 22.9956H1134.56C1134.56 26.3276 1135.95 28.8693 1137.77 30.9189C1139.56 32.9324 1141.84 34.5433 1143.62 35.9491L1144.78 34.4766ZM1136.44 22.9956C1136.44 20.307 1137.96 18.0524 1140.03 17.1045C1142.05 16.1836 1144.75 16.4275 1147.32 19.1002L1148.68 17.7999C1145.62 14.6286 1142.08 14.106 1139.25 15.3992C1136.48 16.6654 1134.56 19.6055 1134.56 22.9956H1136.44ZM1143.62 35.9491C1144.26 36.4538 1144.95 36.9921 1145.65 37.3992C1146.34 37.8061 1147.14 38.1367 1148 38.1367V36.2617C1147.61 36.2617 1147.16 36.1108 1146.59 35.7803C1146.03 35.4499 1145.44 34.9949 1144.78 34.4766L1143.62 35.9491ZM1152.38 35.9491C1154.16 34.5433 1156.44 32.9324 1158.23 30.9189C1160.05 28.8693 1161.44 26.3276 1161.44 22.9956H1159.56C1159.56 25.7423 1158.44 27.8596 1156.83 29.6739C1155.18 31.5246 1153.11 32.9831 1151.22 34.4766L1152.38 35.9491ZM1161.44 22.9956C1161.44 19.6055 1159.52 16.6654 1156.75 15.3992C1153.92 14.106 1150.38 14.6286 1147.32 17.7999L1148.68 19.1002C1151.25 16.4275 1153.95 16.1836 1155.97 17.1045C1158.04 18.0524 1159.56 20.307 1159.56 22.9956H1161.44ZM1151.22 34.4766C1150.56 34.9949 1149.97 35.4499 1149.41 35.7803C1148.84 36.1108 1148.39 36.2617 1148 36.2617V38.1367C1148.86 38.1367 1149.66 37.8061 1150.35 37.3992C1151.05 36.9921 1151.74 36.4538 1152.38 35.9491L1151.22 34.4766Z" fill="#84C8FF" fill-opacity="0.6"/>
<path d="M1275.67 34.5739L1271 37.2406L1267 35.2406L1262.33 31.9073L1259.67 27.2406L1258.33 21.2406L1261.67 15.9073H1267L1271 17.9073L1273.67 16.5739L1277.67 15.2406L1281.67 17.9073L1283.67 21.9073L1282.33 27.9073L1275.67 34.5739Z" fill="#0099FF" fill-opacity="0.4"/>
<path d="M1271 18.45L1270.32 19.1002C1270.5 19.2838 1270.75 19.3875 1271 19.3875C1271.25 19.3875 1271.5 19.2838 1271.68 19.1002L1271 18.45ZM1267.78 34.4766C1265.89 32.9831 1263.82 31.5246 1262.17 29.6739C1260.56 27.8596 1259.44 25.7423 1259.44 22.9956H1257.56C1257.56 26.3276 1258.95 28.8693 1260.77 30.9189C1262.56 32.9324 1264.84 34.5433 1266.62 35.9491L1267.78 34.4766ZM1259.44 22.9956C1259.44 20.307 1260.96 18.0524 1263.03 17.1045C1265.05 16.1836 1267.75 16.4275 1270.32 19.1002L1271.68 17.7999C1268.62 14.6286 1265.08 14.106 1262.25 15.3992C1259.48 16.6654 1257.56 19.6055 1257.56 22.9956H1259.44ZM1266.62 35.9491C1267.26 36.4538 1267.95 36.9921 1268.65 37.3992C1269.34 37.8061 1270.14 38.1367 1271 38.1367V36.2617C1270.61 36.2617 1270.16 36.1108 1269.59 35.7803C1269.03 35.4499 1268.44 34.9949 1267.78 34.4766L1266.62 35.9491ZM1275.38 35.9491C1277.16 34.5433 1279.44 32.9324 1281.23 30.9189C1283.05 28.8693 1284.44 26.3276 1284.44 22.9956H1282.56C1282.56 25.7423 1281.44 27.8596 1279.83 29.6739C1278.18 31.5246 1276.11 32.9831 1274.22 34.4766L1275.38 35.9491ZM1284.44 22.9956C1284.44 19.6055 1282.52 16.6654 1279.75 15.3992C1276.92 14.106 1273.38 14.6286 1270.32 17.7999L1271.68 19.1002C1274.25 16.4275 1276.95 16.1836 1278.97 17.1045C1281.04 18.0524 1282.56 20.307 1282.56 22.9956H1284.44ZM1274.22 34.4766C1273.56 34.9949 1272.97 35.4499 1272.41 35.7803C1271.84 36.1108 1271.39 36.2617 1271 36.2617V38.1367C1271.86 38.1367 1272.66 37.8061 1273.35 37.3992C1274.05 36.9921 1274.74 36.4538 1275.38 35.9491L1274.22 34.4766Z" fill="#84C8FF" fill-opacity="0.6"/>
<path d="M1398.67 34.5739L1394 37.2406L1390 35.2406L1385.33 31.9073L1382.67 27.2406L1381.33 21.2406L1384.67 15.9073H1390L1394 17.9073L1396.67 16.5739L1400.67 15.2406L1404.67 17.9073L1406.67 21.9073L1405.33 27.9073L1398.67 34.5739Z" fill="#0099FF" fill-opacity="0.4"/>
<path d="M1394 18.45L1393.32 19.1002C1393.5 19.2838 1393.75 19.3875 1394 19.3875C1394.25 19.3875 1394.5 19.2838 1394.68 19.1002L1394 18.45ZM1390.78 34.4766C1388.89 32.9831 1386.82 31.5246 1385.17 29.6739C1383.56 27.8596 1382.44 25.7423 1382.44 22.9956H1380.56C1380.56 26.3276 1381.95 28.8693 1383.77 30.9189C1385.56 32.9324 1387.84 34.5433 1389.62 35.9491L1390.78 34.4766ZM1382.44 22.9956C1382.44 20.307 1383.96 18.0524 1386.03 17.1045C1388.05 16.1836 1390.75 16.4275 1393.32 19.1002L1394.68 17.7999C1391.62 14.6286 1388.08 14.106 1385.25 15.3992C1382.48 16.6654 1380.56 19.6055 1380.56 22.9956H1382.44ZM1389.62 35.9491C1390.26 36.4538 1390.95 36.9921 1391.65 37.3992C1392.34 37.8061 1393.14 38.1367 1394 38.1367V36.2617C1393.61 36.2617 1393.16 36.1108 1392.59 35.7803C1392.03 35.4499 1391.44 34.9949 1390.78 34.4766L1389.62 35.9491ZM1398.38 35.9491C1400.16 34.5433 1402.44 32.9324 1404.23 30.9189C1406.05 28.8693 1407.44 26.3276 1407.44 22.9956H1405.56C1405.56 25.7423 1404.44 27.8596 1402.83 29.6739C1401.18 31.5246 1399.11 32.9831 1397.22 34.4766L1398.38 35.9491ZM1407.44 22.9956C1407.44 19.6055 1405.52 16.6654 1402.75 15.3992C1399.92 14.106 1396.38 14.6286 1393.32 17.7999L1394.68 19.1002C1397.25 16.4275 1399.95 16.1836 1401.97 17.1045C1404.04 18.0524 1405.56 20.307 1405.56 22.9956H1407.44ZM1397.22 34.4766C1396.56 34.9949 1395.97 35.4499 1395.41 35.7803C1394.84 36.1108 1394.39 36.2617 1394 36.2617V38.1367C1394.86 38.1367 1395.66 37.8061 1396.35 37.3992C1397.05 36.9921 1397.74 36.4538 1398.38 35.9491L1397.22 34.4766Z" fill="#84C8FF" fill-opacity="0.6"/>
<path d="M1521.67 34.5739L1517 37.2406L1513 35.2406L1508.33 31.9073L1505.67 27.2406L1504.33 21.2406L1507.67 15.9073H1513L1517 17.9073L1519.67 16.5739L1523.67 15.2406L1527.67 17.9073L1529.67 21.9073L1528.33 27.9073L1521.67 34.5739Z" fill="#0099FF" fill-opacity="0.4"/>
<path d="M1517 18.45L1516.32 19.1002C1516.5 19.2838 1516.75 19.3875 1517 19.3875C1517.25 19.3875 1517.5 19.2838 1517.68 19.1002L1517 18.45ZM1513.78 34.4766C1511.89 32.9831 1509.82 31.5246 1508.17 29.6739C1506.56 27.8596 1505.44 25.7423 1505.44 22.9956H1503.56C1503.56 26.3276 1504.95 28.8693 1506.77 30.9189C1508.56 32.9324 1510.84 34.5433 1512.62 35.9491L1513.78 34.4766ZM1505.44 22.9956C1505.44 20.307 1506.96 18.0524 1509.03 17.1045C1511.05 16.1836 1513.75 16.4275 1516.32 19.1002L1517.68 17.7999C1514.62 14.6286 1511.08 14.106 1508.25 15.3992C1505.48 16.6654 1503.56 19.6055 1503.56 22.9956H1505.44ZM1512.62 35.9491C1513.26 36.4538 1513.95 36.9921 1514.65 37.3992C1515.34 37.8061 1516.14 38.1367 1517 38.1367V36.2617C1516.61 36.2617 1516.16 36.1108 1515.59 35.7803C1515.03 35.4499 1514.44 34.9949 1513.78 34.4766L1512.62 35.9491ZM1521.38 35.9491C1523.16 34.5433 1525.44 32.9324 1527.23 30.9189C1529.05 28.8693 1530.44 26.3276 1530.44 22.9956H1528.56C1528.56 25.7423 1527.44 27.8596 1525.83 29.6739C1524.18 31.5246 1522.11 32.9831 1520.22 34.4766L1521.38 35.9491ZM1530.44 22.9956C1530.44 19.6055 1528.52 16.6654 1525.75 15.3992C1522.92 14.106 1519.38 14.6286 1516.32 17.7999L1517.68 19.1002C1520.25 16.4275 1522.95 16.1836 1524.97 17.1045C1527.04 18.0524 1528.56 20.307 1528.56 22.9956H1530.44ZM1520.22 34.4766C1519.56 34.9949 1518.97 35.4499 1518.41 35.7803C1517.84 36.1108 1517.39 36.2617 1517 36.2617V38.1367C1517.86 38.1367 1518.66 37.8061 1519.35 37.3992C1520.05 36.9921 1520.74 36.4538 1521.38 35.9491L1520.22 34.4766Z" fill="#84C8FF" fill-opacity="0.6"/>
<path d="M45.6666 165.574L40.9999 168.241L36.9999 166.241L32.3333 162.907L29.6666 158.241L28.3333 152.241L31.6666 146.907H36.9999L40.9999 148.907L43.6666 147.574L47.6666 146.241L51.6666 148.907L53.6666 152.907L52.3333 158.907L45.6666 165.574Z" fill="#0099FF" fill-opacity="0.4"/>
<path d="M41 149.45L40.3245 150.1C40.5013 150.284 40.7451 150.388 41 150.388C41.2549 150.388 41.4987 150.284 41.6755 150.1L41 149.45ZM37.7826 165.477C35.888 163.983 33.8163 162.525 32.1729 160.674C30.5615 158.86 29.4375 156.742 29.4375 153.996H27.5625C27.5625 157.328 28.9506 159.869 30.7709 161.919C32.559 163.932 34.8385 165.543 36.6218 166.949L37.7826 165.477ZM29.4375 153.996C29.4375 151.307 30.9567 149.052 33.0304 148.104C35.0451 147.184 37.7521 147.427 40.3245 150.1L41.6755 148.8C38.6231 145.629 35.0801 145.106 32.2509 146.399C29.4809 147.665 27.5625 150.606 27.5625 153.996H29.4375ZM36.6218 166.949C37.2621 167.454 37.9494 167.992 38.646 168.399C39.3424 168.806 40.137 169.137 41 169.137V167.262C40.613 167.262 40.1576 167.111 39.592 166.78C39.0266 166.45 38.4401 165.995 37.7826 165.477L36.6218 166.949ZM45.3783 166.949C47.1615 165.543 49.441 163.932 51.2291 161.919C53.0494 159.869 54.4375 157.328 54.4375 153.996H52.5625C52.5625 156.742 51.4385 158.86 49.8271 160.674C48.1836 162.525 46.112 163.983 44.2175 165.477L45.3783 166.949ZM54.4375 153.996C54.4375 150.606 52.5191 147.665 49.749 146.399C46.9199 145.106 43.3769 145.629 40.3245 148.8L41.6755 150.1C44.2479 147.427 46.9549 147.184 48.9695 148.104C51.0432 149.052 52.5625 151.307 52.5625 153.996H54.4375ZM44.2175 165.477C43.5599 165.995 42.9734 166.45 42.408 166.78C41.8424 167.111 41.387 167.262 41 167.262V169.137C41.863 169.137 42.6576 168.806 43.354 168.399C44.0506 167.992 44.7379 167.454 45.3783 166.949L44.2175 165.477Z" fill="#84C8FF" fill-opacity="0.6"/>
<path d="M168.667 165.574L164 168.241L160 166.241L155.333 162.907L152.667 158.241L151.333 152.241L154.667 146.907H160L164 148.907L166.667 147.574L170.667 146.241L174.667 148.907L176.667 152.907L175.333 158.907L168.667 165.574Z" fill="#0099FF" fill-opacity="0.4"/>
<path d="M164 149.45L163.325 150.1C163.501 150.284 163.745 150.388 164 150.388C164.255 150.388 164.499 150.284 164.675 150.1L164 149.45ZM160.783 165.477C158.888 163.983 156.816 162.525 155.173 160.674C153.562 158.86 152.438 156.742 152.438 153.996H150.562C150.562 157.328 151.951 159.869 153.771 161.919C155.559 163.932 157.838 165.543 159.622 166.949L160.783 165.477ZM152.438 153.996C152.438 151.307 153.957 149.052 156.03 148.104C158.045 147.184 160.752 147.427 163.325 150.1L164.675 148.8C161.623 145.629 158.08 145.106 155.251 146.399C152.481 147.665 150.562 150.606 150.562 153.996H152.438ZM159.622 166.949C160.262 167.454 160.949 167.992 161.646 168.399C162.342 168.806 163.137 169.137 164 169.137V167.262C163.613 167.262 163.158 167.111 162.592 166.78C162.027 166.45 161.44 165.995 160.783 165.477L159.622 166.949ZM168.378 166.949C170.162 165.543 172.441 163.932 174.229 161.919C176.049 159.869 177.438 157.328 177.438 153.996H175.562C175.562 156.742 174.439 158.86 172.827 160.674C171.184 162.525 169.112 163.983 167.218 165.477L168.378 166.949ZM177.438 153.996C177.438 150.606 175.519 147.665 172.749 146.399C169.92 145.106 166.377 145.629 163.325 148.8L164.675 150.1C167.248 147.427 169.955 147.184 171.969 148.104C174.043 149.052 175.562 151.307 175.562 153.996H177.438ZM167.218 165.477C166.56 165.995 165.973 166.45 165.408 166.78C164.842 167.111 164.387 167.262 164 167.262V169.137C164.863 169.137 165.658 168.806 166.354 168.399C167.051 167.992 167.738 167.454 168.378 166.949L167.218 165.477Z" fill="#84C8FF" fill-opacity="0.6"/>
<path d="M291.667 165.574L287 168.241L283 166.241L278.333 162.907L275.667 158.241L274.333 152.241L277.667 146.907H283L287 148.907L289.667 147.574L293.667 146.241L297.667 148.907L299.667 152.907L298.333 158.907L291.667 165.574Z" fill="#0099FF" fill-opacity="0.4"/>
<path d="M287 149.45L286.325 150.1C286.501 150.284 286.745 150.388 287 150.388C287.255 150.388 287.499 150.284 287.675 150.1L287 149.45ZM283.783 165.477C281.888 163.983 279.816 162.525 278.173 160.674C276.562 158.86 275.438 156.742 275.438 153.996H273.562C273.562 157.328 274.951 159.869 276.771 161.919C278.559 163.932 280.838 165.543 282.622 166.949L283.783 165.477ZM275.438 153.996C275.438 151.307 276.957 149.052 279.03 148.104C281.045 147.184 283.752 147.427 286.325 150.1L287.675 148.8C284.623 145.629 281.08 145.106 278.251 146.399C275.481 147.665 273.562 150.606 273.562 153.996H275.438ZM282.622 166.949C283.262 167.454 283.949 167.992 284.646 168.399C285.342 168.806 286.137 169.137 287 169.137V167.262C286.613 167.262 286.158 167.111 285.592 166.78C285.027 166.45 284.44 165.995 283.783 165.477L282.622 166.949ZM291.378 166.949C293.162 165.543 295.441 163.932 297.229 161.919C299.049 159.869 300.438 157.328 300.438 153.996H298.562C298.562 156.742 297.439 158.86 295.827 160.674C294.184 162.525 292.112 163.983 290.218 165.477L291.378 166.949ZM300.438 153.996C300.438 150.606 298.519 147.665 295.749 146.399C292.92 145.106 289.377 145.629 286.325 148.8L287.675 150.1C290.248 147.427 292.955 147.184 294.969 148.104C297.043 149.052 298.562 151.307 298.562 153.996H300.438ZM290.218 165.477C289.56 165.995 288.973 166.45 288.408 166.78C287.842 167.111 287.387 167.262 287 167.262V169.137C287.863 169.137 288.658 168.806 289.354 168.399C290.051 167.992 290.738 167.454 291.378 166.949L290.218 165.477Z" fill="#84C8FF" fill-opacity="0.6"/>
<path d="M414.667 165.574L410 168.241L406 166.241L401.333 162.907L398.667 158.241L397.333 152.241L400.667 146.907H406L410 148.907L412.667 147.574L416.667 146.241L420.667 148.907L422.667 152.907L421.333 158.907L414.667 165.574Z" fill="#0099FF" fill-opacity="0.4"/>
<path d="M410 149.45L409.325 150.1C409.501 150.284 409.745 150.388 410 150.388C410.255 150.388 410.499 150.284 410.675 150.1L410 149.45ZM406.783 165.477C404.888 163.983 402.816 162.525 401.173 160.674C399.562 158.86 398.438 156.742 398.438 153.996H396.562C396.562 157.328 397.951 159.869 399.771 161.919C401.559 163.932 403.838 165.543 405.622 166.949L406.783 165.477ZM398.438 153.996C398.438 151.307 399.957 149.052 402.03 148.104C404.045 147.184 406.752 147.427 409.325 150.1L410.675 148.8C407.623 145.629 404.08 145.106 401.251 146.399C398.481 147.665 396.562 150.606 396.562 153.996H398.438ZM405.622 166.949C406.262 167.454 406.949 167.992 407.646 168.399C408.342 168.806 409.137 169.137 410 169.137V167.262C409.613 167.262 409.158 167.111 408.592 166.78C408.027 166.45 407.44 165.995 406.783 165.477L405.622 166.949ZM414.378 166.949C416.162 165.543 418.441 163.932 420.229 161.919C422.049 159.869 423.438 157.328 423.438 153.996H421.562C421.562 156.742 420.439 158.86 418.827 160.674C417.184 162.525 415.112 163.983 413.218 165.477L414.378 166.949ZM423.438 153.996C423.438 150.606 421.519 147.665 418.749 146.399C415.92 145.106 412.377 145.629 409.325 148.8L410.675 150.1C413.248 147.427 415.955 147.184 417.969 148.104C420.043 149.052 421.562 151.307 421.562 153.996H423.438ZM413.218 165.477C412.56 165.995 411.973 166.45 411.408 166.78C410.842 167.111 410.387 167.262 410 167.262V169.137C410.863 169.137 411.658 168.806 412.354 168.399C413.051 167.992 413.738 167.454 414.378 166.949L413.218 165.477Z" fill="#84C8FF" fill-opacity="0.6"/>
<path d="M537.667 165.574L533 168.241L529 166.241L524.333 162.907L521.667 158.241L520.333 152.241L523.667 146.907H529L533 148.907L535.667 147.574L539.667 146.241L543.667 148.907L545.667 152.907L544.333 158.907L537.667 165.574Z" fill="#0099FF" fill-opacity="0.4"/>
<path d="M533 149.45L532.325 150.1C532.501 150.284 532.745 150.388 533 150.388C533.255 150.388 533.499 150.284 533.675 150.1L533 149.45ZM529.783 165.477C527.888 163.983 525.816 162.525 524.173 160.674C522.562 158.86 521.438 156.742 521.438 153.996H519.562C519.562 157.328 520.951 159.869 522.771 161.919C524.559 163.932 526.838 165.543 528.622 166.949L529.783 165.477ZM521.438 153.996C521.438 151.307 522.957 149.052 525.03 148.104C527.045 147.184 529.752 147.427 532.325 150.1L533.675 148.8C530.623 145.629 527.08 145.106 524.251 146.399C521.481 147.665 519.562 150.606 519.562 153.996H521.438ZM528.622 166.949C529.262 167.454 529.949 167.992 530.646 168.399C531.342 168.806 532.137 169.137 533 169.137V167.262C532.613 167.262 532.158 167.111 531.592 166.78C531.027 166.45 530.44 165.995 529.783 165.477L528.622 166.949ZM537.378 166.949C539.162 165.543 541.441 163.932 543.229 161.919C545.049 159.869 546.438 157.328 546.438 153.996H544.562C544.562 156.742 543.439 158.86 541.827 160.674C540.184 162.525 538.112 163.983 536.218 165.477L537.378 166.949ZM546.438 153.996C546.438 150.606 544.519 147.665 541.749 146.399C538.92 145.106 535.377 145.629 532.325 148.8L533.675 150.1C536.248 147.427 538.955 147.184 540.969 148.104C543.043 149.052 544.562 151.307 544.562 153.996H546.438ZM536.218 165.477C535.56 165.995 534.973 166.45 534.408 166.78C533.842 167.111 533.387 167.262 533 167.262V169.137C533.863 169.137 534.658 168.806 535.354 168.399C536.051 167.992 536.738 167.454 537.378 166.949L536.218 165.477Z" fill="#84C8FF" fill-opacity="0.6"/>
<path d="M660.667 165.574L656 168.241L652 166.241L647.333 162.907L644.667 158.241L643.333 152.241L646.667 146.907H652L656 148.907L658.667 147.574L662.667 146.241L666.667 148.907L668.667 152.907L667.333 158.907L660.667 165.574Z" fill="#0099FF" fill-opacity="0.4"/>
<path d="M656 149.45L655.325 150.1C655.501 150.284 655.745 150.388 656 150.388C656.255 150.388 656.499 150.284 656.675 150.1L656 149.45ZM652.783 165.477C650.888 163.983 648.816 162.525 647.173 160.674C645.562 158.86 644.438 156.742 644.438 153.996H642.562C642.562 157.328 643.951 159.869 645.771 161.919C647.559 163.932 649.838 165.543 651.622 166.949L652.783 165.477ZM644.438 153.996C644.438 151.307 645.957 149.052 648.03 148.104C650.045 147.184 652.752 147.427 655.325 150.1L656.675 148.8C653.623 145.629 650.08 145.106 647.251 146.399C644.481 147.665 642.562 150.606 642.562 153.996H644.438ZM651.622 166.949C652.262 167.454 652.949 167.992 653.646 168.399C654.342 168.806 655.137 169.137 656 169.137V167.262C655.613 167.262 655.158 167.111 654.592 166.78C654.027 166.45 653.44 165.995 652.783 165.477L651.622 166.949ZM660.378 166.949C662.162 165.543 664.441 163.932 666.229 161.919C668.049 159.869 669.438 157.328 669.438 153.996H667.562C667.562 156.742 666.439 158.86 664.827 160.674C663.184 162.525 661.112 163.983 659.218 165.477L660.378 166.949ZM669.438 153.996C669.438 150.606 667.519 147.665 664.749 146.399C661.92 145.106 658.377 145.629 655.325 148.8L656.675 150.1C659.248 147.427 661.955 147.184 663.969 148.104C666.043 149.052 667.562 151.307 667.562 153.996H669.438ZM659.218 165.477C658.56 165.995 657.973 166.45 657.408 166.78C656.842 167.111 656.387 167.262 656 167.262V169.137C656.863 169.137 657.658 168.806 658.354 168.399C659.051 167.992 659.738 167.454 660.378 166.949L659.218 165.477Z" fill="#84C8FF" fill-opacity="0.6"/>
<path d="M783.667 165.574L779 168.241L775 166.241L770.333 162.907L767.667 158.241L766.333 152.241L769.667 146.907H775L779 148.907L781.667 147.574L785.667 146.241L789.667 148.907L791.667 152.907L790.333 158.907L783.667 165.574Z" fill="#0099FF" fill-opacity="0.4"/>
<path d="M779 149.45L778.325 150.1C778.501 150.284 778.745 150.388 779 150.388C779.255 150.388 779.499 150.284 779.675 150.1L779 149.45ZM775.783 165.477C773.888 163.983 771.816 162.525 770.173 160.674C768.562 158.86 767.438 156.742 767.438 153.996H765.562C765.562 157.328 766.951 159.869 768.771 161.919C770.559 163.932 772.838 165.543 774.622 166.949L775.783 165.477ZM767.438 153.996C767.438 151.307 768.957 149.052 771.03 148.104C773.045 147.184 775.752 147.427 778.325 150.1L779.675 148.8C776.623 145.629 773.08 145.106 770.251 146.399C767.481 147.665 765.562 150.606 765.562 153.996H767.438ZM774.622 166.949C775.262 167.454 775.949 167.992 776.646 168.399C777.342 168.806 778.137 169.137 779 169.137V167.262C778.613 167.262 778.158 167.111 777.592 166.78C777.027 166.45 776.44 165.995 775.783 165.477L774.622 166.949ZM783.378 166.949C785.162 165.543 787.441 163.932 789.229 161.919C791.049 159.869 792.438 157.328 792.438 153.996H790.562C790.562 156.742 789.439 158.86 787.827 160.674C786.184 162.525 784.112 163.983 782.218 165.477L783.378 166.949ZM792.438 153.996C792.438 150.606 790.519 147.665 787.749 146.399C784.92 145.106 781.377 145.629 778.325 148.8L779.675 150.1C782.248 147.427 784.955 147.184 786.969 148.104C789.043 149.052 790.562 151.307 790.562 153.996H792.438ZM782.218 165.477C781.56 165.995 780.973 166.45 780.408 166.78C779.842 167.111 779.387 167.262 779 167.262V169.137C779.863 169.137 780.658 168.806 781.354 168.399C782.051 167.992 782.738 167.454 783.378 166.949L782.218 165.477Z" fill="#84C8FF" fill-opacity="0.6"/>
<path d="M906.667 165.574L902 168.241L898 166.241L893.333 162.907L890.667 158.241L889.333 152.241L892.667 146.907H898L902 148.907L904.667 147.574L908.667 146.241L912.667 148.907L914.667 152.907L913.333 158.907L906.667 165.574Z" fill="#0099FF" fill-opacity="0.4"/>
<path d="M902 149.45L901.325 150.1C901.501 150.284 901.745 150.388 902 150.388C902.255 150.388 902.499 150.284 902.675 150.1L902 149.45ZM898.783 165.477C896.888 163.983 894.816 162.525 893.173 160.674C891.562 158.86 890.438 156.742 890.438 153.996H888.562C888.562 157.328 889.951 159.869 891.771 161.919C893.559 163.932 895.838 165.543 897.622 166.949L898.783 165.477ZM890.438 153.996C890.438 151.307 891.957 149.052 894.03 148.104C896.045 147.184 898.752 147.427 901.325 150.1L902.675 148.8C899.623 145.629 896.08 145.106 893.251 146.399C890.481 147.665 888.562 150.606 888.562 153.996H890.438ZM897.622 166.949C898.262 167.454 898.949 167.992 899.646 168.399C900.342 168.806 901.137 169.137 902 169.137V167.262C901.613 167.262 901.158 167.111 900.592 166.78C900.027 166.45 899.44 165.995 898.783 165.477L897.622 166.949ZM906.378 166.949C908.162 165.543 910.441 163.932 912.229 161.919C914.049 159.869 915.438 157.328 915.438 153.996H913.562C913.562 156.742 912.439 158.86 910.827 160.674C909.184 162.525 907.112 163.983 905.218 165.477L906.378 166.949ZM915.438 153.996C915.438 150.606 913.519 147.665 910.749 146.399C907.92 145.106 904.377 145.629 901.325 148.8L902.675 150.1C905.248 147.427 907.955 147.184 909.969 148.104C912.043 149.052 913.562 151.307 913.562 153.996H915.438ZM905.218 165.477C904.56 165.995 903.973 166.45 903.408 166.78C902.842 167.111 902.387 167.262 902 167.262V169.137C902.863 169.137 903.658 168.806 904.354 168.399C905.051 167.992 905.738 167.454 906.378 166.949L905.218 165.477Z" fill="#84C8FF" fill-opacity="0.6"/>
<path d="M1029.67 165.574L1025 168.241L1021 166.241L1016.33 162.907L1013.67 158.241L1012.33 152.241L1015.67 146.907H1021L1025 148.907L1027.67 147.574L1031.67 146.241L1035.67 148.907L1037.67 152.907L1036.33 158.907L1029.67 165.574Z" fill="#0099FF" fill-opacity="0.4"/>
<path d="M1025 149.45L1024.32 150.1C1024.5 150.284 1024.75 150.388 1025 150.388C1025.25 150.388 1025.5 150.284 1025.68 150.1L1025 149.45ZM1021.78 165.477C1019.89 163.983 1017.82 162.525 1016.17 160.674C1014.56 158.86 1013.44 156.742 1013.44 153.996H1011.56C1011.56 157.328 1012.95 159.869 1014.77 161.919C1016.56 163.932 1018.84 165.543 1020.62 166.949L1021.78 165.477ZM1013.44 153.996C1013.44 151.307 1014.96 149.052 1017.03 148.104C1019.05 147.184 1021.75 147.427 1024.32 150.1L1025.68 148.8C1022.62 145.629 1019.08 145.106 1016.25 146.399C1013.48 147.665 1011.56 150.606 1011.56 153.996H1013.44ZM1020.62 166.949C1021.26 167.454 1021.95 167.992 1022.65 168.399C1023.34 168.806 1024.14 169.137 1025 169.137V167.262C1024.61 167.262 1024.16 167.111 1023.59 166.78C1023.03 166.45 1022.44 165.995 1021.78 165.477L1020.62 166.949ZM1029.38 166.949C1031.16 165.543 1033.44 163.932 1035.23 161.919C1037.05 159.869 1038.44 157.328 1038.44 153.996H1036.56C1036.56 156.742 1035.44 158.86 1033.83 160.674C1032.18 162.525 1030.11 163.983 1028.22 165.477L1029.38 166.949ZM1038.44 153.996C1038.44 150.606 1036.52 147.665 1033.75 146.399C1030.92 145.106 1027.38 145.629 1024.32 148.8L1025.68 150.1C1028.25 147.427 1030.95 147.184 1032.97 148.104C1035.04 149.052 1036.56 151.307 1036.56 153.996H1038.44ZM1028.22 165.477C1027.56 165.995 1026.97 166.45 1026.41 166.78C1025.84 167.111 1025.39 167.262 1025 167.262V169.137C1025.86 169.137 1026.66 168.806 1027.35 168.399C1028.05 167.992 1028.74 167.454 1029.38 166.949L1028.22 165.477Z" fill="#84C8FF" fill-opacity="0.6"/>
<path d="M1152.67 165.574L1148 168.241L1144 166.241L1139.33 162.907L1136.67 158.241L1135.33 152.241L1138.67 146.907H1144L1148 148.907L1150.67 147.574L1154.67 146.241L1158.67 148.907L1160.67 152.907L1159.33 158.907L1152.67 165.574Z" fill="#0099FF" fill-opacity="0.4"/>
<path d="M1148 149.45L1147.32 150.1C1147.5 150.284 1147.75 150.388 1148 150.388C1148.25 150.388 1148.5 150.284 1148.68 150.1L1148 149.45ZM1144.78 165.477C1142.89 163.983 1140.82 162.525 1139.17 160.674C1137.56 158.86 1136.44 156.742 1136.44 153.996H1134.56C1134.56 157.328 1135.95 159.869 1137.77 161.919C1139.56 163.932 1141.84 165.543 1143.62 166.949L1144.78 165.477ZM1136.44 153.996C1136.44 151.307 1137.96 149.052 1140.03 148.104C1142.05 147.184 1144.75 147.427 1147.32 150.1L1148.68 148.8C1145.62 145.629 1142.08 145.106 1139.25 146.399C1136.48 147.665 1134.56 150.606 1134.56 153.996H1136.44ZM1143.62 166.949C1144.26 167.454 1144.95 167.992 1145.65 168.399C1146.34 168.806 1147.14 169.137 1148 169.137V167.262C1147.61 167.262 1147.16 167.111 1146.59 166.78C1146.03 166.45 1145.44 165.995 1144.78 165.477L1143.62 166.949ZM1152.38 166.949C1154.16 165.543 1156.44 163.932 1158.23 161.919C1160.05 159.869 1161.44 157.328 1161.44 153.996H1159.56C1159.56 156.742 1158.44 158.86 1156.83 160.674C1155.18 162.525 1153.11 163.983 1151.22 165.477L1152.38 166.949ZM1161.44 153.996C1161.44 150.606 1159.52 147.665 1156.75 146.399C1153.92 145.106 1150.38 145.629 1147.32 148.8L1148.68 150.1C1151.25 147.427 1153.95 147.184 1155.97 148.104C1158.04 149.052 1159.56 151.307 1159.56 153.996H1161.44ZM1151.22 165.477C1150.56 165.995 1149.97 166.45 1149.41 166.78C1148.84 167.111 1148.39 167.262 1148 167.262V169.137C1148.86 169.137 1149.66 168.806 1150.35 168.399C1151.05 167.992 1151.74 167.454 1152.38 166.949L1151.22 165.477Z" fill="#84C8FF" fill-opacity="0.6"/>
<path d="M1275.67 165.574L1271 168.241L1267 166.241L1262.33 162.907L1259.67 158.241L1258.33 152.241L1261.67 146.907H1267L1271 148.907L1273.67 147.574L1277.67 146.241L1281.67 148.907L1283.67 152.907L1282.33 158.907L1275.67 165.574Z" fill="#0099FF" fill-opacity="0.4"/>
<path d="M1271 149.45L1270.32 150.1C1270.5 150.284 1270.75 150.388 1271 150.388C1271.25 150.388 1271.5 150.284 1271.68 150.1L1271 149.45ZM1267.78 165.477C1265.89 163.983 1263.82 162.525 1262.17 160.674C1260.56 158.86 1259.44 156.742 1259.44 153.996H1257.56C1257.56 157.328 1258.95 159.869 1260.77 161.919C1262.56 163.932 1264.84 165.543 1266.62 166.949L1267.78 165.477ZM1259.44 153.996C1259.44 151.307 1260.96 149.052 1263.03 148.104C1265.05 147.184 1267.75 147.427 1270.32 150.1L1271.68 148.8C1268.62 145.629 1265.08 145.106 1262.25 146.399C1259.48 147.665 1257.56 150.606 1257.56 153.996H1259.44ZM1266.62 166.949C1267.26 167.454 1267.95 167.992 1268.65 168.399C1269.34 168.806 1270.14 169.137 1271 169.137V167.262C1270.61 167.262 1270.16 167.111 1269.59 166.78C1269.03 166.45 1268.44 165.995 1267.78 165.477L1266.62 166.949ZM1275.38 166.949C1277.16 165.543 1279.44 163.932 1281.23 161.919C1283.05 159.869 1284.44 157.328 1284.44 153.996H1282.56C1282.56 156.742 1281.44 158.86 1279.83 160.674C1278.18 162.525 1276.11 163.983 1274.22 165.477L1275.38 166.949ZM1284.44 153.996C1284.44 150.606 1282.52 147.665 1279.75 146.399C1276.92 145.106 1273.38 145.629 1270.32 148.8L1271.68 150.1C1274.25 147.427 1276.95 147.184 1278.97 148.104C1281.04 149.052 1282.56 151.307 1282.56 153.996H1284.44ZM1274.22 165.477C1273.56 165.995 1272.97 166.45 1272.41 166.78C1271.84 167.111 1271.39 167.262 1271 167.262V169.137C1271.86 169.137 1272.66 168.806 1273.35 168.399C1274.05 167.992 1274.74 167.454 1275.38 166.949L1274.22 165.477Z" fill="#84C8FF" fill-opacity="0.6"/>
<path d="M1398.67 165.574L1394 168.241L1390 166.241L1385.33 162.907L1382.67 158.241L1381.33 152.241L1384.67 146.907H1390L1394 148.907L1396.67 147.574L1400.67 146.241L1404.67 148.907L1406.67 152.907L1405.33 158.907L1398.67 165.574Z" fill="#0099FF" fill-opacity="0.4"/>
<path d="M1394 149.45L1393.32 150.1C1393.5 150.284 1393.75 150.388 1394 150.388C1394.25 150.388 1394.5 150.284 1394.68 150.1L1394 149.45ZM1390.78 165.477C1388.89 163.983 1386.82 162.525 1385.17 160.674C1383.56 158.86 1382.44 156.742 1382.44 153.996H1380.56C1380.56 157.328 1381.95 159.869 1383.77 161.919C1385.56 163.932 1387.84 165.543 1389.62 166.949L1390.78 165.477ZM1382.44 153.996C1382.44 151.307 1383.96 149.052 1386.03 148.104C1388.05 147.184 1390.75 147.427 1393.32 150.1L1394.68 148.8C1391.62 145.629 1388.08 145.106 1385.25 146.399C1382.48 147.665 1380.56 150.606 1380.56 153.996H1382.44ZM1389.62 166.949C1390.26 167.454 1390.95 167.992 1391.65 168.399C1392.34 168.806 1393.14 169.137 1394 169.137V167.262C1393.61 167.262 1393.16 167.111 1392.59 166.78C1392.03 166.45 1391.44 165.995 1390.78 165.477L1389.62 166.949ZM1398.38 166.949C1400.16 165.543 1402.44 163.932 1404.23 161.919C1406.05 159.869 1407.44 157.328 1407.44 153.996H1405.56C1405.56 156.742 1404.44 158.86 1402.83 160.674C1401.18 162.525 1399.11 163.983 1397.22 165.477L1398.38 166.949ZM1407.44 153.996C1407.44 150.606 1405.52 147.665 1402.75 146.399C1399.92 145.106 1396.38 145.629 1393.32 148.8L1394.68 150.1C1397.25 147.427 1399.95 147.184 1401.97 148.104C1404.04 149.052 1405.56 151.307 1405.56 153.996H1407.44ZM1397.22 165.477C1396.56 165.995 1395.97 166.45 1395.41 166.78C1394.84 167.111 1394.39 167.262 1394 167.262V169.137C1394.86 169.137 1395.66 168.806 1396.35 168.399C1397.05 167.992 1397.74 167.454 1398.38 166.949L1397.22 165.477Z" fill="#84C8FF" fill-opacity="0.6"/>
<path d="M1521.67 165.574L1517 168.241L1513 166.241L1508.33 162.907L1505.67 158.241L1504.33 152.241L1507.67 146.907H1513L1517 148.907L1519.67 147.574L1523.67 146.241L1527.67 148.907L1529.67 152.907L1528.33 158.907L1521.67 165.574Z" fill="#0099FF" fill-opacity="0.4"/>
<path d="M1517 149.45L1516.32 150.1C1516.5 150.284 1516.75 150.388 1517 150.388C1517.25 150.388 1517.5 150.284 1517.68 150.1L1517 149.45ZM1513.78 165.477C1511.89 163.983 1509.82 162.525 1508.17 160.674C1506.56 158.86 1505.44 156.742 1505.44 153.996H1503.56C1503.56 157.328 1504.95 159.869 1506.77 161.919C1508.56 163.932 1510.84 165.543 1512.62 166.949L1513.78 165.477ZM1505.44 153.996C1505.44 151.307 1506.96 149.052 1509.03 148.104C1511.05 147.184 1513.75 147.427 1516.32 150.1L1517.68 148.8C1514.62 145.629 1511.08 145.106 1508.25 146.399C1505.48 147.665 1503.56 150.606 1503.56 153.996H1505.44ZM1512.62 166.949C1513.26 167.454 1513.95 167.992 1514.65 168.399C1515.34 168.806 1516.14 169.137 1517 169.137V167.262C1516.61 167.262 1516.16 167.111 1515.59 166.78C1515.03 166.45 1514.44 165.995 1513.78 165.477L1512.62 166.949ZM1521.38 166.949C1523.16 165.543 1525.44 163.932 1527.23 161.919C1529.05 159.869 1530.44 157.328 1530.44 153.996H1528.56C1528.56 156.742 1527.44 158.86 1525.83 160.674C1524.18 162.525 1522.11 163.983 1520.22 165.477L1521.38 166.949ZM1530.44 153.996C1530.44 150.606 1528.52 147.665 1525.75 146.399C1522.92 145.106 1519.38 145.629 1516.32 148.8L1517.68 150.1C1520.25 147.427 1522.95 147.184 1524.97 148.104C1527.04 149.052 1528.56 151.307 1528.56 153.996H1530.44ZM1520.22 165.477C1519.56 165.995 1518.97 166.45 1518.41 166.78C1517.84 167.111 1517.39 167.262 1517 167.262V169.137C1517.86 169.137 1518.66 168.806 1519.35 168.399C1520.05 167.992 1520.74 167.454 1521.38 166.949L1520.22 165.477Z" fill="#84C8FF" fill-opacity="0.6"/>
<path d="M98.6666 100.074L93.9999 102.741L89.9999 100.741L85.3333 97.4073L82.6666 92.7406L81.3333 86.7406L84.6666 81.4073H89.9999L93.9999 83.4073L96.6666 82.0739L100.667 80.7406L104.667 83.4073L106.667 87.4073L105.333 93.4073L98.6666 100.074Z" fill="#0099FF" fill-opacity="0.4"/>
<path d="M94 83.95L93.3245 84.6002C93.5013 84.7838 93.7451 84.8875 94 84.8875C94.2549 84.8875 94.4987 84.7838 94.6755 84.6002L94 83.95ZM90.7826 99.9766C88.888 98.4831 86.8163 97.0246 85.1729 95.1739C83.5615 93.3596 82.4375 91.2423 82.4375 88.4956H80.5625C80.5625 91.8276 81.9506 94.3693 83.7709 96.4189C85.559 98.4324 87.8385 100.043 89.6218 101.449L90.7826 99.9766ZM82.4375 88.4956C82.4375 85.807 83.9567 83.5524 86.0304 82.6045C88.0451 81.6836 90.7521 81.9275 93.3245 84.6002L94.6755 83.2999C91.6231 80.1286 88.0801 79.606 85.2509 80.8992C82.4809 82.1654 80.5625 85.1055 80.5625 88.4956H82.4375ZM89.6218 101.449C90.2621 101.954 90.9494 102.492 91.646 102.899C92.3424 103.306 93.137 103.637 94 103.637V101.762C93.613 101.762 93.1576 101.611 92.592 101.28C92.0266 100.95 91.4401 100.495 90.7826 99.9766L89.6218 101.449ZM98.3783 101.449C100.162 100.043 102.441 98.4324 104.229 96.4189C106.049 94.3693 107.438 91.8276 107.438 88.4956H105.562C105.562 91.2423 104.439 93.3596 102.827 95.1739C101.184 97.0246 99.112 98.4831 97.2175 99.9766L98.3783 101.449ZM107.438 88.4956C107.438 85.1055 105.519 82.1654 102.749 80.8992C99.9199 79.606 96.3769 80.1286 93.3245 83.2999L94.6755 84.6002C97.2479 81.9275 99.9549 81.6836 101.969 82.6045C104.043 83.5524 105.562 85.807 105.562 88.4956H107.438ZM97.2175 99.9766C96.5599 100.495 95.9734 100.95 95.408 101.28C94.8424 101.611 94.387 101.762 94 101.762V103.637C94.863 103.637 95.6576 103.306 96.354 102.899C97.0506 102.492 97.7379 101.954 98.3783 101.449L97.2175 99.9766Z" fill="#84C8FF" fill-opacity="0.6"/>
<path d="M221.667 100.074L217 102.741L213 100.741L208.333 97.4073L205.667 92.7406L204.333 86.7406L207.667 81.4073H213L217 83.4073L219.667 82.0739L223.667 80.7406L227.667 83.4073L229.667 87.4073L228.333 93.4073L221.667 100.074Z" fill="#0099FF" fill-opacity="0.4"/>
<path d="M217 83.95L216.325 84.6002C216.501 84.7838 216.745 84.8875 217 84.8875C217.255 84.8875 217.499 84.7838 217.675 84.6002L217 83.95ZM213.783 99.9766C211.888 98.4831 209.816 97.0246 208.173 95.1739C206.562 93.3596 205.438 91.2423 205.438 88.4956H203.562C203.562 91.8276 204.951 94.3693 206.771 96.4189C208.559 98.4324 210.838 100.043 212.622 101.449L213.783 99.9766ZM205.438 88.4956C205.438 85.807 206.957 83.5524 209.03 82.6045C211.045 81.6836 213.752 81.9275 216.325 84.6002L217.675 83.2999C214.623 80.1286 211.08 79.606 208.251 80.8992C205.481 82.1654 203.562 85.1055 203.562 88.4956H205.438ZM212.622 101.449C213.262 101.954 213.949 102.492 214.646 102.899C215.342 103.306 216.137 103.637 217 103.637V101.762C216.613 101.762 216.158 101.611 215.592 101.28C215.027 100.95 214.44 100.495 213.783 99.9766L212.622 101.449ZM221.378 101.449C223.162 100.043 225.441 98.4324 227.229 96.4189C229.049 94.3693 230.438 91.8276 230.438 88.4956H228.562C228.562 91.2423 227.439 93.3596 225.827 95.1739C224.184 97.0246 222.112 98.4831 220.218 99.9766L221.378 101.449ZM230.438 88.4956C230.438 85.1055 228.519 82.1654 225.749 80.8992C222.92 79.606 219.377 80.1286 216.325 83.2999L217.675 84.6002C220.248 81.9275 222.955 81.6836 224.969 82.6045C227.043 83.5524 228.562 85.807 228.562 88.4956H230.438ZM220.218 99.9766C219.56 100.495 218.973 100.95 218.408 101.28C217.842 101.611 217.387 101.762 217 101.762V103.637C217.863 103.637 218.658 103.306 219.354 102.899C220.051 102.492 220.738 101.954 221.378 101.449L220.218 99.9766Z" fill="#84C8FF" fill-opacity="0.6"/>
<path d="M344.667 100.074L340 102.741L336 100.741L331.333 97.4073L328.667 92.7406L327.333 86.7406L330.667 81.4073H336L340 83.4073L342.667 82.0739L346.667 80.7406L350.667 83.4073L352.667 87.4073L351.333 93.4073L344.667 100.074Z" fill="#0099FF" fill-opacity="0.4"/>
<path d="M340 83.95L339.325 84.6002C339.501 84.7838 339.745 84.8875 340 84.8875C340.255 84.8875 340.499 84.7838 340.675 84.6002L340 83.95ZM336.783 99.9766C334.888 98.4831 332.816 97.0246 331.173 95.1739C329.562 93.3596 328.438 91.2423 328.438 88.4956H326.562C326.562 91.8276 327.951 94.3693 329.771 96.4189C331.559 98.4324 333.838 100.043 335.622 101.449L336.783 99.9766ZM328.438 88.4956C328.438 85.807 329.957 83.5524 332.03 82.6045C334.045 81.6836 336.752 81.9275 339.325 84.6002L340.675 83.2999C337.623 80.1286 334.08 79.606 331.251 80.8992C328.481 82.1654 326.562 85.1055 326.562 88.4956H328.438ZM335.622 101.449C336.262 101.954 336.949 102.492 337.646 102.899C338.342 103.306 339.137 103.637 340 103.637V101.762C339.613 101.762 339.158 101.611 338.592 101.28C338.027 100.95 337.44 100.495 336.783 99.9766L335.622 101.449ZM344.378 101.449C346.162 100.043 348.441 98.4324 350.229 96.4189C352.049 94.3693 353.438 91.8276 353.438 88.4956H351.562C351.562 91.2423 350.439 93.3596 348.827 95.1739C347.184 97.0246 345.112 98.4831 343.218 99.9766L344.378 101.449ZM353.438 88.4956C353.438 85.1055 351.519 82.1654 348.749 80.8992C345.92 79.606 342.377 80.1286 339.325 83.2999L340.675 84.6002C343.248 81.9275 345.955 81.6836 347.969 82.6045C350.043 83.5524 351.562 85.807 351.562 88.4956H353.438ZM343.218 99.9766C342.56 100.495 341.973 100.95 341.408 101.28C340.842 101.611 340.387 101.762 340 101.762V103.637C340.863 103.637 341.658 103.306 342.354 102.899C343.051 102.492 343.738 101.954 344.378 101.449L343.218 99.9766Z" fill="#84C8FF" fill-opacity="0.6"/>
<path d="M467.667 100.074L463 102.741L459 100.741L454.333 97.4073L451.667 92.7406L450.333 86.7406L453.667 81.4073H459L463 83.4073L465.667 82.0739L469.667 80.7406L473.667 83.4073L475.667 87.4073L474.333 93.4073L467.667 100.074Z" fill="#0099FF" fill-opacity="0.4"/>
<path d="M463 83.95L462.325 84.6002C462.501 84.7838 462.745 84.8875 463 84.8875C463.255 84.8875 463.499 84.7838 463.675 84.6002L463 83.95ZM459.783 99.9766C457.888 98.4831 455.816 97.0246 454.173 95.1739C452.562 93.3596 451.438 91.2423 451.438 88.4956H449.562C449.562 91.8276 450.951 94.3693 452.771 96.4189C454.559 98.4324 456.838 100.043 458.622 101.449L459.783 99.9766ZM451.438 88.4956C451.438 85.807 452.957 83.5524 455.03 82.6045C457.045 81.6836 459.752 81.9275 462.325 84.6002L463.675 83.2999C460.623 80.1286 457.08 79.606 454.251 80.8992C451.481 82.1654 449.562 85.1055 449.562 88.4956H451.438ZM458.622 101.449C459.262 101.954 459.949 102.492 460.646 102.899C461.342 103.306 462.137 103.637 463 103.637V101.762C462.613 101.762 462.158 101.611 461.592 101.28C461.027 100.95 460.44 100.495 459.783 99.9766L458.622 101.449ZM467.378 101.449C469.162 100.043 471.441 98.4324 473.229 96.4189C475.049 94.3693 476.438 91.8276 476.438 88.4956H474.562C474.562 91.2423 473.439 93.3596 471.827 95.1739C470.184 97.0246 468.112 98.4831 466.218 99.9766L467.378 101.449ZM476.438 88.4956C476.438 85.1055 474.519 82.1654 471.749 80.8992C468.92 79.606 465.377 80.1286 462.325 83.2999L463.675 84.6002C466.248 81.9275 468.955 81.6836 470.969 82.6045C473.043 83.5524 474.562 85.807 474.562 88.4956H476.438ZM466.218 99.9766C465.56 100.495 464.973 100.95 464.408 101.28C463.842 101.611 463.387 101.762 463 101.762V103.637C463.863 103.637 464.658 103.306 465.354 102.899C466.051 102.492 466.738 101.954 467.378 101.449L466.218 99.9766Z" fill="#84C8FF" fill-opacity="0.6"/>
<path d="M590.667 100.074L586 102.741L582 100.741L577.333 97.4073L574.667 92.7406L573.333 86.7406L576.667 81.4073H582L586 83.4073L588.667 82.0739L592.667 80.7406L596.667 83.4073L598.667 87.4073L597.333 93.4073L590.667 100.074Z" fill="#0099FF" fill-opacity="0.4"/>
<path d="M586 83.95L585.325 84.6002C585.501 84.7838 585.745 84.8875 586 84.8875C586.255 84.8875 586.499 84.7838 586.675 84.6002L586 83.95ZM582.783 99.9766C580.888 98.4831 578.816 97.0246 577.173 95.1739C575.562 93.3596 574.438 91.2423 574.438 88.4956H572.562C572.562 91.8276 573.951 94.3693 575.771 96.4189C577.559 98.4324 579.838 100.043 581.622 101.449L582.783 99.9766ZM574.438 88.4956C574.438 85.807 575.957 83.5524 578.03 82.6045C580.045 81.6836 582.752 81.9275 585.325 84.6002L586.675 83.2999C583.623 80.1286 580.08 79.606 577.251 80.8992C574.481 82.1654 572.562 85.1055 572.562 88.4956H574.438ZM581.622 101.449C582.262 101.954 582.949 102.492 583.646 102.899C584.342 103.306 585.137 103.637 586 103.637V101.762C585.613 101.762 585.158 101.611 584.592 101.28C584.027 100.95 583.44 100.495 582.783 99.9766L581.622 101.449ZM590.378 101.449C592.162 100.043 594.441 98.4324 596.229 96.4189C598.049 94.3693 599.438 91.8276 599.438 88.4956H597.562C597.562 91.2423 596.439 93.3596 594.827 95.1739C593.184 97.0246 591.112 98.4831 589.218 99.9766L590.378 101.449ZM599.438 88.4956C599.438 85.1055 597.519 82.1654 594.749 80.8992C591.92 79.606 588.377 80.1286 585.325 83.2999L586.675 84.6002C589.248 81.9275 591.955 81.6836 593.969 82.6045C596.043 83.5524 597.562 85.807 597.562 88.4956H599.438ZM589.218 99.9766C588.56 100.495 587.973 100.95 587.408 101.28C586.842 101.611 586.387 101.762 586 101.762V103.637C586.863 103.637 587.658 103.306 588.354 102.899C589.051 102.492 589.738 101.954 590.378 101.449L589.218 99.9766Z" fill="#84C8FF" fill-opacity="0.6"/>
<path d="M713.667 100.074L709 102.741L705 100.741L700.333 97.4073L697.667 92.7406L696.333 86.7406L699.667 81.4073H705L709 83.4073L711.667 82.0739L715.667 80.7406L719.667 83.4073L721.667 87.4073L720.333 93.4073L713.667 100.074Z" fill="#0099FF" fill-opacity="0.4"/>
<path d="M709 83.95L708.325 84.6002C708.501 84.7838 708.745 84.8875 709 84.8875C709.255 84.8875 709.499 84.7838 709.675 84.6002L709 83.95ZM705.783 99.9766C703.888 98.4831 701.816 97.0246 700.173 95.1739C698.562 93.3596 697.438 91.2423 697.438 88.4956H695.562C695.562 91.8276 696.951 94.3693 698.771 96.4189C700.559 98.4324 702.838 100.043 704.622 101.449L705.783 99.9766ZM697.438 88.4956C697.438 85.807 698.957 83.5524 701.03 82.6045C703.045 81.6836 705.752 81.9275 708.325 84.6002L709.675 83.2999C706.623 80.1286 703.08 79.606 700.251 80.8992C697.481 82.1654 695.562 85.1055 695.562 88.4956H697.438ZM704.622 101.449C705.262 101.954 705.949 102.492 706.646 102.899C707.342 103.306 708.137 103.637 709 103.637V101.762C708.613 101.762 708.158 101.611 707.592 101.28C707.027 100.95 706.44 100.495 705.783 99.9766L704.622 101.449ZM713.378 101.449C715.162 100.043 717.441 98.4324 719.229 96.4189C721.049 94.3693 722.438 91.8276 722.438 88.4956H720.562C720.562 91.2423 719.439 93.3596 717.827 95.1739C716.184 97.0246 714.112 98.4831 712.218 99.9766L713.378 101.449ZM722.438 88.4956C722.438 85.1055 720.519 82.1654 717.749 80.8992C714.92 79.606 711.377 80.1286 708.325 83.2999L709.675 84.6002C712.248 81.9275 714.955 81.6836 716.969 82.6045C719.043 83.5524 720.562 85.807 720.562 88.4956H722.438ZM712.218 99.9766C711.56 100.495 710.973 100.95 710.408 101.28C709.842 101.611 709.387 101.762 709 101.762V103.637C709.863 103.637 710.658 103.306 711.354 102.899C712.051 102.492 712.738 101.954 713.378 101.449L712.218 99.9766Z" fill="#84C8FF" fill-opacity="0.6"/>
<path d="M836.667 100.074L832 102.741L828 100.741L823.333 97.4073L820.667 92.7406L819.333 86.7406L822.667 81.4073H828L832 83.4073L834.667 82.0739L838.667 80.7406L842.667 83.4073L844.667 87.4073L843.333 93.4073L836.667 100.074Z" fill="#0099FF" fill-opacity="0.4"/>
<path d="M832 83.95L831.325 84.6002C831.501 84.7838 831.745 84.8875 832 84.8875C832.255 84.8875 832.499 84.7838 832.675 84.6002L832 83.95ZM828.783 99.9766C826.888 98.4831 824.816 97.0246 823.173 95.1739C821.562 93.3596 820.438 91.2423 820.438 88.4956H818.562C818.562 91.8276 819.951 94.3693 821.771 96.4189C823.559 98.4324 825.838 100.043 827.622 101.449L828.783 99.9766ZM820.438 88.4956C820.438 85.807 821.957 83.5524 824.03 82.6045C826.045 81.6836 828.752 81.9275 831.325 84.6002L832.675 83.2999C829.623 80.1286 826.08 79.606 823.251 80.8992C820.481 82.1654 818.562 85.1055 818.562 88.4956H820.438ZM827.622 101.449C828.262 101.954 828.949 102.492 829.646 102.899C830.342 103.306 831.137 103.637 832 103.637V101.762C831.613 101.762 831.158 101.611 830.592 101.28C830.027 100.95 829.44 100.495 828.783 99.9766L827.622 101.449ZM836.378 101.449C838.162 100.043 840.441 98.4324 842.229 96.4189C844.049 94.3693 845.438 91.8276 845.438 88.4956H843.562C843.562 91.2423 842.439 93.3596 840.827 95.1739C839.184 97.0246 837.112 98.4831 835.218 99.9766L836.378 101.449ZM845.438 88.4956C845.438 85.1055 843.519 82.1654 840.749 80.8992C837.92 79.606 834.377 80.1286 831.325 83.2999L832.675 84.6002C835.248 81.9275 837.955 81.6836 839.969 82.6045C842.043 83.5524 843.562 85.807 843.562 88.4956H845.438ZM835.218 99.9766C834.56 100.495 833.973 100.95 833.408 101.28C832.842 101.611 832.387 101.762 832 101.762V103.637C832.863 103.637 833.658 103.306 834.354 102.899C835.051 102.492 835.738 101.954 836.378 101.449L835.218 99.9766Z" fill="#84C8FF" fill-opacity="0.6"/>
<path d="M959.667 100.074L955 102.741L951 100.741L946.333 97.4073L943.667 92.7406L942.333 86.7406L945.667 81.4073H951L955 83.4073L957.667 82.0739L961.667 80.7406L965.667 83.4073L967.667 87.4073L966.333 93.4073L959.667 100.074Z" fill="#0099FF" fill-opacity="0.4"/>
<path d="M955 83.95L954.325 84.6002C954.501 84.7838 954.745 84.8875 955 84.8875C955.255 84.8875 955.499 84.7838 955.675 84.6002L955 83.95ZM951.783 99.9766C949.888 98.4831 947.816 97.0246 946.173 95.1739C944.562 93.3596 943.438 91.2423 943.438 88.4956H941.562C941.562 91.8276 942.951 94.3693 944.771 96.4189C946.559 98.4324 948.838 100.043 950.622 101.449L951.783 99.9766ZM943.438 88.4956C943.438 85.807 944.957 83.5524 947.03 82.6045C949.045 81.6836 951.752 81.9275 954.325 84.6002L955.675 83.2999C952.623 80.1286 949.08 79.606 946.251 80.8992C943.481 82.1654 941.562 85.1055 941.562 88.4956H943.438ZM950.622 101.449C951.262 101.954 951.949 102.492 952.646 102.899C953.342 103.306 954.137 103.637 955 103.637V101.762C954.613 101.762 954.158 101.611 953.592 101.28C953.027 100.95 952.44 100.495 951.783 99.9766L950.622 101.449ZM959.378 101.449C961.162 100.043 963.441 98.4324 965.229 96.4189C967.049 94.3693 968.438 91.8276 968.438 88.4956H966.562C966.562 91.2423 965.439 93.3596 963.827 95.1739C962.184 97.0246 960.112 98.4831 958.218 99.9766L959.378 101.449ZM968.438 88.4956C968.438 85.1055 966.519 82.1654 963.749 80.8992C960.92 79.606 957.377 80.1286 954.325 83.2999L955.675 84.6002C958.248 81.9275 960.955 81.6836 962.969 82.6045C965.043 83.5524 966.562 85.807 966.562 88.4956H968.438ZM958.218 99.9766C957.56 100.495 956.973 100.95 956.408 101.28C955.842 101.611 955.387 101.762 955 101.762V103.637C955.863 103.637 956.658 103.306 957.354 102.899C958.051 102.492 958.738 101.954 959.378 101.449L958.218 99.9766Z" fill="#84C8FF" fill-opacity="0.6"/>
<path d="M1082.67 100.074L1078 102.741L1074 100.741L1069.33 97.4073L1066.67 92.7406L1065.33 86.7406L1068.67 81.4073H1074L1078 83.4073L1080.67 82.0739L1084.67 80.7406L1088.67 83.4073L1090.67 87.4073L1089.33 93.4073L1082.67 100.074Z" fill="#0099FF" fill-opacity="0.4"/>
<path d="M1078 83.95L1077.32 84.6002C1077.5 84.7838 1077.75 84.8875 1078 84.8875C1078.25 84.8875 1078.5 84.7838 1078.68 84.6002L1078 83.95ZM1074.78 99.9766C1072.89 98.4831 1070.82 97.0246 1069.17 95.1739C1067.56 93.3596 1066.44 91.2423 1066.44 88.4956H1064.56C1064.56 91.8276 1065.95 94.3693 1067.77 96.4189C1069.56 98.4324 1071.84 100.043 1073.62 101.449L1074.78 99.9766ZM1066.44 88.4956C1066.44 85.807 1067.96 83.5524 1070.03 82.6045C1072.05 81.6836 1074.75 81.9275 1077.32 84.6002L1078.68 83.2999C1075.62 80.1286 1072.08 79.606 1069.25 80.8992C1066.48 82.1654 1064.56 85.1055 1064.56 88.4956H1066.44ZM1073.62 101.449C1074.26 101.954 1074.95 102.492 1075.65 102.899C1076.34 103.306 1077.14 103.637 1078 103.637V101.762C1077.61 101.762 1077.16 101.611 1076.59 101.28C1076.03 100.95 1075.44 100.495 1074.78 99.9766L1073.62 101.449ZM1082.38 101.449C1084.16 100.043 1086.44 98.4324 1088.23 96.4189C1090.05 94.3693 1091.44 91.8276 1091.44 88.4956H1089.56C1089.56 91.2423 1088.44 93.3596 1086.83 95.1739C1085.18 97.0246 1083.11 98.4831 1081.22 99.9766L1082.38 101.449ZM1091.44 88.4956C1091.44 85.1055 1089.52 82.1654 1086.75 80.8992C1083.92 79.606 1080.38 80.1286 1077.32 83.2999L1078.68 84.6002C1081.25 81.9275 1083.95 81.6836 1085.97 82.6045C1088.04 83.5524 1089.56 85.807 1089.56 88.4956H1091.44ZM1081.22 99.9766C1080.56 100.495 1079.97 100.95 1079.41 101.28C1078.84 101.611 1078.39 101.762 1078 101.762V103.637C1078.86 103.637 1079.66 103.306 1080.35 102.899C1081.05 102.492 1081.74 101.954 1082.38 101.449L1081.22 99.9766Z" fill="#84C8FF" fill-opacity="0.6"/>
<path d="M1205.67 100.074L1201 102.741L1197 100.741L1192.33 97.4073L1189.67 92.7406L1188.33 86.7406L1191.67 81.4073H1197L1201 83.4073L1203.67 82.0739L1207.67 80.7406L1211.67 83.4073L1213.67 87.4073L1212.33 93.4073L1205.67 100.074Z" fill="#0099FF" fill-opacity="0.4"/>
<path d="M1201 83.95L1200.32 84.6002C1200.5 84.7838 1200.75 84.8875 1201 84.8875C1201.25 84.8875 1201.5 84.7838 1201.68 84.6002L1201 83.95ZM1197.78 99.9766C1195.89 98.4831 1193.82 97.0246 1192.17 95.1739C1190.56 93.3596 1189.44 91.2423 1189.44 88.4956H1187.56C1187.56 91.8276 1188.95 94.3693 1190.77 96.4189C1192.56 98.4324 1194.84 100.043 1196.62 101.449L1197.78 99.9766ZM1189.44 88.4956C1189.44 85.807 1190.96 83.5524 1193.03 82.6045C1195.05 81.6836 1197.75 81.9275 1200.32 84.6002L1201.68 83.2999C1198.62 80.1286 1195.08 79.606 1192.25 80.8992C1189.48 82.1654 1187.56 85.1055 1187.56 88.4956H1189.44ZM1196.62 101.449C1197.26 101.954 1197.95 102.492 1198.65 102.899C1199.34 103.306 1200.14 103.637 1201 103.637V101.762C1200.61 101.762 1200.16 101.611 1199.59 101.28C1199.03 100.95 1198.44 100.495 1197.78 99.9766L1196.62 101.449ZM1205.38 101.449C1207.16 100.043 1209.44 98.4324 1211.23 96.4189C1213.05 94.3693 1214.44 91.8276 1214.44 88.4956H1212.56C1212.56 91.2423 1211.44 93.3596 1209.83 95.1739C1208.18 97.0246 1206.11 98.4831 1204.22 99.9766L1205.38 101.449ZM1214.44 88.4956C1214.44 85.1055 1212.52 82.1654 1209.75 80.8992C1206.92 79.606 1203.38 80.1286 1200.32 83.2999L1201.68 84.6002C1204.25 81.9275 1206.95 81.6836 1208.97 82.6045C1211.04 83.5524 1212.56 85.807 1212.56 88.4956H1214.44ZM1204.22 99.9766C1203.56 100.495 1202.97 100.95 1202.41 101.28C1201.84 101.611 1201.39 101.762 1201 101.762V103.637C1201.86 103.637 1202.66 103.306 1203.35 102.899C1204.05 102.492 1204.74 101.954 1205.38 101.449L1204.22 99.9766Z" fill="#84C8FF" fill-opacity="0.6"/>
<path d="M1328.67 100.074L1324 102.741L1320 100.741L1315.33 97.4073L1312.67 92.7406L1311.33 86.7406L1314.67 81.4073H1320L1324 83.4073L1326.67 82.0739L1330.67 80.7406L1334.67 83.4073L1336.67 87.4073L1335.33 93.4073L1328.67 100.074Z" fill="#0099FF" fill-opacity="0.4"/>
<path d="M1324 83.95L1323.32 84.6002C1323.5 84.7838 1323.75 84.8875 1324 84.8875C1324.25 84.8875 1324.5 84.7838 1324.68 84.6002L1324 83.95ZM1320.78 99.9766C1318.89 98.4831 1316.82 97.0246 1315.17 95.1739C1313.56 93.3596 1312.44 91.2423 1312.44 88.4956H1310.56C1310.56 91.8276 1311.95 94.3693 1313.77 96.4189C1315.56 98.4324 1317.84 100.043 1319.62 101.449L1320.78 99.9766ZM1312.44 88.4956C1312.44 85.807 1313.96 83.5524 1316.03 82.6045C1318.05 81.6836 1320.75 81.9275 1323.32 84.6002L1324.68 83.2999C1321.62 80.1286 1318.08 79.606 1315.25 80.8992C1312.48 82.1654 1310.56 85.1055 1310.56 88.4956H1312.44ZM1319.62 101.449C1320.26 101.954 1320.95 102.492 1321.65 102.899C1322.34 103.306 1323.14 103.637 1324 103.637V101.762C1323.61 101.762 1323.16 101.611 1322.59 101.28C1322.03 100.95 1321.44 100.495 1320.78 99.9766L1319.62 101.449ZM1328.38 101.449C1330.16 100.043 1332.44 98.4324 1334.23 96.4189C1336.05 94.3693 1337.44 91.8276 1337.44 88.4956H1335.56C1335.56 91.2423 1334.44 93.3596 1332.83 95.1739C1331.18 97.0246 1329.11 98.4831 1327.22 99.9766L1328.38 101.449ZM1337.44 88.4956C1337.44 85.1055 1335.52 82.1654 1332.75 80.8992C1329.92 79.606 1326.38 80.1286 1323.32 83.2999L1324.68 84.6002C1327.25 81.9275 1329.95 81.6836 1331.97 82.6045C1334.04 83.5524 1335.56 85.807 1335.56 88.4956H1337.44ZM1327.22 99.9766C1326.56 100.495 1325.97 100.95 1325.41 101.28C1324.84 101.611 1324.39 101.762 1324 101.762V103.637C1324.86 103.637 1325.66 103.306 1326.35 102.899C1327.05 102.492 1327.74 101.954 1328.38 101.449L1327.22 99.9766Z" fill="#84C8FF" fill-opacity="0.6"/>
<path d="M1451.67 100.074L1447 102.741L1443 100.741L1438.33 97.4073L1435.67 92.7406L1434.33 86.7406L1437.67 81.4073H1443L1447 83.4073L1449.67 82.0739L1453.67 80.7406L1457.67 83.4073L1459.67 87.4073L1458.33 93.4073L1451.67 100.074Z" fill="#0099FF" fill-opacity="0.4"/>
<path d="M1447 83.95L1446.32 84.6002C1446.5 84.7838 1446.75 84.8875 1447 84.8875C1447.25 84.8875 1447.5 84.7838 1447.68 84.6002L1447 83.95ZM1443.78 99.9766C1441.89 98.4831 1439.82 97.0246 1438.17 95.1739C1436.56 93.3596 1435.44 91.2423 1435.44 88.4956H1433.56C1433.56 91.8276 1434.95 94.3693 1436.77 96.4189C1438.56 98.4324 1440.84 100.043 1442.62 101.449L1443.78 99.9766ZM1435.44 88.4956C1435.44 85.807 1436.96 83.5524 1439.03 82.6045C1441.05 81.6836 1443.75 81.9275 1446.32 84.6002L1447.68 83.2999C1444.62 80.1286 1441.08 79.606 1438.25 80.8992C1435.48 82.1654 1433.56 85.1055 1433.56 88.4956H1435.44ZM1442.62 101.449C1443.26 101.954 1443.95 102.492 1444.65 102.899C1445.34 103.306 1446.14 103.637 1447 103.637V101.762C1446.61 101.762 1446.16 101.611 1445.59 101.28C1445.03 100.95 1444.44 100.495 1443.78 99.9766L1442.62 101.449ZM1451.38 101.449C1453.16 100.043 1455.44 98.4324 1457.23 96.4189C1459.05 94.3693 1460.44 91.8276 1460.44 88.4956H1458.56C1458.56 91.2423 1457.44 93.3596 1455.83 95.1739C1454.18 97.0246 1452.11 98.4831 1450.22 99.9766L1451.38 101.449ZM1460.44 88.4956C1460.44 85.1055 1458.52 82.1654 1455.75 80.8992C1452.92 79.606 1449.38 80.1286 1446.32 83.2999L1447.68 84.6002C1450.25 81.9275 1452.95 81.6836 1454.97 82.6045C1457.04 83.5524 1458.56 85.807 1458.56 88.4956H1460.44ZM1450.22 99.9766C1449.56 100.495 1448.97 100.95 1448.41 101.28C1447.84 101.611 1447.39 101.762 1447 101.762V103.637C1447.86 103.637 1448.66 103.306 1449.35 102.899C1450.05 102.492 1450.74 101.954 1451.38 101.449L1450.22 99.9766Z" fill="#84C8FF" fill-opacity="0.6"/>
<path d="M1574.67 100.074L1570 102.741L1566 100.741L1561.33 97.4073L1558.67 92.7406L1557.33 86.7406L1560.67 81.4073H1566L1570 83.4073L1572.67 82.0739L1576.67 80.7406L1580.67 83.4073L1582.67 87.4073L1581.33 93.4073L1574.67 100.074Z" fill="#0099FF" fill-opacity="0.4"/>
<path d="M1570 83.95L1569.32 84.6002C1569.5 84.7838 1569.75 84.8875 1570 84.8875C1570.25 84.8875 1570.5 84.7838 1570.68 84.6002L1570 83.95ZM1566.78 99.9766C1564.89 98.4831 1562.82 97.0246 1561.17 95.1739C1559.56 93.3596 1558.44 91.2423 1558.44 88.4956H1556.56C1556.56 91.8276 1557.95 94.3693 1559.77 96.4189C1561.56 98.4324 1563.84 100.043 1565.62 101.449L1566.78 99.9766ZM1558.44 88.4956C1558.44 85.807 1559.96 83.5524 1562.03 82.6045C1564.05 81.6836 1566.75 81.9275 1569.32 84.6002L1570.68 83.2999C1567.62 80.1286 1564.08 79.606 1561.25 80.8992C1558.48 82.1654 1556.56 85.1055 1556.56 88.4956H1558.44ZM1565.62 101.449C1566.26 101.954 1566.95 102.492 1567.65 102.899C1568.34 103.306 1569.14 103.637 1570 103.637V101.762C1569.61 101.762 1569.16 101.611 1568.59 101.28C1568.03 100.95 1567.44 100.495 1566.78 99.9766L1565.62 101.449ZM1574.38 101.449C1576.16 100.043 1578.44 98.4324 1580.23 96.4189C1582.05 94.3693 1583.44 91.8276 1583.44 88.4956H1581.56C1581.56 91.2423 1580.44 93.3596 1578.83 95.1739C1577.18 97.0246 1575.11 98.4831 1573.22 99.9766L1574.38 101.449ZM1583.44 88.4956C1583.44 85.1055 1581.52 82.1654 1578.75 80.8992C1575.92 79.606 1572.38 80.1286 1569.32 83.2999L1570.68 84.6002C1573.25 81.9275 1575.95 81.6836 1577.97 82.6045C1580.04 83.5524 1581.56 85.807 1581.56 88.4956H1583.44ZM1573.22 99.9766C1572.56 100.495 1571.97 100.95 1571.41 101.28C1570.84 101.611 1570.39 101.762 1570 101.762V103.637C1570.86 103.637 1571.66 103.306 1572.35 102.899C1573.05 102.492 1573.74 101.954 1574.38 101.449L1573.22 99.9766Z" fill="#84C8FF" fill-opacity="0.6"/>
<path d="M98.6666 231.074L93.9999 233.741L89.9999 231.741L85.3333 228.407L82.6666 223.741L81.3333 217.741L84.6666 212.407H89.9999L93.9999 214.407L96.6666 213.074L100.667 211.741L104.667 214.407L106.667 218.407L105.333 224.407L98.6666 231.074Z" fill="#0099FF" fill-opacity="0.4"/>
<path d="M94 214.95L93.3245 215.6C93.5013 215.784 93.7451 215.888 94 215.888C94.2549 215.888 94.4987 215.784 94.6755 215.6L94 214.95ZM90.7826 230.977C88.888 229.483 86.8163 228.025 85.1729 226.174C83.5615 224.36 82.4375 222.242 82.4375 219.496H80.5625C80.5625 222.828 81.9506 225.369 83.7709 227.419C85.559 229.432 87.8385 231.043 89.6218 232.449L90.7826 230.977ZM82.4375 219.496C82.4375 216.807 83.9567 214.552 86.0304 213.604C88.0451 212.684 90.7521 212.927 93.3245 215.6L94.6755 214.3C91.6231 211.129 88.0801 210.606 85.2509 211.899C82.4809 213.165 80.5625 216.106 80.5625 219.496H82.4375ZM89.6218 232.449C90.2621 232.954 90.9494 233.492 91.646 233.899C92.3424 234.306 93.137 234.637 94 234.637V232.762C93.613 232.762 93.1576 232.611 92.592 232.28C92.0266 231.95 91.4401 231.495 90.7826 230.977L89.6218 232.449ZM98.3783 232.449C100.162 231.043 102.441 229.432 104.229 227.419C106.049 225.369 107.438 222.828 107.438 219.496H105.562C105.562 222.242 104.439 224.36 102.827 226.174C101.184 228.025 99.112 229.483 97.2175 230.977L98.3783 232.449ZM107.438 219.496C107.438 216.106 105.519 213.165 102.749 211.899C99.9199 210.606 96.3769 211.129 93.3245 214.3L94.6755 215.6C97.2479 212.927 99.9549 212.684 101.969 213.604C104.043 214.552 105.562 216.807 105.562 219.496H107.438ZM97.2175 230.977C96.5599 231.495 95.9734 231.95 95.408 232.28C94.8424 232.611 94.387 232.762 94 232.762V234.637C94.863 234.637 95.6576 234.306 96.354 233.899C97.0506 233.492 97.7379 232.954 98.3783 232.449L97.2175 230.977Z" fill="#84C8FF" fill-opacity="0.6"/>
<path d="M221.667 231.074L217 233.741L213 231.741L208.333 228.407L205.667 223.741L204.333 217.741L207.667 212.407H213L217 214.407L219.667 213.074L223.667 211.741L227.667 214.407L229.667 218.407L228.333 224.407L221.667 231.074Z" fill="#0099FF" fill-opacity="0.4"/>
<path d="M217 214.95L216.325 215.6C216.501 215.784 216.745 215.888 217 215.888C217.255 215.888 217.499 215.784 217.675 215.6L217 214.95ZM213.783 230.977C211.888 229.483 209.816 228.025 208.173 226.174C206.562 224.36 205.438 222.242 205.438 219.496H203.562C203.562 222.828 204.951 225.369 206.771 227.419C208.559 229.432 210.838 231.043 212.622 232.449L213.783 230.977ZM205.438 219.496C205.438 216.807 206.957 214.552 209.03 213.604C211.045 212.684 213.752 212.927 216.325 215.6L217.675 214.3C214.623 211.129 211.08 210.606 208.251 211.899C205.481 213.165 203.562 216.106 203.562 219.496H205.438ZM212.622 232.449C213.262 232.954 213.949 233.492 214.646 233.899C215.342 234.306 216.137 234.637 217 234.637V232.762C216.613 232.762 216.158 232.611 215.592 232.28C215.027 231.95 214.44 231.495 213.783 230.977L212.622 232.449ZM221.378 232.449C223.162 231.043 225.441 229.432 227.229 227.419C229.049 225.369 230.438 222.828 230.438 219.496H228.562C228.562 222.242 227.439 224.36 225.827 226.174C224.184 228.025 222.112 229.483 220.218 230.977L221.378 232.449ZM230.438 219.496C230.438 216.106 228.519 213.165 225.749 211.899C222.92 210.606 219.377 211.129 216.325 214.3L217.675 215.6C220.248 212.927 222.955 212.684 224.969 213.604C227.043 214.552 228.562 216.807 228.562 219.496H230.438ZM220.218 230.977C219.56 231.495 218.973 231.95 218.408 232.28C217.842 232.611 217.387 232.762 217 232.762V234.637C217.863 234.637 218.658 234.306 219.354 233.899C220.051 233.492 220.738 232.954 221.378 232.449L220.218 230.977Z" fill="#84C8FF" fill-opacity="0.6"/>
<path d="M344.667 231.074L340 233.741L336 231.741L331.333 228.407L328.667 223.741L327.333 217.741L330.667 212.407H336L340 214.407L342.667 213.074L346.667 211.741L350.667 214.407L352.667 218.407L351.333 224.407L344.667 231.074Z" fill="#0099FF" fill-opacity="0.4"/>
<path d="M340 214.95L339.325 215.6C339.501 215.784 339.745 215.888 340 215.888C340.255 215.888 340.499 215.784 340.675 215.6L340 214.95ZM336.783 230.977C334.888 229.483 332.816 228.025 331.173 226.174C329.562 224.36 328.438 222.242 328.438 219.496H326.562C326.562 222.828 327.951 225.369 329.771 227.419C331.559 229.432 333.838 231.043 335.622 232.449L336.783 230.977ZM328.438 219.496C328.438 216.807 329.957 214.552 332.03 213.604C334.045 212.684 336.752 212.927 339.325 215.6L340.675 214.3C337.623 211.129 334.08 210.606 331.251 211.899C328.481 213.165 326.562 216.106 326.562 219.496H328.438ZM335.622 232.449C336.262 232.954 336.949 233.492 337.646 233.899C338.342 234.306 339.137 234.637 340 234.637V232.762C339.613 232.762 339.158 232.611 338.592 232.28C338.027 231.95 337.44 231.495 336.783 230.977L335.622 232.449ZM344.378 232.449C346.162 231.043 348.441 229.432 350.229 227.419C352.049 225.369 353.438 222.828 353.438 219.496H351.562C351.562 222.242 350.439 224.36 348.827 226.174C347.184 228.025 345.112 229.483 343.218 230.977L344.378 232.449ZM353.438 219.496C353.438 216.106 351.519 213.165 348.749 211.899C345.92 210.606 342.377 211.129 339.325 214.3L340.675 215.6C343.248 212.927 345.955 212.684 347.969 213.604C350.043 214.552 351.562 216.807 351.562 219.496H353.438ZM343.218 230.977C342.56 231.495 341.973 231.95 341.408 232.28C340.842 232.611 340.387 232.762 340 232.762V234.637C340.863 234.637 341.658 234.306 342.354 233.899C343.051 233.492 343.738 232.954 344.378 232.449L343.218 230.977Z" fill="#84C8FF" fill-opacity="0.6"/>
<path d="M467.667 231.074L463 233.741L459 231.741L454.333 228.407L451.667 223.741L450.333 217.741L453.667 212.407H459L463 214.407L465.667 213.074L469.667 211.741L473.667 214.407L475.667 218.407L474.333 224.407L467.667 231.074Z" fill="#0099FF" fill-opacity="0.4"/>
<path d="M463 214.95L462.325 215.6C462.501 215.784 462.745 215.888 463 215.888C463.255 215.888 463.499 215.784 463.675 215.6L463 214.95ZM459.783 230.977C457.888 229.483 455.816 228.025 454.173 226.174C452.562 224.36 451.438 222.242 451.438 219.496H449.562C449.562 222.828 450.951 225.369 452.771 227.419C454.559 229.432 456.838 231.043 458.622 232.449L459.783 230.977ZM451.438 219.496C451.438 216.807 452.957 214.552 455.03 213.604C457.045 212.684 459.752 212.927 462.325 215.6L463.675 214.3C460.623 211.129 457.08 210.606 454.251 211.899C451.481 213.165 449.562 216.106 449.562 219.496H451.438ZM458.622 232.449C459.262 232.954 459.949 233.492 460.646 233.899C461.342 234.306 462.137 234.637 463 234.637V232.762C462.613 232.762 462.158 232.611 461.592 232.28C461.027 231.95 460.44 231.495 459.783 230.977L458.622 232.449ZM467.378 232.449C469.162 231.043 471.441 229.432 473.229 227.419C475.049 225.369 476.438 222.828 476.438 219.496H474.562C474.562 222.242 473.439 224.36 471.827 226.174C470.184 228.025 468.112 229.483 466.218 230.977L467.378 232.449ZM476.438 219.496C476.438 216.106 474.519 213.165 471.749 211.899C468.92 210.606 465.377 211.129 462.325 214.3L463.675 215.6C466.248 212.927 468.955 212.684 470.969 213.604C473.043 214.552 474.562 216.807 474.562 219.496H476.438ZM466.218 230.977C465.56 231.495 464.973 231.95 464.408 232.28C463.842 232.611 463.387 232.762 463 232.762V234.637C463.863 234.637 464.658 234.306 465.354 233.899C466.051 233.492 466.738 232.954 467.378 232.449L466.218 230.977Z" fill="#84C8FF" fill-opacity="0.6"/>
<path d="M590.667 231.074L586 233.741L582 231.741L577.333 228.407L574.667 223.741L573.333 217.741L576.667 212.407H582L586 214.407L588.667 213.074L592.667 211.741L596.667 214.407L598.667 218.407L597.333 224.407L590.667 231.074Z" fill="#0099FF" fill-opacity="0.4"/>
<path d="M586 214.95L585.325 215.6C585.501 215.784 585.745 215.888 586 215.888C586.255 215.888 586.499 215.784 586.675 215.6L586 214.95ZM582.783 230.977C580.888 229.483 578.816 228.025 577.173 226.174C575.562 224.36 574.438 222.242 574.438 219.496H572.562C572.562 222.828 573.951 225.369 575.771 227.419C577.559 229.432 579.838 231.043 581.622 232.449L582.783 230.977ZM574.438 219.496C574.438 216.807 575.957 214.552 578.03 213.604C580.045 212.684 582.752 212.927 585.325 215.6L586.675 214.3C583.623 211.129 580.08 210.606 577.251 211.899C574.481 213.165 572.562 216.106 572.562 219.496H574.438ZM581.622 232.449C582.262 232.954 582.949 233.492 583.646 233.899C584.342 234.306 585.137 234.637 586 234.637V232.762C585.613 232.762 585.158 232.611 584.592 232.28C584.027 231.95 583.44 231.495 582.783 230.977L581.622 232.449ZM590.378 232.449C592.162 231.043 594.441 229.432 596.229 227.419C598.049 225.369 599.438 222.828 599.438 219.496H597.562C597.562 222.242 596.439 224.36 594.827 226.174C593.184 228.025 591.112 229.483 589.218 230.977L590.378 232.449ZM599.438 219.496C599.438 216.106 597.519 213.165 594.749 211.899C591.92 210.606 588.377 211.129 585.325 214.3L586.675 215.6C589.248 212.927 591.955 212.684 593.969 213.604C596.043 214.552 597.562 216.807 597.562 219.496H599.438ZM589.218 230.977C588.56 231.495 587.973 231.95 587.408 232.28C586.842 232.611 586.387 232.762 586 232.762V234.637C586.863 234.637 587.658 234.306 588.354 233.899C589.051 233.492 589.738 232.954 590.378 232.449L589.218 230.977Z" fill="#84C8FF" fill-opacity="0.6"/>
<path d="M713.667 231.074L709 233.741L705 231.741L700.333 228.407L697.667 223.741L696.333 217.741L699.667 212.407H705L709 214.407L711.667 213.074L715.667 211.741L719.667 214.407L721.667 218.407L720.333 224.407L713.667 231.074Z" fill="#0099FF" fill-opacity="0.4"/>
<path d="M709 214.95L708.325 215.6C708.501 215.784 708.745 215.888 709 215.888C709.255 215.888 709.499 215.784 709.675 215.6L709 214.95ZM705.783 230.977C703.888 229.483 701.816 228.025 700.173 226.174C698.562 224.36 697.438 222.242 697.438 219.496H695.562C695.562 222.828 696.951 225.369 698.771 227.419C700.559 229.432 702.838 231.043 704.622 232.449L705.783 230.977ZM697.438 219.496C697.438 216.807 698.957 214.552 701.03 213.604C703.045 212.684 705.752 212.927 708.325 215.6L709.675 214.3C706.623 211.129 703.08 210.606 700.251 211.899C697.481 213.165 695.562 216.106 695.562 219.496H697.438ZM704.622 232.449C705.262 232.954 705.949 233.492 706.646 233.899C707.342 234.306 708.137 234.637 709 234.637V232.762C708.613 232.762 708.158 232.611 707.592 232.28C707.027 231.95 706.44 231.495 705.783 230.977L704.622 232.449ZM713.378 232.449C715.162 231.043 717.441 229.432 719.229 227.419C721.049 225.369 722.438 222.828 722.438 219.496H720.562C720.562 222.242 719.439 224.36 717.827 226.174C716.184 228.025 714.112 229.483 712.218 230.977L713.378 232.449ZM722.438 219.496C722.438 216.106 720.519 213.165 717.749 211.899C714.92 210.606 711.377 211.129 708.325 214.3L709.675 215.6C712.248 212.927 714.955 212.684 716.969 213.604C719.043 214.552 720.562 216.807 720.562 219.496H722.438ZM712.218 230.977C711.56 231.495 710.973 231.95 710.408 232.28C709.842 232.611 709.387 232.762 709 232.762V234.637C709.863 234.637 710.658 234.306 711.354 233.899C712.051 233.492 712.738 232.954 713.378 232.449L712.218 230.977Z" fill="#84C8FF" fill-opacity="0.6"/>
<path d="M836.667 231.074L832 233.741L828 231.741L823.333 228.407L820.667 223.741L819.333 217.741L822.667 212.407H828L832 214.407L834.667 213.074L838.667 211.741L842.667 214.407L844.667 218.407L843.333 224.407L836.667 231.074Z" fill="#0099FF" fill-opacity="0.4"/>
<path d="M832 214.95L831.325 215.6C831.501 215.784 831.745 215.888 832 215.888C832.255 215.888 832.499 215.784 832.675 215.6L832 214.95ZM828.783 230.977C826.888 229.483 824.816 228.025 823.173 226.174C821.562 224.36 820.438 222.242 820.438 219.496H818.562C818.562 222.828 819.951 225.369 821.771 227.419C823.559 229.432 825.838 231.043 827.622 232.449L828.783 230.977ZM820.438 219.496C820.438 216.807 821.957 214.552 824.03 213.604C826.045 212.684 828.752 212.927 831.325 215.6L832.675 214.3C829.623 211.129 826.08 210.606 823.251 211.899C820.481 213.165 818.562 216.106 818.562 219.496H820.438ZM827.622 232.449C828.262 232.954 828.949 233.492 829.646 233.899C830.342 234.306 831.137 234.637 832 234.637V232.762C831.613 232.762 831.158 232.611 830.592 232.28C830.027 231.95 829.44 231.495 828.783 230.977L827.622 232.449ZM836.378 232.449C838.162 231.043 840.441 229.432 842.229 227.419C844.049 225.369 845.438 222.828 845.438 219.496H843.562C843.562 222.242 842.439 224.36 840.827 226.174C839.184 228.025 837.112 229.483 835.218 230.977L836.378 232.449ZM845.438 219.496C845.438 216.106 843.519 213.165 840.749 211.899C837.92 210.606 834.377 211.129 831.325 214.3L832.675 215.6C835.248 212.927 837.955 212.684 839.969 213.604C842.043 214.552 843.562 216.807 843.562 219.496H845.438ZM835.218 230.977C834.56 231.495 833.973 231.95 833.408 232.28C832.842 232.611 832.387 232.762 832 232.762V234.637C832.863 234.637 833.658 234.306 834.354 233.899C835.051 233.492 835.738 232.954 836.378 232.449L835.218 230.977Z" fill="#84C8FF" fill-opacity="0.6"/>
<path d="M959.667 231.074L955 233.741L951 231.741L946.333 228.407L943.667 223.741L942.333 217.741L945.667 212.407H951L955 214.407L957.667 213.074L961.667 211.741L965.667 214.407L967.667 218.407L966.333 224.407L959.667 231.074Z" fill="#0099FF" fill-opacity="0.4"/>
<path d="M955 214.95L954.325 215.6C954.501 215.784 954.745 215.888 955 215.888C955.255 215.888 955.499 215.784 955.675 215.6L955 214.95ZM951.783 230.977C949.888 229.483 947.816 228.025 946.173 226.174C944.562 224.36 943.438 222.242 943.438 219.496H941.562C941.562 222.828 942.951 225.369 944.771 227.419C946.559 229.432 948.838 231.043 950.622 232.449L951.783 230.977ZM943.438 219.496C943.438 216.807 944.957 214.552 947.03 213.604C949.045 212.684 951.752 212.927 954.325 215.6L955.675 214.3C952.623 211.129 949.08 210.606 946.251 211.899C943.481 213.165 941.562 216.106 941.562 219.496H943.438ZM950.622 232.449C951.262 232.954 951.949 233.492 952.646 233.899C953.342 234.306 954.137 234.637 955 234.637V232.762C954.613 232.762 954.158 232.611 953.592 232.28C953.027 231.95 952.44 231.495 951.783 230.977L950.622 232.449ZM959.378 232.449C961.162 231.043 963.441 229.432 965.229 227.419C967.049 225.369 968.438 222.828 968.438 219.496H966.562C966.562 222.242 965.439 224.36 963.827 226.174C962.184 228.025 960.112 229.483 958.218 230.977L959.378 232.449ZM968.438 219.496C968.438 216.106 966.519 213.165 963.749 211.899C960.92 210.606 957.377 211.129 954.325 214.3L955.675 215.6C958.248 212.927 960.955 212.684 962.969 213.604C965.043 214.552 966.562 216.807 966.562 219.496H968.438ZM958.218 230.977C957.56 231.495 956.973 231.95 956.408 232.28C955.842 232.611 955.387 232.762 955 232.762V234.637C955.863 234.637 956.658 234.306 957.354 233.899C958.051 233.492 958.738 232.954 959.378 232.449L958.218 230.977Z" fill="#84C8FF" fill-opacity="0.6"/>
<path d="M1082.67 231.074L1078 233.741L1074 231.741L1069.33 228.407L1066.67 223.741L1065.33 217.741L1068.67 212.407H1074L1078 214.407L1080.67 213.074L1084.67 211.741L1088.67 214.407L1090.67 218.407L1089.33 224.407L1082.67 231.074Z" fill="#0099FF" fill-opacity="0.4"/>
<path d="M1078 214.95L1077.32 215.6C1077.5 215.784 1077.75 215.888 1078 215.888C1078.25 215.888 1078.5 215.784 1078.68 215.6L1078 214.95ZM1074.78 230.977C1072.89 229.483 1070.82 228.025 1069.17 226.174C1067.56 224.36 1066.44 222.242 1066.44 219.496H1064.56C1064.56 222.828 1065.95 225.369 1067.77 227.419C1069.56 229.432 1071.84 231.043 1073.62 232.449L1074.78 230.977ZM1066.44 219.496C1066.44 216.807 1067.96 214.552 1070.03 213.604C1072.05 212.684 1074.75 212.927 1077.32 215.6L1078.68 214.3C1075.62 211.129 1072.08 210.606 1069.25 211.899C1066.48 213.165 1064.56 216.106 1064.56 219.496H1066.44ZM1073.62 232.449C1074.26 232.954 1074.95 233.492 1075.65 233.899C1076.34 234.306 1077.14 234.637 1078 234.637V232.762C1077.61 232.762 1077.16 232.611 1076.59 232.28C1076.03 231.95 1075.44 231.495 1074.78 230.977L1073.62 232.449ZM1082.38 232.449C1084.16 231.043 1086.44 229.432 1088.23 227.419C1090.05 225.369 1091.44 222.828 1091.44 219.496H1089.56C1089.56 222.242 1088.44 224.36 1086.83 226.174C1085.18 228.025 1083.11 229.483 1081.22 230.977L1082.38 232.449ZM1091.44 219.496C1091.44 216.106 1089.52 213.165 1086.75 211.899C1083.92 210.606 1080.38 211.129 1077.32 214.3L1078.68 215.6C1081.25 212.927 1083.95 212.684 1085.97 213.604C1088.04 214.552 1089.56 216.807 1089.56 219.496H1091.44ZM1081.22 230.977C1080.56 231.495 1079.97 231.95 1079.41 232.28C1078.84 232.611 1078.39 232.762 1078 232.762V234.637C1078.86 234.637 1079.66 234.306 1080.35 233.899C1081.05 233.492 1081.74 232.954 1082.38 232.449L1081.22 230.977Z" fill="#84C8FF" fill-opacity="0.6"/>
<path d="M1205.67 231.074L1201 233.741L1197 231.741L1192.33 228.407L1189.67 223.741L1188.33 217.741L1191.67 212.407H1197L1201 214.407L1203.67 213.074L1207.67 211.741L1211.67 214.407L1213.67 218.407L1212.33 224.407L1205.67 231.074Z" fill="#0099FF" fill-opacity="0.4"/>
<path d="M1201 214.95L1200.32 215.6C1200.5 215.784 1200.75 215.888 1201 215.888C1201.25 215.888 1201.5 215.784 1201.68 215.6L1201 214.95ZM1197.78 230.977C1195.89 229.483 1193.82 228.025 1192.17 226.174C1190.56 224.36 1189.44 222.242 1189.44 219.496H1187.56C1187.56 222.828 1188.95 225.369 1190.77 227.419C1192.56 229.432 1194.84 231.043 1196.62 232.449L1197.78 230.977ZM1189.44 219.496C1189.44 216.807 1190.96 214.552 1193.03 213.604C1195.05 212.684 1197.75 212.927 1200.32 215.6L1201.68 214.3C1198.62 211.129 1195.08 210.606 1192.25 211.899C1189.48 213.165 1187.56 216.106 1187.56 219.496H1189.44ZM1196.62 232.449C1197.26 232.954 1197.95 233.492 1198.65 233.899C1199.34 234.306 1200.14 234.637 1201 234.637V232.762C1200.61 232.762 1200.16 232.611 1199.59 232.28C1199.03 231.95 1198.44 231.495 1197.78 230.977L1196.62 232.449ZM1205.38 232.449C1207.16 231.043 1209.44 229.432 1211.23 227.419C1213.05 225.369 1214.44 222.828 1214.44 219.496H1212.56C1212.56 222.242 1211.44 224.36 1209.83 226.174C1208.18 228.025 1206.11 229.483 1204.22 230.977L1205.38 232.449ZM1214.44 219.496C1214.44 216.106 1212.52 213.165 1209.75 211.899C1206.92 210.606 1203.38 211.129 1200.32 214.3L1201.68 215.6C1204.25 212.927 1206.95 212.684 1208.97 213.604C1211.04 214.552 1212.56 216.807 1212.56 219.496H1214.44ZM1204.22 230.977C1203.56 231.495 1202.97 231.95 1202.41 232.28C1201.84 232.611 1201.39 232.762 1201 232.762V234.637C1201.86 234.637 1202.66 234.306 1203.35 233.899C1204.05 233.492 1204.74 232.954 1205.38 232.449L1204.22 230.977Z" fill="#84C8FF" fill-opacity="0.6"/>
<path d="M1328.67 231.074L1324 233.741L1320 231.741L1315.33 228.407L1312.67 223.741L1311.33 217.741L1314.67 212.407H1320L1324 214.407L1326.67 213.074L1330.67 211.741L1334.67 214.407L1336.67 218.407L1335.33 224.407L1328.67 231.074Z" fill="#0099FF" fill-opacity="0.4"/>
<path d="M1324 214.95L1323.32 215.6C1323.5 215.784 1323.75 215.888 1324 215.888C1324.25 215.888 1324.5 215.784 1324.68 215.6L1324 214.95ZM1320.78 230.977C1318.89 229.483 1316.82 228.025 1315.17 226.174C1313.56 224.36 1312.44 222.242 1312.44 219.496H1310.56C1310.56 222.828 1311.95 225.369 1313.77 227.419C1315.56 229.432 1317.84 231.043 1319.62 232.449L1320.78 230.977ZM1312.44 219.496C1312.44 216.807 1313.96 214.552 1316.03 213.604C1318.05 212.684 1320.75 212.927 1323.32 215.6L1324.68 214.3C1321.62 211.129 1318.08 210.606 1315.25 211.899C1312.48 213.165 1310.56 216.106 1310.56 219.496H1312.44ZM1319.62 232.449C1320.26 232.954 1320.95 233.492 1321.65 233.899C1322.34 234.306 1323.14 234.637 1324 234.637V232.762C1323.61 232.762 1323.16 232.611 1322.59 232.28C1322.03 231.95 1321.44 231.495 1320.78 230.977L1319.62 232.449ZM1328.38 232.449C1330.16 231.043 1332.44 229.432 1334.23 227.419C1336.05 225.369 1337.44 222.828 1337.44 219.496H1335.56C1335.56 222.242 1334.44 224.36 1332.83 226.174C1331.18 228.025 1329.11 229.483 1327.22 230.977L1328.38 232.449ZM1337.44 219.496C1337.44 216.106 1335.52 213.165 1332.75 211.899C1329.92 210.606 1326.38 211.129 1323.32 214.3L1324.68 215.6C1327.25 212.927 1329.95 212.684 1331.97 213.604C1334.04 214.552 1335.56 216.807 1335.56 219.496H1337.44ZM1327.22 230.977C1326.56 231.495 1325.97 231.95 1325.41 232.28C1324.84 232.611 1324.39 232.762 1324 232.762V234.637C1324.86 234.637 1325.66 234.306 1326.35 233.899C1327.05 233.492 1327.74 232.954 1328.38 232.449L1327.22 230.977Z" fill="#84C8FF" fill-opacity="0.6"/>
<path d="M1451.67 231.074L1447 233.741L1443 231.741L1438.33 228.407L1435.67 223.741L1434.33 217.741L1437.67 212.407H1443L1447 214.407L1449.67 213.074L1453.67 211.741L1457.67 214.407L1459.67 218.407L1458.33 224.407L1451.67 231.074Z" fill="#0099FF" fill-opacity="0.4"/>
<path d="M1447 214.95L1446.32 215.6C1446.5 215.784 1446.75 215.888 1447 215.888C1447.25 215.888 1447.5 215.784 1447.68 215.6L1447 214.95ZM1443.78 230.977C1441.89 229.483 1439.82 228.025 1438.17 226.174C1436.56 224.36 1435.44 222.242 1435.44 219.496H1433.56C1433.56 222.828 1434.95 225.369 1436.77 227.419C1438.56 229.432 1440.84 231.043 1442.62 232.449L1443.78 230.977ZM1435.44 219.496C1435.44 216.807 1436.96 214.552 1439.03 213.604C1441.05 212.684 1443.75 212.927 1446.32 215.6L1447.68 214.3C1444.62 211.129 1441.08 210.606 1438.25 211.899C1435.48 213.165 1433.56 216.106 1433.56 219.496H1435.44ZM1442.62 232.449C1443.26 232.954 1443.95 233.492 1444.65 233.899C1445.34 234.306 1446.14 234.637 1447 234.637V232.762C1446.61 232.762 1446.16 232.611 1445.59 232.28C1445.03 231.95 1444.44 231.495 1443.78 230.977L1442.62 232.449ZM1451.38 232.449C1453.16 231.043 1455.44 229.432 1457.23 227.419C1459.05 225.369 1460.44 222.828 1460.44 219.496H1458.56C1458.56 222.242 1457.44 224.36 1455.83 226.174C1454.18 228.025 1452.11 229.483 1450.22 230.977L1451.38 232.449ZM1460.44 219.496C1460.44 216.106 1458.52 213.165 1455.75 211.899C1452.92 210.606 1449.38 211.129 1446.32 214.3L1447.68 215.6C1450.25 212.927 1452.95 212.684 1454.97 213.604C1457.04 214.552 1458.56 216.807 1458.56 219.496H1460.44ZM1450.22 230.977C1449.56 231.495 1448.97 231.95 1448.41 232.28C1447.84 232.611 1447.39 232.762 1447 232.762V234.637C1447.86 234.637 1448.66 234.306 1449.35 233.899C1450.05 233.492 1450.74 232.954 1451.38 232.449L1450.22 230.977Z" fill="#84C8FF" fill-opacity="0.6"/>
<path d="M1574.67 231.074L1570 233.741L1566 231.741L1561.33 228.407L1558.67 223.741L1557.33 217.741L1560.67 212.407H1566L1570 214.407L1572.67 213.074L1576.67 211.741L1580.67 214.407L1582.67 218.407L1581.33 224.407L1574.67 231.074Z" fill="#0099FF" fill-opacity="0.4"/>
<path d="M1570 214.95L1569.32 215.6C1569.5 215.784 1569.75 215.888 1570 215.888C1570.25 215.888 1570.5 215.784 1570.68 215.6L1570 214.95ZM1566.78 230.977C1564.89 229.483 1562.82 228.025 1561.17 226.174C1559.56 224.36 1558.44 222.242 1558.44 219.496H1556.56C1556.56 222.828 1557.95 225.369 1559.77 227.419C1561.56 229.432 1563.84 231.043 1565.62 232.449L1566.78 230.977ZM1558.44 219.496C1558.44 216.807 1559.96 214.552 1562.03 213.604C1564.05 212.684 1566.75 212.927 1569.32 215.6L1570.68 214.3C1567.62 211.129 1564.08 210.606 1561.25 211.899C1558.48 213.165 1556.56 216.106 1556.56 219.496H1558.44ZM1565.62 232.449C1566.26 232.954 1566.95 233.492 1567.65 233.899C1568.34 234.306 1569.14 234.637 1570 234.637V232.762C1569.61 232.762 1569.16 232.611 1568.59 232.28C1568.03 231.95 1567.44 231.495 1566.78 230.977L1565.62 232.449ZM1574.38 232.449C1576.16 231.043 1578.44 229.432 1580.23 227.419C1582.05 225.369 1583.44 222.828 1583.44 219.496H1581.56C1581.56 222.242 1580.44 224.36 1578.83 226.174C1577.18 228.025 1575.11 229.483 1573.22 230.977L1574.38 232.449ZM1583.44 219.496C1583.44 216.106 1581.52 213.165 1578.75 211.899C1575.92 210.606 1572.38 211.129 1569.32 214.3L1570.68 215.6C1573.25 212.927 1575.95 212.684 1577.97 213.604C1580.04 214.552 1581.56 216.807 1581.56 219.496H1583.44ZM1573.22 230.977C1572.56 231.495 1571.97 231.95 1571.41 232.28C1570.84 232.611 1570.39 232.762 1570 232.762V234.637C1570.86 234.637 1571.66 234.306 1572.35 233.899C1573.05 233.492 1573.74 232.954 1574.38 232.449L1573.22 230.977Z" fill="#84C8FF" fill-opacity="0.6"/>
</g>
</svg>
