<svg width="30" height="30" viewBox="0 0 30 30" fill="none" xmlns="http://www.w3.org/2000/svg">
<path d="M19.375 23.125L15 25.625L11.25 23.75L6.875 20.625L4.375 16.25L3.125 10.625L6.25 5.625H11.25L15 7.5L17.5 6.25L21.25 5L25 7.5L26.875 11.25L25.625 16.875L19.375 23.125Z" fill="#213D53"/>
<path d="M15 7.38393L14.3667 7.99342C14.5324 8.16556 14.7611 8.26284 15 8.26284C15.2389 8.26284 15.4676 8.16556 15.6333 7.99342L15 7.38393ZM11.9837 22.4088C10.2075 21.0086 8.26532 19.6413 6.72456 17.9063C5.21393 16.2054 4.16016 14.2204 4.16016 11.6454H2.40234C2.40234 14.7691 3.70371 17.152 5.41022 19.0735C7.08659 20.9612 9.22356 22.4714 10.8954 23.7893L11.9837 22.4088ZM4.16016 11.6454C4.16016 9.12485 5.58442 7.01114 7.52855 6.12248C9.41727 5.25913 11.9551 5.48776 14.3667 7.99342L15.6333 6.77444C12.7717 3.80138 9.45011 3.31137 6.79777 4.52376C4.20083 5.71083 2.40234 8.4672 2.40234 11.6454H4.16016ZM10.8954 23.7893C11.4957 24.2625 12.1401 24.7671 12.7931 25.1488C13.446 25.5302 14.1909 25.8402 15 25.8402V24.0824C14.6372 24.0824 14.2103 23.9409 13.68 23.6311C13.15 23.3213 12.6001 22.8948 11.9837 22.4088L10.8954 23.7893ZM19.1046 23.7893C20.7764 22.4714 22.9134 20.9612 24.5898 19.0735C26.2963 17.152 27.5977 14.7691 27.5977 11.6454H25.8398C25.8398 14.2204 24.7861 16.2054 23.2754 17.9063C21.7346 19.6413 19.7925 21.0086 18.0164 22.4088L19.1046 23.7893ZM27.5977 11.6454C27.5977 8.4672 25.7992 5.71083 23.2022 4.52376C20.5499 3.31137 17.2283 3.80138 14.3667 6.77444L15.6333 7.99342C18.0449 5.48776 20.5827 5.25913 22.4714 6.12248C24.4155 7.01114 25.8398 9.12485 25.8398 11.6454H27.5977ZM18.0164 22.4088C17.3999 22.8948 16.85 23.3213 16.32 23.6311C15.7897 23.9409 15.3628 24.0824 15 24.0824V25.8402C15.8091 25.8402 16.554 25.5302 17.2069 25.1488C17.86 24.7671 18.5043 24.2625 19.1046 23.7893L18.0164 22.4088Z" fill="#93D3E7"/>
</svg>
