<svg width="24" height="25" viewBox="0 0 24 25" fill="none" xmlns="http://www.w3.org/2000/svg">
<path d="M15.5 19L12 21L9 19.5L5.5 17L3.5 13.5L2.5 9L5 5H9L12 6.5L14 5.5L17 4.5L20 6.5L21.5 9.5L20.5 14L15.5 19Z" fill="url(#paint0_linear_6487_16641)"/>
<path d="M12 6.40719L11.4934 6.89479C11.6259 7.0325 11.8088 7.11032 12 7.11032C12.1912 7.11032 12.3741 7.0325 12.5066 6.89479L12 6.40719ZM9.58692 18.4271C8.16599 17.307 6.61225 16.2131 5.37965 14.8251C4.17114 13.4643 3.32812 11.8764 3.32812 9.81637H1.92188C1.92188 12.3153 2.96297 14.2216 4.32817 15.7589C5.66927 17.269 7.37885 18.4771 8.71633 19.5315L9.58692 18.4271ZM3.32812 9.81637C3.32812 7.79993 4.46753 6.10896 6.02284 5.39803C7.53382 4.70735 9.56406 4.89026 11.4934 6.89479L12.5066 5.9196C10.2173 3.54115 7.56008 3.14914 5.43821 4.11905C3.36067 5.06871 1.92188 7.27381 1.92188 9.81637H3.32812ZM8.71633 19.5315C9.19655 19.91 9.71207 20.3137 10.2345 20.6191C10.7568 20.9242 11.3527 21.1722 12 21.1722V19.7659C11.7098 19.7659 11.3682 19.6528 10.944 19.4049C10.52 19.1571 10.0801 18.8159 9.58692 18.4271L8.71633 19.5315ZM15.2837 19.5315C16.6211 18.4771 18.3307 17.269 19.6718 15.7589C21.037 14.2216 22.0781 12.3153 22.0781 9.81637H20.6719C20.6719 11.8764 19.8289 13.4643 18.6203 14.8251C17.3877 16.2131 15.834 17.307 14.4131 18.4271L15.2837 19.5315ZM22.0781 9.81637C22.0781 7.27381 20.6393 5.06871 18.5618 4.11905C16.4399 3.14914 13.7827 3.54115 11.4934 5.9196L12.5066 6.89479C14.4359 4.89026 16.4662 4.70735 17.9771 5.39803C19.5324 6.10896 20.6719 7.79993 20.6719 9.81637H22.0781ZM14.4131 18.4271C13.9199 18.8159 13.48 19.1571 13.056 19.4049C12.6318 19.6528 12.2902 19.7659 12 19.7659V21.1722C12.6473 21.1722 13.2432 20.9242 13.7655 20.6191C14.288 20.3137 14.8034 19.91 15.2837 19.5315L14.4131 18.4271Z" fill="#93D3E7"/>
<defs>
<linearGradient id="paint0_linear_6487_16641" x1="12" y1="4.5" x2="12" y2="21" gradientUnits="userSpaceOnUse">
<stop stop-color="#0059FF"/>
<stop offset="1" stop-color="#6FBAFF"/>
</linearGradient>
</defs>
</svg>
