<svg width="47" height="48" viewBox="0 0 47 48" fill="none" xmlns="http://www.w3.org/2000/svg">
<path d="M9.50244 11.5015C9.78097 11.5014 10.0563 11.5598 10.311 11.6724C10.5659 11.785 10.7944 11.9497 10.9819 12.1558L30.3823 33.5005H33.4995V27.5005L43.4995 35.5005L33.4995 43.4995V37.5005H29.4976C29.2191 37.5005 28.9437 37.4421 28.689 37.3296C28.4341 37.217 28.2056 37.0522 28.0181 36.8462L19.5005 27.4741L10.9819 36.8481C10.7944 37.0541 10.5658 37.219 10.311 37.3315C10.0563 37.444 9.78092 37.5025 9.50244 37.5024H3.50049V33.5024H8.61865L16.7983 24.5005L8.61865 15.5015H3.50049V11.5015H9.50244ZM43.4995 13.6235L33.4995 21.4995V15.4995H30.3813L24.2417 22.2593L21.2817 19.5679L28.0181 12.1538C28.2055 11.9479 28.4342 11.783 28.689 11.6704C28.9437 11.5579 29.2191 11.4994 29.4976 11.4995H33.4995V5.50049L43.4995 13.6235Z" fill="#93D3E7"/>
</svg>
