<svg width="16" height="15" viewBox="0 0 16 15" fill="none" xmlns="http://www.w3.org/2000/svg">
<path d="M2.73663 2.71094C2.83929 2.7109 2.94156 2.73194 3.03546 2.77344C3.12921 2.81492 3.21353 2.87535 3.28253 2.95117L10.43 10.8154H11.5784V8.60547L15.263 11.5527L11.5784 14.5V12.2891H10.1038C10.0012 12.2891 9.89981 12.268 9.80597 12.2266C9.71219 12.1851 9.62794 12.1246 9.5589 12.0488L6.42023 8.5957L3.28253 12.0488C3.21351 12.1247 3.12925 12.186 3.03546 12.2275C2.94156 12.269 2.83929 12.2901 2.73663 12.29H0.525696V10.8164H2.41144L5.42511 7.5L2.41144 4.18457H0.525696V2.71094H2.73663ZM15.262 3.49316L11.5784 6.39453V4.18457H10.429L8.1673 6.6748L7.07648 5.68262L9.55792 2.95117C9.62701 2.87524 9.71207 2.81493 9.80597 2.77344C9.89977 2.73204 10.0013 2.7109 10.1038 2.71094H11.5784V0.5L15.262 3.49316Z" fill="#93D3E7"/>
</svg>
