<svg width="1880" height="160" viewBox="0 0 1880 160" fill="none" xmlns="http://www.w3.org/2000/svg">
<rect y="112" width="88" height="20" rx="6" fill="#EEEEEE" fill-opacity="0.1"/>
<rect y="140" width="88" height="20" rx="6" fill="#EEEEEE" fill-opacity="0.1"/>
<rect x="112" y="56" width="88" height="20" rx="6" fill="#EEEEEE" fill-opacity="0.1"/>
<rect x="112" y="84" width="88" height="20" rx="6" fill="#EEEEEE" fill-opacity="0.1"/>
<rect x="112" y="112" width="88" height="20" rx="6" fill="#EEEEEE" fill-opacity="0.1"/>
<rect x="112" y="140" width="88" height="20" rx="6" fill="#EEEEEE" fill-opacity="0.1"/>
<rect x="224" width="88" height="20" rx="6" fill="#EEEEEE" fill-opacity="0.1"/>
<rect x="224" y="28" width="88" height="20" rx="6" fill="#EEEEEE" fill-opacity="0.1"/>
<rect x="224" y="84" width="88" height="20" rx="6" fill="#EEEEEE" fill-opacity="0.1"/>
<rect x="224" y="112" width="88" height="20" rx="6" fill="#EEEEEE" fill-opacity="0.1"/>
<rect x="224" y="140" width="88" height="20" rx="6" fill="#EEEEEE" fill-opacity="0.1"/>
<rect x="224" y="56" width="88" height="20" rx="6" fill="#EEEEEE" fill-opacity="0.1"/>
<rect x="336" y="140" width="88" height="20" rx="6" fill="#EEEEEE" fill-opacity="0.1"/>
<rect x="448" y="84" width="88" height="20" rx="6" fill="#EEEEEE" fill-opacity="0.1"/>
<rect x="448" y="112" width="88" height="20" rx="6" fill="#EEEEEE" fill-opacity="0.1"/>
<rect x="448" y="140" width="88" height="20" rx="6" fill="#EEEEEE" fill-opacity="0.1"/>
<rect x="560" y="112" width="88" height="20" rx="6" fill="#EEEEEE" fill-opacity="0.1"/>
<rect x="560" y="140" width="88" height="20" rx="6" fill="#EEEEEE" fill-opacity="0.1"/>
<rect x="672" y="112" width="88" height="20" rx="6" fill="#EEEEEE" fill-opacity="0.1"/>
<rect x="672" y="140" width="88" height="20" rx="6" fill="#EEEEEE" fill-opacity="0.1"/>
<rect x="784" y="56" width="88" height="20" rx="6" fill="#EEEEEE" fill-opacity="0.1"/>
<rect x="784" y="84" width="88" height="20" rx="6" fill="#EEEEEE" fill-opacity="0.1"/>
<rect x="784" y="112" width="88" height="20" rx="6" fill="#EEEEEE" fill-opacity="0.1"/>
<rect x="784" y="140" width="88" height="20" rx="6" fill="#EEEEEE" fill-opacity="0.1"/>
<rect x="896" width="88" height="20" rx="6" fill="#EEEEEE" fill-opacity="0.1"/>
<rect x="896" y="28" width="88" height="20" rx="6" fill="#EEEEEE" fill-opacity="0.1"/>
<rect x="896" y="84" width="88" height="20" rx="6" fill="#EEEEEE" fill-opacity="0.1"/>
<rect x="896" y="112" width="88" height="20" rx="6" fill="#EEEEEE" fill-opacity="0.1"/>
<rect x="896" y="140" width="88" height="20" rx="6" fill="#EEEEEE" fill-opacity="0.1"/>
<rect x="896" y="56" width="88" height="20" rx="6" fill="#EEEEEE" fill-opacity="0.1"/>
<rect x="1008" y="112" width="88" height="20" rx="6" fill="#EEEEEE" fill-opacity="0.1"/>
<rect x="1008" y="140" width="88" height="20" rx="6" fill="#EEEEEE" fill-opacity="0.1"/>
<rect x="1120" y="56" width="88" height="20" rx="6" fill="#EEEEEE" fill-opacity="0.1"/>
<rect x="1120" y="84" width="88" height="20" rx="6" fill="#EEEEEE" fill-opacity="0.1"/>
<rect x="1120" y="112" width="88" height="20" rx="6" fill="#EEEEEE" fill-opacity="0.1"/>
<rect x="1120" y="140" width="88" height="20" rx="6" fill="#EEEEEE" fill-opacity="0.1"/>
<rect x="1232" width="88" height="20" rx="6" fill="#EEEEEE" fill-opacity="0.1"/>
<rect x="1232" y="28" width="88" height="20" rx="6" fill="#EEEEEE" fill-opacity="0.1"/>
<rect x="1232" y="84" width="88" height="20" rx="6" fill="#EEEEEE" fill-opacity="0.1"/>
<rect x="1232" y="112" width="88" height="20" rx="6" fill="#EEEEEE" fill-opacity="0.1"/>
<rect x="1232" y="140" width="88" height="20" rx="6" fill="#EEEEEE" fill-opacity="0.1"/>
<rect x="1232" y="56" width="88" height="20" rx="6" fill="#EEEEEE" fill-opacity="0.1"/>
<rect x="1344" y="140" width="88" height="20" rx="6" fill="#EEEEEE" fill-opacity="0.1"/>
<rect x="1456" y="84" width="88" height="20" rx="6" fill="#EEEEEE" fill-opacity="0.1"/>
<rect x="1456" y="112" width="88" height="20" rx="6" fill="#EEEEEE" fill-opacity="0.1"/>
<rect x="1456" y="140" width="88" height="20" rx="6" fill="#EEEEEE" fill-opacity="0.1"/>
<rect x="1568" y="112" width="88" height="20" rx="6" fill="#EEEEEE" fill-opacity="0.1"/>
<rect x="1568" y="140" width="88" height="20" rx="6" fill="#EEEEEE" fill-opacity="0.1"/>
<rect x="1680" y="56" width="88" height="20" rx="6" fill="#EEEEEE" fill-opacity="0.1"/>
<rect x="1680" y="84" width="88" height="20" rx="6" fill="#EEEEEE" fill-opacity="0.1"/>
<rect x="1680" y="112" width="88" height="20" rx="6" fill="#EEEEEE" fill-opacity="0.1"/>
<rect x="1680" y="140" width="88" height="20" rx="6" fill="#EEEEEE" fill-opacity="0.1"/>
<rect x="1792" width="88" height="20" rx="6" fill="#EEEEEE" fill-opacity="0.1"/>
<rect x="1792" y="28" width="88" height="20" rx="6" fill="#EEEEEE" fill-opacity="0.1"/>
<rect x="1792" y="84" width="88" height="20" rx="6" fill="#EEEEEE" fill-opacity="0.1"/>
<rect x="1792" y="112" width="88" height="20" rx="6" fill="#EEEEEE" fill-opacity="0.1"/>
<rect x="1792" y="140" width="88" height="20" rx="6" fill="#EEEEEE" fill-opacity="0.1"/>
<rect x="1792" y="56" width="88" height="20" rx="6" fill="#EEEEEE" fill-opacity="0.1"/>
</svg>
