<svg width="1920" height="1160" viewBox="0 0 1920 1160" fill="none" xmlns="http://www.w3.org/2000/svg">
<g opacity="0.6" filter="url(#filter0_f_3203_45045)">
<ellipse cx="250.903" cy="79.1933" rx="250.903" ry="79.1933" transform="matrix(-0.767182 0.64143 -0.969293 -0.24591 266.813 -19.2871)" fill="#7D52F4"/>
<ellipse cx="406.208" cy="79.1933" rx="406.208" ry="79.1933" transform="matrix(-0.767182 0.64143 -0.969293 -0.24591 587.699 -16.3882)" fill="#D8B7E6"/>
<ellipse cx="250.903" cy="79.1933" rx="250.903" ry="79.1933" transform="matrix(-0.767182 0.64143 -0.969293 -0.24591 451.219 -261.022)" fill="#8273BE"/>
<ellipse cx="214.238" cy="87.8158" rx="214.238" ry="87.8158" transform="matrix(-0.81825 0.627262 -0.688576 -0.430112 202.615 -195.695)" fill="#812FF3" fill-opacity="0.26"/>
</g>
<g opacity="0.6" filter="url(#filter1_f_3203_45045)">
<ellipse cx="311.52" cy="125.708" rx="311.52" ry="125.708" transform="matrix(0.767111 0.641514 -0.0704349 0.997516 1692.66 798.06)" fill="#52F4E7"/>
<ellipse cx="292.423" cy="92.2984" rx="292.423" ry="92.2984" transform="matrix(0.767111 0.641514 -0.0704349 0.997516 1790.89 538.615)" fill="#2FF3CF"/>
<ellipse cx="292.423" cy="92.2984" rx="292.423" ry="92.2984" transform="matrix(0.767111 0.641514 -0.0704349 0.997516 1406.63 660.912)" fill="#7470F1" fill-opacity="0.03"/>
<ellipse cx="287.823" cy="87.9833" rx="287.823" ry="87.9833" transform="matrix(0.762207 0.694284 -0.301422 0.753842 1511.83 953.88)" fill="#2F3FF3" fill-opacity="0.26"/>
</g>
<g opacity="0.6" filter="url(#filter2_f_3203_45045)">
<ellipse cx="372.02" cy="117.422" rx="372.02" ry="117.422" transform="matrix(-0.996521 0.0833388 -0.651388 -0.758745 411.318 971.804)" fill="#5C31F4"/>
<ellipse cx="382.177" cy="130.613" rx="382.177" ry="130.613" transform="matrix(-0.996521 0.0833388 -0.651388 -0.758745 1800.63 455.199)" fill="#31AAF4" fill-opacity="0.57"/>
<ellipse cx="382.177" cy="130.613" rx="382.177" ry="130.613" transform="matrix(-0.996521 0.0833388 -0.651388 -0.758745 1800.84 748.203)" fill="#31AAF4" fill-opacity="0.57"/>
<ellipse cx="382.177" cy="130.613" rx="382.177" ry="130.613" transform="matrix(-0.996521 0.0833388 -0.651388 -0.758745 1870.85 1034.2)" fill="#31AAF4" fill-opacity="0.57"/>
<ellipse cx="372.02" cy="117.422" rx="372.02" ry="117.422" transform="matrix(-0.996521 0.0833388 -0.651388 -0.758745 603.001 1290.31)" fill="#2F46F3"/>
<ellipse cx="372.02" cy="117.422" rx="372.02" ry="117.422" transform="matrix(-0.996521 0.0833388 -0.651388 -0.758745 841.159 835.916)" fill="#8A70F1" fill-opacity="0.03"/>
<ellipse cx="258.661" cy="111.932" rx="258.661" ry="111.932" transform="matrix(-1.03014 0.0423715 -0.315807 -0.74793 483.915 703.096)" fill="#2F3FF3" fill-opacity="0.26"/>
</g>
<defs>
<filter id="filter0_f_3203_45045" x="-518.64" y="-581.687" width="1338.97" height="1367.67" filterUnits="userSpaceOnUse" color-interpolation-filters="sRGB">
<feFlood flood-opacity="0" result="BackgroundImageFix"/>
<feBlend mode="normal" in="SourceGraphic" in2="BackgroundImageFix" result="shape"/>
<feGaussianBlur stdDeviation="150" result="effect1_foregroundBlur_3203_45045"/>
</filter>
<filter id="filter1_f_3203_45045" x="1100.03" y="309.262" width="1433.1" height="1421.38" filterUnits="userSpaceOnUse" color-interpolation-filters="sRGB">
<feFlood flood-opacity="0" result="BackgroundImageFix"/>
<feBlend mode="normal" in="SourceGraphic" in2="BackgroundImageFix" result="shape"/>
<feGaussianBlur stdDeviation="150" result="effect1_foregroundBlur_3203_45045"/>
</filter>
<filter id="filter2_f_3203_45045" x="-714.505" y="-16.1753" width="2809.75" height="1642.75" filterUnits="userSpaceOnUse" color-interpolation-filters="sRGB">
<feFlood flood-opacity="0" result="BackgroundImageFix"/>
<feBlend mode="normal" in="SourceGraphic" in2="BackgroundImageFix" result="shape"/>
<feGaussianBlur stdDeviation="150" result="effect1_foregroundBlur_3203_45045"/>
</filter>
</defs>
</svg>
