<svg width="24" height="25" viewBox="0 0 24 25" fill="none" xmlns="http://www.w3.org/2000/svg">
<path d="M12.6144 21.2168H3.99346C3.44463 21.2168 3 20.7719 3 20.2233V4.21025C3 3.66149 3.4447 3.2168 3.99346 3.2168H20.0066C20.5552 3.2168 21 3.66149 21 4.21025V20.2233C21 20.772 20.5552 21.2168 20.0066 21.2168H15.4197V14.2462H17.7594L18.1098 11.5296H15.4197V9.79529C15.4197 9.00878 15.6381 8.4728 16.766 8.4728L18.2045 8.47217V6.04246C17.9557 6.00935 17.1018 5.93539 16.1083 5.93539C14.0343 5.93539 12.6144 7.20137 12.6144 9.52625V11.5296H10.2687V14.2462H12.6144V21.2168Z" fill="white"/>
</svg>
