<svg width="24" height="25" viewBox="0 0 24 25" fill="none" xmlns="http://www.w3.org/2000/svg">
<path d="M12.0005 3.2168C7.03034 3.2168 3 7.24608 3 12.2173C3 15.9016 5.21626 19.0683 8.38825 20.46C8.36285 19.8324 8.38402 19.0767 8.54384 18.393C8.71741 17.6627 9.70171 13.4895 9.70171 13.4895C9.70171 13.4895 9.41489 12.9148 9.41489 12.0649C9.41489 10.7314 10.1886 9.73541 11.1506 9.73541C11.9688 9.73541 12.3646 10.3503 12.3646 11.087C12.3646 11.9093 11.8397 13.1402 11.5698 14.2801C11.3443 15.2358 12.0482 16.0138 12.9901 16.0138C14.6952 16.0138 15.8435 13.824 15.8435 11.2288C15.8435 9.25702 14.5153 7.78056 12.099 7.78056C9.36938 7.78056 7.66855 9.81584 7.66855 12.0893C7.66855 12.8746 7.89928 13.4271 8.26125 13.8547C8.42847 14.0526 8.4507 14.1309 8.39037 14.3574C8.34803 14.5214 8.24854 14.9215 8.20727 15.0792C8.14694 15.3068 7.96278 15.3893 7.75745 15.3046C6.49903 14.7913 5.91374 13.4144 5.91374 11.8659C5.91374 9.30993 8.06968 6.24273 12.3456 6.24273C15.7821 6.24273 18.0439 8.731 18.0439 11.3992C18.0439 14.93 16.0817 17.5675 13.187 17.5675C12.2164 17.5675 11.302 17.0425 10.9887 16.4466C10.9887 16.4466 10.4659 18.52 10.3558 18.9201C10.1653 19.6133 9.79167 20.3076 9.44981 20.8474C10.2595 21.0866 11.1147 21.2168 12.0005 21.2168C16.9707 21.2168 21 17.1875 21 12.2173C21 7.24608 16.9707 3.2168 12.0005 3.2168Z" fill="white"/>
</svg>
