<svg width="24" height="25" viewBox="0 0 24 25" fill="none" xmlns="http://www.w3.org/2000/svg">
<path d="M5.57129 16.0742C6.99135 16.0742 8.14258 17.2254 8.14258 18.6455C8.1425 20.0655 6.9913 21.2168 5.57129 21.2168C4.15142 21.2166 3.00008 20.0654 3 18.6455C3 17.2255 4.15137 16.0744 5.57129 16.0742ZM3 9.2168C9.61686 9.2168 15 14.5999 15 21.2168H11.5713C11.5713 16.4905 7.72623 12.6455 3 12.6455V9.2168ZM3 3.2168C12.925 3.2168 21 11.2917 21 21.2168H17.5713C17.5713 13.1817 11.035 6.64551 3 6.64551V3.2168Z" fill="white"/>
</svg>
