<svg width="24" height="25" viewBox="0 0 24 25" fill="none" xmlns="http://www.w3.org/2000/svg">
<path d="M21 6.99253C20.3386 7.29372 19.6265 7.4974 18.8796 7.58841C19.6424 7.12037 20.2277 6.37823 20.5034 5.49415C19.7892 5.92752 19 6.2428 18.1569 6.41181C17.4849 5.67617 16.5246 5.2168 15.4617 5.2168C13.4237 5.2168 11.7702 6.91235 11.7702 9.00336C11.7702 9.30022 11.8019 9.58841 11.8653 9.86577C8.79609 9.70759 6.07554 8.20163 4.25304 5.90802C3.93502 6.46923 3.7533 7.12037 3.7533 7.81376C3.7533 9.12687 4.40518 10.2861 5.3962 10.9654C4.79186 10.947 4.22134 10.7748 3.72266 10.4931V10.5397C3.72266 12.375 4.99577 13.9059 6.68621 14.2526C6.37665 14.3414 6.05018 14.3858 5.71315 14.3858C5.47544 14.3858 5.243 14.3631 5.01796 14.3186C5.48811 15.8224 6.85103 16.9178 8.46751 16.947C7.20391 17.9633 5.61067 18.5689 3.88114 18.5689C3.5832 18.5689 3.28843 18.5516 3 18.5169C4.63444 19.5895 6.57633 20.2168 8.66086 20.2168C15.4543 20.2168 19.168 14.4476 19.168 9.44323C19.168 9.27855 19.1648 9.11387 19.1585 8.95244C19.8801 8.41831 20.5066 7.75201 21 6.99253Z" fill="white"/>
</svg>
